<svg width="558" height="568" viewBox="0 0 558 568" fill="none" xmlns="http://www.w3.org/2000/svg">
<rect width="558" height="568" fill="#1E1E1E"/>
<g clip-path="url(#clip0_4_554)">
<rect width="1920" height="7154" transform="translate(-1187 -4965)" fill="#001430"/>
<path d="M-1187 -228H733V2189H-1187V-228Z" fill="#011430"/>
<path d="M-1187 -228H733V2189H-1187V-228Z" fill="url(#paint0_radial_4_554)" fill-opacity="0.4"/>
<path d="M-1187 -228V-227.5H733V-228V-228.5H-1187V-228ZM733 2189V2188.5H-1187V2189V2189.5H733V2189Z" fill="black" fill-opacity="0.1"/>
<path opacity="0.2" d="M212 1062L212 -228" stroke="#0499FC"/>
<path opacity="0.3" d="M385 59.214L454.027 -46L521 59.214L478.155 59.8738L454.027 92L430.196 59.8738L385 59.214Z" fill="#4281D7" stroke="#4281D7"/>
<path opacity="0.3" d="M1 432.53L283.199 1L557 432.53L381.841 435.236L283.199 567L185.773 435.236L1 432.53Z" fill="url(#paint1_linear_4_554)" stroke="#457392"/>
<path d="M131 361.113L286.311 124L437 361.113L340.6 362.6L286.311 435L232.692 362.6L131 361.113Z" fill="#4792FF"/>
<path d="M131 361.113L286.311 124L437 361.113L340.6 362.6L286.311 435L232.692 362.6L131 361.113Z" fill="url(#paint2_radial_4_554)"/>
<path d="M131 361.113L286.311 124L437 361.113L340.6 362.6L286.311 435L232.692 362.6L131 361.113Z" stroke="black" stroke-opacity="0.1"/>
<path opacity="0.3" d="M1 432.53L283.199 1L557 432.53L381.841 435.236L283.199 567L185.773 435.236L1 432.53Z" fill="url(#paint3_linear_4_554)" stroke="#457392"/>
<path d="M131 361.113L286.311 124L437 361.113L340.6 362.6L286.311 435L232.692 362.6L131 361.113Z" fill="#4792FF"/>
<path d="M131 361.113L286.311 124L437 361.113L340.6 362.6L286.311 435L232.692 362.6L131 361.113Z" fill="url(#paint4_radial_4_554)"/>
<path d="M131 361.113L286.311 124L437 361.113L340.6 362.6L286.311 435L232.692 362.6L131 361.113Z" stroke="black" stroke-opacity="0.1"/>
</g>
<defs>
<radialGradient id="paint0_radial_4_554" cx="0" cy="0" r="1" gradientUnits="userSpaceOnUse" gradientTransform="translate(-463 2567.48) rotate(-77.6382) scale(1803.03 1549.18)">
<stop stop-color="#0499FC"/>
<stop offset="1"/>
</radialGradient>
<linearGradient id="paint1_linear_4_554" x1="470.329" y1="261.098" x2="74.511" y2="516.169" gradientUnits="userSpaceOnUse">
<stop stop-color="#4281D7" stop-opacity="0.06"/>
<stop offset="1" stop-color="#0499FC"/>
</linearGradient>
<radialGradient id="paint2_radial_4_554" cx="0" cy="0" r="1" gradientUnits="userSpaceOnUse" gradientTransform="translate(246.387 483.699) rotate(-74.8124) scale(234.822 243.933)">
<stop stop-color="#0499FC"/>
<stop offset="1" stop-color="#00214F"/>
</radialGradient>
<linearGradient id="paint3_linear_4_554" x1="470.329" y1="261.098" x2="74.511" y2="516.169" gradientUnits="userSpaceOnUse">
<stop stop-color="#4281D7" stop-opacity="0.06"/>
<stop offset="1" stop-color="#0499FC"/>
</linearGradient>
<radialGradient id="paint4_radial_4_554" cx="0" cy="0" r="1" gradientUnits="userSpaceOnUse" gradientTransform="translate(246.387 483.699) rotate(-74.8124) scale(234.822 243.933)">
<stop stop-color="#0499FC"/>
<stop offset="1" stop-color="#00214F"/>
</radialGradient>
<clipPath id="clip0_4_554">
<rect width="1920" height="7154" fill="white" transform="translate(-1187 -4965)"/>
</clipPath>
</defs>
</svg>
