<svg width="57" height="57" viewBox="0 0 57 57" fill="none" xmlns="http://www.w3.org/2000/svg">
<path d="M28.3688 0.123602C28.4768 0.123661 28.5848 0.123721 28.6961 0.123782C35.9401 0.14207 35.9401 0.14207 37.734 1.84626C37.9089 2.15221 37.9991 2.32775 38.0075 2.68024C37.8804 3.08978 37.7629 3.36484 37.4538 3.66462C36.6455 3.93977 35.7376 3.59552 34.9518 3.357C31.1846 2.29638 27.0721 2.20909 23.2418 3.00837C23.1459 3.02768 23.0499 3.047 22.951 3.0669C19.0432 3.87558 15.4156 5.67595 12.3043 8.14899C12.2125 8.22164 12.2125 8.22164 12.1188 8.29575C10.537 9.55812 9.12275 10.9993 7.92934 12.6334C7.87881 12.702 7.82829 12.7707 7.77623 12.8414C7.1341 13.6836 7.1341 13.6836 6.61684 14.6021C6.70791 14.6292 6.79898 14.6563 6.89282 14.6843C7.3234 14.8389 7.70667 15.0383 8.1075 15.2567C8.26732 15.3418 8.42718 15.4268 8.58709 15.5117C8.83696 15.645 9.08645 15.7789 9.33517 15.9144C9.57672 16.0456 9.81949 16.1742 10.0626 16.3026C10.1737 16.3642 10.1737 16.3642 10.287 16.4271C10.609 16.5949 10.8065 16.6973 11.1682 16.6161C11.2975 16.5396 11.2975 16.5396 11.4293 16.4615C11.5277 16.4089 11.6261 16.3563 11.7274 16.302C11.8348 16.2403 11.9421 16.1786 12.0527 16.115C12.1745 16.0452 12.2962 15.9754 12.4217 15.9035C12.5535 15.8275 12.6853 15.7514 12.817 15.6754C12.9545 15.5964 13.092 15.5174 13.2295 15.4385C13.5825 15.2357 13.9353 15.0324 14.288 14.829C14.6007 14.6487 14.9135 14.4686 15.2263 14.2885C15.8123 13.9508 16.398 13.6126 16.9836 13.2742C17.5748 12.9327 18.1661 12.5917 18.7575 12.2506C18.8746 12.183 18.9918 12.1153 19.1125 12.0457C19.7075 11.7023 20.3027 11.3591 20.898 11.0162C21.1369 10.8785 21.3759 10.7408 21.6149 10.6031C21.7321 10.5355 21.8494 10.468 21.9701 10.3984C22.6669 9.99641 23.3621 9.59197 24.0561 9.18538C24.4859 8.93388 24.9162 8.68351 25.3469 8.43354C25.5445 8.3186 25.7419 8.20326 25.939 8.08747C26.2058 7.93106 26.4736 7.7766 26.7418 7.62263C26.8183 7.57725 26.8948 7.53188 26.9736 7.48513C27.6173 7.1201 28.1956 6.97244 28.9293 7.12873C29.4038 7.26764 29.8161 7.4914 30.2418 7.73884C30.3258 7.78654 30.4098 7.83425 30.4963 7.88341C30.7769 8.04347 31.0564 8.20535 31.3356 8.36774C31.4338 8.42481 31.5321 8.48187 31.6333 8.54067C32.0598 8.78878 32.486 9.03742 32.9117 9.28686C33.7684 9.78855 34.6292 10.2826 35.4918 10.774C36.5551 11.3799 37.6147 11.9917 38.671 12.6097C39.6996 13.2112 40.7316 13.8068 41.7642 14.4013C42.205 14.6551 42.6453 14.9097 43.0849 15.1654C43.346 15.3173 43.6073 15.4689 43.8686 15.6205C44.0529 15.7275 44.237 15.8349 44.421 15.9424C44.5329 16.0072 44.6448 16.0721 44.7601 16.1389C44.8583 16.1961 44.9564 16.2532 45.0576 16.3121C45.1493 16.3614 45.2411 16.4107 45.3356 16.4615C45.4235 16.5103 45.5114 16.5591 45.602 16.6094C46.0097 16.7124 46.2024 16.5772 46.5712 16.3859C46.6361 16.3529 46.7009 16.3199 46.7677 16.2859C46.975 16.1799 47.1806 16.0712 47.3864 15.9625C47.523 15.8922 47.6597 15.822 47.7965 15.7521C48.4551 15.4136 49.107 15.0651 49.7474 14.6931C49.9293 14.6021 49.9293 14.6021 50.1481 14.6021C49.1674 13.0087 48.0504 11.5787 46.7575 10.2271C46.7073 10.1745 46.657 10.1219 46.6053 10.0677C45.9999 9.43686 45.3819 8.86161 44.6789 8.34083C44.332 8.03602 44.2528 7.79636 44.194 7.34235C44.2575 6.81622 44.4184 6.65997 44.7887 6.28962C45.1288 6.11957 45.3971 6.14891 45.7731 6.18024C46.2581 6.46607 46.6702 6.81472 47.0788 7.1988C47.1391 7.25511 47.1994 7.31143 47.2615 7.36946C48.4028 8.44264 49.5258 9.52452 50.4762 10.774C50.5437 10.8609 50.5437 10.8609 50.6126 10.9495C53.3968 14.5434 55.196 18.792 56.0543 23.2427C56.0724 23.3322 56.0905 23.4216 56.1091 23.5137C56.7392 26.7652 56.6343 30.5121 55.945 33.7427C55.9191 33.864 55.8933 33.9852 55.8667 34.1102C55.3316 36.5282 54.5071 38.8979 53.3249 41.0786C53.201 41.3073 53.0803 41.5375 52.9594 41.7677C52.0855 43.4079 51.0341 44.9134 49.82 46.3209C49.7506 46.4024 49.6812 46.4839 49.6098 46.5678C48.3176 48.0453 46.9227 49.4294 45.3356 50.5865C45.2124 50.6789 45.0892 50.7713 44.966 50.8638C41.5388 53.406 37.478 55.0328 33.3043 55.8365C33.2143 55.8546 33.1243 55.8726 33.0316 55.8912C30.0149 56.4713 26.4695 56.4456 23.4606 55.8365C23.3602 55.8166 23.2598 55.7966 23.1564 55.7761C22.4508 55.6326 21.7518 55.4683 21.0543 55.2896C20.9323 55.2588 20.9323 55.2588 20.8077 55.2273C18.7932 54.7087 16.8702 53.861 15.0387 52.8834C14.9681 52.8462 14.8974 52.8091 14.8246 52.7708C13.1691 51.8955 11.6439 50.825 10.2262 49.6021C10.1447 49.5327 10.0632 49.4634 9.97927 49.3919C8.50216 48.1001 7.11623 46.7055 5.96059 45.1177C5.86691 44.992 5.7732 44.8662 5.67946 44.7405C5.0187 43.8443 4.43522 42.9117 3.88247 41.9459C3.8107 41.8231 3.73894 41.7003 3.665 41.5737C2.19769 38.9596 1.28326 36.0182 0.710592 33.0865C0.692369 32.9966 0.674146 32.9067 0.65537 32.8141C0.0238298 29.5537 0.145868 25.8272 0.819967 22.5865C0.840446 22.4871 0.860925 22.3878 0.882024 22.2854C1.01811 21.6487 1.18204 21.0232 1.36684 20.399C1.39315 20.3094 1.41947 20.2198 1.44658 20.1275C2.56235 16.4049 4.40522 12.9526 6.94497 10.0084C7.01433 9.92687 7.0837 9.84538 7.15517 9.76142C8.44701 8.28431 9.84161 6.89838 11.4293 5.74274C11.5551 5.64906 11.6809 5.55535 11.8066 5.46161C12.6396 4.84739 13.5021 4.29398 14.4001 3.77976C14.5894 3.67141 14.7775 3.56126 14.9657 3.45099C19.0446 1.15746 23.7195 0.113925 28.3688 0.123602ZM27.4254 9.90583C27.2965 9.97961 27.2965 9.97961 27.165 10.0549C26.8772 10.2202 26.5907 10.3875 26.3043 10.5552C26.1024 10.6728 25.9005 10.7903 25.6985 10.9077C25.3749 11.0962 25.0515 11.285 24.7283 11.4743C23.8716 11.976 23.0107 12.4701 22.1481 12.9615C21.0856 13.5669 20.0269 14.1784 18.9713 14.7957C17.1224 15.8768 15.2689 16.95 13.3981 17.9927C13.862 18.3995 14.3592 18.6623 14.9063 18.937C15.0001 18.9847 15.0939 19.0325 15.1906 19.0817C15.4906 19.2343 15.791 19.386 16.0915 19.5377C16.4826 19.736 16.8737 19.9346 17.2647 20.1332C17.4102 20.2071 17.4102 20.2071 17.5586 20.2824C18.4713 20.7464 19.3771 21.2233 20.2822 21.702C20.6013 21.8704 20.9213 22.0369 21.2415 22.2033C21.3458 22.2575 21.4501 22.3117 21.5576 22.3675C21.7658 22.4756 21.974 22.5835 22.1823 22.6914C22.2846 22.7446 22.387 22.7978 22.4925 22.8527C22.5818 22.899 22.6711 22.9453 22.7631 22.993C22.9507 23.0943 23.1346 23.2028 23.3156 23.3155C23.5538 23.4822 23.5538 23.4822 23.7956 23.4525C24.0651 23.3248 24.2335 23.1591 24.445 22.9488C25.6127 21.8841 27.1378 21.4124 28.7072 21.462C30.3953 21.6186 31.6736 22.2735 32.8668 23.4615C33.4879 23.2836 34.0292 22.9913 34.5963 22.689C34.8214 22.5703 35.0466 22.4517 35.2718 22.3331C35.3941 22.2687 35.5165 22.2042 35.6425 22.1378C36.2962 21.7945 36.9535 21.4579 37.6102 21.1204C38.7603 20.5293 39.9096 19.937 41.0563 19.3394C41.1522 19.2895 41.2482 19.2396 41.347 19.1882C42.0248 18.8343 42.6966 18.4701 43.3668 18.1021C43.0464 17.8519 42.7172 17.6428 42.3645 17.4407C42.2523 17.3762 42.1401 17.3117 42.0244 17.2453C41.9035 17.1761 41.7825 17.107 41.6579 17.0357C41.5302 16.9625 41.4026 16.8892 41.275 16.8159C41.01 16.6637 40.745 16.5116 40.4798 16.3596C39.8737 16.012 39.2688 15.6624 38.6637 15.3131C38.4267 15.1763 38.1898 15.0396 37.9528 14.9029C33.6872 12.442 33.6872 12.442 33.3311 12.2365C33.0961 12.101 32.8611 11.9655 32.626 11.8301C32.0697 11.5095 31.5139 11.1883 30.9594 10.8646C30.697 10.7115 30.4344 10.5587 30.1718 10.406C29.9861 10.2978 29.8008 10.1891 29.6155 10.0804C29.5033 10.0152 29.391 9.94994 29.2754 9.88276C29.1273 9.79618 29.1273 9.79618 28.9762 9.70785C28.3247 9.37183 28.0347 9.54703 27.4254 9.90583ZM5.41372 16.5709C3.75539 19.6607 2.68815 23.322 2.65328 26.841C2.65221 26.9312 2.65114 27.0213 2.65003 27.1142C2.59068 33.413 4.30402 39.269 8.25747 44.2427C8.33011 44.3346 8.33011 44.3346 8.40423 44.4283C9.57415 45.8942 10.9144 47.2706 12.4137 48.399C12.4815 48.4509 12.5493 48.5028 12.6192 48.5563C16.2832 51.3495 20.4697 53.0649 25.0192 53.7379C25.1103 53.7514 25.2013 53.765 25.2952 53.779C25.9389 53.8667 26.5176 53.8677 27.1793 53.8677C27.1793 52.2074 27.1793 50.5471 27.1793 48.8365C26.5838 48.5049 26.5838 48.5049 25.9762 48.1666C24.805 47.5121 23.6436 46.842 22.486 46.1636C21.7964 45.7595 21.1043 45.3596 20.4118 44.9605C20.2936 44.8924 20.1755 44.8243 20.0538 44.7542C19.8143 44.6162 19.5747 44.4782 19.3352 44.3402C18.6231 43.9299 17.9113 43.519 17.1994 43.1082C16.4846 42.6958 15.7695 42.2836 15.0544 41.8717C14.7009 41.6679 14.3477 41.4636 13.9945 41.2593C13.5115 40.98 13.0271 40.7033 12.5419 40.4279C12.3032 40.2913 12.0645 40.1547 11.8258 40.0181C11.7153 39.956 11.6047 39.8939 11.4908 39.8299C10.6985 39.3743 10.2585 39.0107 9.9684 38.1126C9.81308 37.3991 9.85003 36.6579 9.8508 35.9309C9.84981 35.7432 9.84868 35.5556 9.84742 35.3679C9.84442 34.8609 9.84339 34.3539 9.84274 33.8468C9.84171 33.3161 9.83884 32.7853 9.83617 32.2546C9.8314 31.2506 9.82828 30.2466 9.82575 29.2425C9.82278 28.0991 9.81798 26.9556 9.81303 25.8121C9.80288 23.4609 9.79504 21.1096 9.78872 18.7584C9.68224 18.7038 9.57577 18.6492 9.46607 18.5929C9.0695 18.3894 8.67307 18.1857 8.27667 17.982C8.10537 17.894 7.93405 17.806 7.76269 17.7182C7.5158 17.5915 7.26904 17.4647 7.0223 17.3378C6.94617 17.2988 6.87004 17.2598 6.79161 17.2197C6.47629 17.0572 6.16955 16.893 5.86689 16.7075C5.64619 16.5525 5.64619 16.5525 5.41372 16.5709ZM50.7702 16.7994C50.6703 16.8493 50.5705 16.8991 50.4677 16.9505C50.3622 17.0034 50.2567 17.0564 50.1481 17.1109C50.0494 17.16 49.9507 17.2092 49.849 17.2598C49.1818 17.5939 48.521 17.9388 47.8619 18.2886C47.7336 18.3566 47.7336 18.3566 47.6028 18.426C47.3939 18.5367 47.1851 18.6475 46.9762 18.7584C46.9758 18.9041 46.9758 18.9041 46.9754 19.0528C46.969 21.4191 46.9607 23.7853 46.9504 26.1515C46.9455 27.2958 46.9412 28.44 46.9383 29.5843C46.9358 30.5819 46.9322 31.5794 46.9271 32.577C46.9245 33.105 46.9225 33.633 46.9218 34.161C46.9211 34.6585 46.9189 35.1559 46.9156 35.6533C46.9146 35.8355 46.9142 36.0176 46.9144 36.1997C46.9161 38.5041 46.9161 38.5041 46.1012 39.3209C45.8356 39.5075 45.8356 39.5075 45.5364 39.6755C45.4242 39.7393 45.3119 39.8031 45.1963 39.8688C45.0753 39.9361 44.9544 40.0035 44.8297 40.0728C44.7021 40.145 44.5745 40.2173 44.4469 40.2896C44.1821 40.4398 43.917 40.5895 43.6517 40.7388C43.0435 41.0816 42.4398 41.4321 41.8356 41.7818C41.5986 41.9186 41.3617 42.0553 41.1247 42.192C40.9487 42.2935 40.9487 42.2935 40.7692 42.397C39.4658 43.149 38.1624 43.9009 36.859 44.6529C36.7417 44.7206 36.6243 44.7883 36.5034 44.8581C36.2669 44.9945 36.0304 45.131 35.7938 45.2674C35.1945 45.6131 34.5952 45.959 33.9961 46.3051C32.5281 47.1528 31.058 47.9966 29.5856 48.8365C29.5856 50.4968 29.5856 52.1571 29.5856 53.8677C36.0775 53.8677 42.3172 50.6435 46.8463 46.15C47.4806 45.5099 48.0731 44.8531 48.6168 44.1334C48.6689 44.0654 48.721 43.9974 48.7747 43.9274C51.4267 40.4482 53.1592 36.4229 53.8668 32.1021C53.887 31.9815 53.9071 31.8608 53.9278 31.7365C54.1011 30.5899 54.1293 29.4591 54.1266 28.3013C54.1265 28.2032 54.1265 28.105 54.1264 28.0039C54.1155 24.0488 53.2582 20.0631 51.3512 16.5709C51.1428 16.5709 50.9524 16.7085 50.7702 16.7994ZM12.0856 20.0709C12.0856 25.8459 12.0856 31.6209 12.0856 37.5709C13.6015 38.4371 13.6015 38.4371 15.1481 39.3209C15.9789 39.7996 16.8097 40.2784 17.6399 40.7582C18.231 41.0997 18.8224 41.4407 19.4137 41.7818C19.6507 41.9185 19.8877 42.0552 20.1247 42.192C20.3006 42.2935 20.3006 42.2935 20.4801 42.397C21.5465 43.0123 21.5465 43.0123 21.9025 43.2177C22.1377 43.3533 22.3729 43.489 22.6081 43.6246C23.1619 43.944 23.7155 44.2635 24.2686 44.584C24.529 44.7348 24.7894 44.8855 25.0499 45.0362C25.233 45.1422 25.416 45.2484 25.599 45.3546C25.7662 45.4514 25.7662 45.4514 25.9369 45.5501C26.0345 45.6067 26.1321 45.6633 26.2327 45.7215C26.5431 45.8945 26.8615 46.0526 27.1793 46.2115C27.1793 41.8802 27.1793 37.549 27.1793 33.0865C26.674 32.906 26.1687 32.7256 25.6481 32.5396C25.2472 32.2926 24.911 32.0695 24.5543 31.774C24.4782 31.7139 24.4021 31.6539 24.3236 31.592C23.4255 30.8018 22.6675 29.3699 22.5856 28.1646C22.5539 27.2798 22.5727 26.4172 22.695 25.5396C20.9719 24.5753 19.2194 23.6725 17.4599 22.7768C15.8162 21.9396 14.1781 21.0925 12.5637 20.1999C12.32 20.0546 12.32 20.0546 12.0856 20.0709ZM44.064 20.2609C43.9823 20.3027 43.9005 20.3445 43.8163 20.3875C43.6829 20.4567 43.6829 20.4567 43.5467 20.5272C43.4543 20.5746 43.3619 20.622 43.2667 20.6709C42.9649 20.8259 42.6634 20.9816 42.362 21.1373C42.1544 21.2441 41.9469 21.3508 41.7394 21.4575C40.515 22.0876 39.2925 22.7212 38.0728 23.3602C37.2937 23.7682 36.5123 24.1718 35.7311 24.5758C35.6602 24.6124 35.5893 24.6491 35.5163 24.6868C34.3344 25.298 34.3344 25.298 34.07 25.4302C34.097 25.6197 34.097 25.6197 34.1247 25.8131C34.3244 27.6784 34.1509 29.303 33.0856 30.899C32.0957 32.1031 31.0738 32.5904 29.5856 33.0865C29.5856 37.4177 29.5856 41.749 29.5856 46.2115C30.4363 45.7908 30.4363 45.7908 31.2604 45.3339C31.3606 45.2751 31.4608 45.2162 31.5641 45.1556C31.6692 45.0935 31.7742 45.0313 31.8825 44.9674C32.1151 44.8307 32.3478 44.6941 32.5806 44.5576C32.6999 44.4876 32.8192 44.4175 32.9421 44.3453C33.5308 44.0009 34.1216 43.6603 34.7125 43.3199C34.8306 43.2519 34.9486 43.1839 35.0701 43.1138C35.3098 42.9757 35.5494 42.8376 35.7891 42.6996C36.3829 42.3575 36.9764 42.0149 37.57 41.6724C37.8069 41.5357 38.0439 41.399 38.2809 41.2623C38.4569 41.1608 38.4569 41.1608 38.6364 41.0572C40.6507 39.8951 42.665 38.733 44.6793 37.5709C44.6793 31.7959 44.6793 26.0209 44.6793 20.0709C44.4174 20.0709 44.2964 20.1413 44.064 20.2609ZM25.5045 25.0679C24.9082 25.9416 24.6312 26.893 24.7731 27.9459C24.9762 28.905 25.4556 29.6056 26.195 30.2427C27.2187 30.8863 28.2559 31.0837 29.4536 30.8358C30.4185 30.4983 31.2047 29.8022 31.6706 28.8961C32.0795 27.9923 32.1331 27.0761 31.8209 26.1275C31.3862 25.0657 30.7356 24.3824 29.695 23.899C28.1881 23.3287 26.5163 23.8305 25.5045 25.0679Z" fill="#0499FC"/>
</svg>
