<svg width="56" height="57" viewBox="0 0 56 57" fill="none" xmlns="http://www.w3.org/2000/svg">
<path d="M18.3575 0.08103C18.4432 0.080441 18.529 0.0798519 18.6174 0.079245C18.9044 0.0776817 19.1913 0.0784605 19.4783 0.0792392C19.6842 0.0786155 19.8901 0.0778538 20.096 0.0769645C20.6551 0.0750006 21.2142 0.0751315 21.7732 0.0757551C22.24 0.0760929 22.7067 0.0754273 23.1734 0.0747665C24.2743 0.0732296 25.3753 0.0734016 26.4763 0.0746463C27.6122 0.0759022 28.7481 0.0743625 29.884 0.0714311C30.8592 0.0690085 31.8345 0.0682815 32.8097 0.0689238C33.3922 0.0692927 33.9746 0.069026 34.5571 0.0671464C35.1048 0.065456 35.6525 0.0658853 36.2002 0.0679454C36.4012 0.068349 36.6022 0.0680072 36.8031 0.0668641C37.0776 0.0654221 37.352 0.0666797 37.6264 0.0686132C37.7058 0.0675626 37.7853 0.0665121 37.8671 0.0654297C38.4185 0.0734147 38.729 0.217189 39.1551 0.560933C39.4966 0.984754 39.6074 1.44354 39.5926 1.98281C39.3867 2.73734 39.0612 3.1233 38.4784 3.63027C38.4043 3.69698 38.3302 3.7637 38.2538 3.83244C38.0452 4.01959 37.8349 4.20464 37.6239 4.38906C37.4932 4.50495 37.4932 4.50495 37.3599 4.62319C37.2253 4.74167 37.0902 4.85949 36.9544 4.97652C36.4183 5.4413 35.8956 5.92165 35.3693 6.39754C34.8508 6.86572 34.3287 7.32789 33.7958 7.77968C33.9361 8.14558 34.0959 8.48738 34.2811 8.83242C35.1234 10.4995 35.191 12.3601 34.6823 14.1371C34.3301 15.1528 33.7581 15.9894 33.1395 16.8578C33.233 16.885 33.3265 16.9122 33.4228 16.9403C33.8211 17.0858 34.1606 17.2768 34.5135 17.5072C34.5796 17.5502 34.6456 17.5933 34.7136 17.6376C35.8959 18.4258 36.885 19.3212 37.7333 20.4672C37.8029 20.5609 37.8726 20.6547 37.9443 20.7513C39.0458 22.2806 39.0458 22.2806 39.0458 22.7641C39.1199 22.7072 39.1941 22.6504 39.2705 22.5919C41.0815 21.2349 42.9646 20.6632 45.2148 20.9525C46.3602 21.1747 47.3547 21.722 48.3426 22.3266C49.3557 21.2452 49.3557 21.2452 50.34 20.1378C50.5818 19.8612 50.8294 19.5901 51.077 19.3187C51.3946 18.9704 51.7105 18.6212 52.0204 18.266C52.1107 18.1634 52.1107 18.1634 52.2028 18.0588C52.338 17.9019 52.4701 17.7423 52.6002 17.5811C53.0485 17.0405 53.4234 16.637 54.1395 16.5297C54.7533 16.5054 55.2004 16.6827 55.6708 17.0766C55.9565 17.4749 56.0406 17.7514 56.0448 18.2391C56.0466 18.3599 56.0483 18.4807 56.0501 18.6052C56.0501 18.7347 56.0501 18.8641 56.0502 18.9975C56.051 19.1313 56.0518 19.2652 56.0527 19.4032C56.0539 19.6859 56.0542 19.9687 56.0537 20.2515C56.0536 20.6844 56.0581 21.117 56.063 21.5498C56.0636 21.8247 56.0638 22.0995 56.0638 22.3744C56.0656 22.5038 56.0674 22.6333 56.0693 22.7666C56.0617 23.6625 56.0617 23.6625 55.7411 24.1009C55.3992 24.3308 55.2086 24.4047 54.7958 24.4047C54.3358 24.2799 54.1018 24.1925 53.8481 23.7822C53.5875 23.1189 53.6386 22.3794 53.6268 21.6771C53.6232 21.5278 53.6194 21.3785 53.6155 21.2292C53.6065 20.8658 53.5989 20.5025 53.5926 20.1391C53.0117 20.7109 53.0117 20.7109 52.4647 21.3148C52.1536 21.6756 51.8358 22.0294 51.5145 22.3812C51.0207 22.9233 51.0207 22.9233 50.5301 23.4682C50.4715 23.5334 50.4128 23.5987 50.3524 23.666C50.1224 23.956 50.1224 23.956 49.9833 24.2953C50.0944 24.6276 50.0944 24.6276 50.2841 24.9721C51.0362 26.4254 51.1348 28.3326 50.6737 29.9008C50.4851 30.419 50.2455 30.9047 49.9675 31.3808C49.8457 31.6966 49.8717 31.8526 49.9833 32.1703C50.1562 32.3919 50.1562 32.3919 50.3798 32.5873C50.7498 32.939 51.0897 33.3013 51.4227 33.6879C51.7182 34.0292 52.0213 34.3636 52.3237 34.6987C52.7472 35.168 53.1699 35.6379 53.5926 36.1078C53.595 35.9697 53.595 35.9697 53.5975 35.8288C53.6042 35.4841 53.6123 35.1394 53.6214 34.7947C53.625 34.6461 53.628 34.4975 53.6305 34.3489C53.6577 32.775 53.6577 32.775 54.0301 32.1703C54.4654 31.8941 54.6879 31.8257 55.1991 31.9037C55.573 32.066 55.745 32.1849 55.9989 32.4984C56.0545 32.7792 56.0545 32.7792 56.0555 33.0999C56.0569 33.2204 56.0583 33.3409 56.0597 33.465C56.0584 33.6595 56.0584 33.6595 56.057 33.8579C56.0574 33.9917 56.0578 34.1255 56.0583 34.2633C56.0586 34.5463 56.0578 34.8293 56.0559 35.1123C56.0536 35.5449 56.0559 35.9773 56.0587 36.4099C56.0584 36.6849 56.0579 36.9599 56.057 37.2349C56.0583 37.4287 56.0583 37.4287 56.0597 37.6264C56.0518 38.3174 56.0346 38.7588 55.5614 39.2797C55.1376 39.6211 54.6788 39.732 54.1395 39.7172C53.385 39.5112 52.999 39.1857 52.4921 38.6029C52.392 38.4917 52.392 38.4918 52.2899 38.3783C52.1027 38.1697 51.9177 37.9594 51.7333 37.7484C51.6174 37.6177 51.6174 37.6177 51.4991 37.4844C51.3807 37.3499 51.2628 37.2147 51.1458 37.0789C50.7651 36.6398 50.3727 36.211 49.9833 35.7797C49.3608 35.0893 48.7405 34.3971 48.1239 33.7016C47.7062 33.8225 47.3375 33.9843 46.955 34.1869C45.498 34.9122 43.7158 35.059 42.1219 34.6859C41.0519 34.3217 40.0002 33.7973 39.1551 33.0453C39.0596 33.22 39.0596 33.22 38.962 33.3982C38.3325 34.5231 37.6405 35.5047 36.7489 36.4359C36.6979 36.4897 36.647 36.5435 36.5944 36.599C35.7304 37.4944 34.7366 38.1102 33.6648 38.726C33.4859 38.8314 33.3123 38.9457 33.1395 39.0609C33.2298 39.1512 33.32 39.2414 33.413 39.3344C34.4875 40.6004 35.1 42.3581 35.0288 44.0157C34.8832 45.4534 34.4935 46.5488 33.7958 47.8109C33.7223 47.9565 33.6492 48.1022 33.577 48.2484C33.8502 48.5062 34.1238 48.7636 34.3973 49.0209C34.4735 49.0927 34.5496 49.1646 34.628 49.2386C35.0785 49.6619 35.5355 50.0753 36.0023 50.4806C36.2732 50.7167 36.5385 50.9588 36.8036 51.2016C37.1519 51.5191 37.5012 51.835 37.8563 52.1449C37.9589 52.2352 37.9589 52.2352 38.0635 52.3274C38.2204 52.4626 38.38 52.5946 38.5412 52.7247C39.0818 53.173 39.4854 53.5479 39.5926 54.2641C39.617 54.8779 39.4396 55.3249 39.0458 55.7953C38.5922 56.1421 38.1926 56.1704 37.6403 56.1658C37.5546 56.1664 37.4688 56.167 37.3804 56.1676C37.0934 56.1692 36.8065 56.1684 36.5195 56.1676C36.3136 56.1683 36.1077 56.169 35.9018 56.1699C35.3427 56.1719 34.7836 56.1717 34.2245 56.1711C33.7578 56.1708 33.2911 56.1714 32.8244 56.1721C31.7235 56.1736 30.6225 56.1735 29.5215 56.1722C28.3856 56.171 27.2497 56.1725 26.1138 56.1754C25.1386 56.1779 24.1633 56.1786 23.1881 56.1779C22.6056 56.1776 22.0232 56.1778 21.4407 56.1797C20.893 56.1814 20.3453 56.181 19.7976 56.1789C19.5966 56.1785 19.3956 56.1789 19.1947 56.18C18.9202 56.1814 18.6458 56.1802 18.3714 56.1783C18.292 56.1793 18.2125 56.1804 18.1307 56.1814C17.5793 56.1735 17.2688 56.0297 16.8426 55.6859C16.5012 55.2621 16.3904 54.8033 16.4051 54.2641C16.6111 53.5095 16.9366 53.1236 17.5194 52.6166C17.5935 52.5499 17.6676 52.4832 17.744 52.4144C17.9526 52.2273 18.1629 52.0422 18.3739 51.8578C18.461 51.7805 18.5482 51.7033 18.6379 51.6237C18.7725 51.5052 18.9076 51.3874 19.0434 51.2703C19.4825 50.8897 19.9113 50.4972 20.3426 50.1078C21.033 49.4853 21.7252 48.8651 22.4208 48.2484C22.2882 47.9764 22.1473 47.7119 22.0008 47.4469C21.0255 45.6467 20.7211 43.8088 21.2563 41.7995C21.3836 41.3984 21.5575 41.0234 21.744 40.6469C21.7789 40.5762 21.8138 40.5056 21.8498 40.4328C22.1215 39.9151 22.4634 39.4905 22.8583 39.0609C22.8061 39.0308 22.7539 39.0006 22.7001 38.9696C20.076 37.442 18.3382 35.6852 16.8426 33.0453C16.7723 33.1009 16.7019 33.1564 16.6295 33.2136C14.8269 34.5868 13.0566 34.9969 10.827 34.7953C9.91557 34.638 9.0535 34.3049 8.28918 33.7806C8.09037 33.6744 8.09037 33.6744 7.88204 33.7856C7.65469 33.9206 7.50578 34.0513 7.32831 34.2459C7.26949 34.3098 7.21067 34.3737 7.15006 34.4395C7.0889 34.5073 7.02774 34.5751 6.96472 34.6449C6.86927 34.7492 6.86927 34.7492 6.7719 34.8557C6.39509 35.2688 6.02307 35.6858 5.65777 36.1091C5.41596 36.3857 5.1684 36.6567 4.92077 36.9281C4.60318 37.2764 4.2873 37.6257 3.97742 37.9809C3.91721 38.0492 3.85701 38.1176 3.79498 38.1881C3.65977 38.3449 3.52769 38.5045 3.39764 38.6657C2.95567 39.1987 2.57474 39.6376 1.85827 39.7172C1.28499 39.6935 0.885068 39.5964 0.436399 39.2318C0.0404044 38.7245 -0.032996 38.4183 -0.0303504 37.7911C-0.030846 37.7056 -0.0313419 37.62 -0.0318525 37.5318C-0.0332408 37.2442 -0.0330576 36.9565 -0.0328772 36.6689C-0.0335315 36.463 -0.0342758 36.2571 -0.0351036 36.0512C-0.0370394 35.4912 -0.0375493 34.9313 -0.0376887 34.3713C-0.0378962 33.904 -0.0387005 33.4368 -0.0394762 32.9696C-0.0412586 31.8672 -0.0417911 30.7649 -0.0416358 29.6626C-0.0415043 28.525 -0.0438115 27.3875 -0.0472667 26.25C-0.0501263 25.2738 -0.0513002 24.2977 -0.0511603 23.3215C-0.0511045 22.7383 -0.051731 22.1551 -0.0540442 21.5719C-0.0561608 21.0233 -0.0561793 20.4747 -0.0545866 19.9261C-0.0543577 19.7248 -0.0548761 19.5234 -0.0561972 19.3221C-0.0578845 19.0472 -0.0568711 18.7723 -0.0551841 18.4974C-0.0563093 18.4178 -0.0574345 18.3382 -0.0585938 18.2562C-0.051116 17.7043 0.0921615 17.3937 0.436399 16.9672C0.860221 16.6258 1.31901 16.5149 1.85827 16.5297C2.6128 16.7357 2.99876 17.0612 3.50574 17.6439C3.60581 17.7551 3.60581 17.7551 3.7079 17.8685C3.89506 18.0771 4.0801 18.2874 4.26452 18.4984C4.34179 18.5856 4.41905 18.6727 4.49866 18.7625C4.61714 18.897 4.73496 19.0321 4.85199 19.1679C5.31677 19.704 5.79711 20.2268 6.27301 20.753C6.74118 21.2715 7.20336 21.7937 7.65515 22.3266C7.75046 22.2685 7.84577 22.2104 7.94397 22.1505C9.77389 21.057 11.6958 20.5631 13.8075 21.0824C15.013 21.4037 16.0067 21.9572 16.952 22.7641C16.979 22.671 17.0059 22.5779 17.0336 22.4821C17.1824 22.076 17.3801 21.7295 17.6151 21.3695C17.6582 21.303 17.7013 21.2364 17.7457 21.1679C18.154 20.5527 18.6243 20.0113 19.1395 19.4828C19.2275 19.3903 19.3155 19.2978 19.4061 19.2025C19.4986 19.1146 19.5911 19.0266 19.6864 18.9359C19.7584 18.8644 19.8305 18.793 19.9047 18.7193C20.4444 18.2044 21.0041 17.7872 21.6415 17.4047C21.7117 17.3625 21.782 17.3203 21.8544 17.2768C22.1816 17.0864 22.4815 16.9184 22.8583 16.8578C22.7737 16.7326 22.7737 16.7326 22.6874 16.6049C22.6476 16.5443 22.6079 16.4836 22.5669 16.4212C22.4607 16.2616 22.3515 16.104 22.2405 15.9478C21.5398 14.9227 21.0625 13.7335 20.9989 12.4828C20.9934 12.4044 20.9879 12.326 20.9822 12.2453C20.9218 10.7664 21.3199 9.19555 22.202 7.99843C22.0301 7.55609 21.7151 7.28687 21.368 6.97988C21.3088 6.92652 21.2495 6.87317 21.1884 6.81819C20.8025 6.47175 20.4128 6.1297 20.0209 5.79C19.7422 5.54514 19.4683 5.29533 19.1942 5.04531C18.8459 4.72772 18.4966 4.41184 18.1415 4.10195C18.0731 4.04174 18.0047 3.98154 17.9343 3.91951C17.7774 3.7843 17.6178 3.65223 17.4566 3.52218C16.916 3.07385 16.5124 2.69894 16.4051 1.98281C16.3808 1.36901 16.5582 0.921954 16.952 0.451558C17.4056 0.104789 17.8052 0.0764727 18.3575 0.08103ZM19.9051 2.42031C20.3361 2.9231 20.7205 3.35144 21.204 3.7875C21.2898 3.86519 21.2898 3.86519 21.3774 3.94445C21.7575 4.2876 22.1409 4.62688 22.5289 4.96114C22.6996 5.11136 22.8674 5.26502 23.0339 5.42C23.1316 5.51066 23.2293 5.60132 23.33 5.69472C23.4198 5.77918 23.5096 5.86363 23.6021 5.95064C23.8348 6.17278 23.8348 6.17278 24.1708 6.13906C24.3764 6.04234 24.5789 5.93877 24.7792 5.83144C26.5251 4.93741 28.3051 4.83804 30.1864 5.37343C30.8435 5.60817 31.453 5.87967 32.0458 6.24843C32.0988 6.19415 32.1518 6.13987 32.2064 6.08394C32.6443 5.64014 33.091 5.21588 33.5634 4.80904C33.915 4.50455 34.2595 4.19213 34.6045 3.88021C34.8018 3.7025 34.9998 3.52568 35.1984 3.34957C35.3467 3.21781 35.3467 3.21781 35.4979 3.08339C35.5883 3.00345 35.6787 2.92351 35.7718 2.84115C35.9909 2.6545 35.9909 2.6545 36.0926 2.42031C30.7508 2.42031 25.4089 2.42031 19.9051 2.42031ZM25.1551 8.21718C25.0581 8.28035 24.9611 8.34351 24.8612 8.40859C23.8477 9.39471 23.3519 10.6154 23.2855 12.0163C23.3142 13.0146 23.6254 14.009 24.2801 14.7797C24.3884 14.7797 24.4967 14.7797 24.6083 14.7797C24.7865 14.6044 24.7865 14.6044 24.9569 14.3764C25.7273 13.4679 26.6252 13.1553 27.7938 12.9985C28.8669 12.9471 29.9249 13.3183 30.7333 14.0141C31.0052 14.2935 31.2574 14.5831 31.4989 14.8891C32.281 14.2156 32.6054 13.2778 32.702 12.2641C32.7195 10.8194 32.2476 9.61781 31.2801 8.54531C30.3098 7.6907 29.1172 7.1849 27.816 7.20974C26.8028 7.30154 25.9856 7.64356 25.1551 8.21718ZM26.7065 15.726C26.2383 16.2596 26.105 16.6669 26.1165 17.3743C26.1667 17.9171 26.3968 18.2119 26.7821 18.5805C27.3551 18.993 27.7192 19.094 28.4133 18.9949C29.0205 18.8469 29.4032 18.451 29.7489 17.9516C29.9373 17.3864 29.93 16.8462 29.7352 16.2836C29.344 15.7098 28.8929 15.3787 28.2176 15.2172C27.6324 15.2172 27.1493 15.3232 26.7065 15.726ZM21.4364 20.4672C21.3373 20.556 21.2382 20.6448 21.136 20.7363C20.1859 21.6351 19.47 22.6683 18.9208 23.8578C18.9208 23.93 18.9208 24.0022 18.9208 24.0766C19.083 24.1791 19.2505 24.2733 19.4198 24.3637C20.4082 24.9411 20.9368 25.7119 21.2813 26.7917C21.5191 28.0298 21.2857 29.125 20.705 30.2221C20.1996 30.8367 19.6119 31.3391 18.9208 31.7328C19.8209 34.033 21.5312 35.611 23.6453 36.7884C23.8571 36.8951 23.8571 36.8951 24.1708 36.8734C24.3262 36.6546 24.3262 36.6546 24.4647 36.3744C25.0078 35.4264 25.7872 34.8267 26.8253 34.4979C27.9339 34.2257 29.0895 34.317 30.077 34.9047C30.8713 35.3986 31.4253 36.0286 31.827 36.8734C33.4602 36.6308 34.9679 35.0571 35.9581 33.8182C36.6712 32.8497 36.6712 32.8497 37.077 31.7328C37.0123 31.6984 36.9476 31.664 36.8809 31.6286C35.8393 31.0644 35.1445 30.444 34.6844 29.3266C34.3612 28.2148 34.4251 26.9354 34.9327 25.8975C35.4785 24.997 36.1499 24.4516 37.077 23.9672C36.6286 22.9947 36.1634 22.1411 35.4364 21.3422C35.3476 21.2432 35.2587 21.1442 35.1672 21.0423C34.2843 20.1076 33.2337 19.3359 32.0458 18.8266C31.6673 18.9527 31.6612 18.9925 31.4852 19.3256C30.925 20.2571 30.1276 20.8202 29.0926 21.1234C27.9276 21.3938 26.7523 21.2481 25.7294 20.6107C25.0583 20.1273 24.5899 19.5325 24.1708 18.8266C23.258 18.8266 22.073 19.8962 21.4364 20.4672ZM2.29577 20.0297C2.29577 25.3716 2.29577 30.7134 2.29577 36.2172C2.79856 35.7862 3.2269 35.4019 3.66296 34.9184C3.71476 34.8611 3.76656 34.8039 3.81992 34.7449C4.16319 34.3647 4.50214 33.9807 4.83746 33.5935C5.15478 33.2311 5.48018 32.8761 5.80475 32.5202C6.02822 32.2744 6.02822 32.2744 6.23327 31.9516C6.19522 31.5487 6.05785 31.2499 5.86413 30.8988C5.07455 29.3288 4.96332 27.3589 5.46679 25.6676C5.62414 25.27 5.81862 24.8984 6.03717 24.5311C6.15235 24.2989 6.15235 24.2989 6.04053 24.085C5.90373 23.8554 5.76004 23.6799 5.57574 23.487C5.51128 23.4188 5.44682 23.3507 5.38041 23.2805C5.27809 23.1738 5.27809 23.1738 5.1737 23.0648C5.03347 22.9167 4.89333 22.7684 4.75329 22.6201C4.65347 22.5145 4.65347 22.5145 4.55163 22.4068C4.29502 22.133 4.04943 21.8506 3.80438 21.5665C3.52871 21.2512 3.24765 20.9409 2.9657 20.6312C2.91216 20.572 2.85863 20.5128 2.80348 20.4517C2.673 20.3089 2.53936 20.169 2.40515 20.0297C2.36906 20.0297 2.33296 20.0297 2.29577 20.0297ZM8.63952 24.6234C7.63842 25.8331 7.29835 27.0181 7.41151 28.5639C7.55463 29.8047 8.31032 30.8564 9.24023 31.6461C10.3659 32.4509 11.5584 32.6194 12.9051 32.4984C13.7099 32.3319 14.3494 32.0327 14.9833 31.5141C14.9088 31.4441 14.8344 31.3742 14.7577 31.3021C13.7501 30.2802 13.1981 29.294 13.1786 27.8432C13.1862 27.0977 13.3006 26.4846 13.6708 25.8266C13.7339 25.7115 13.7971 25.5965 13.8622 25.4779C14.1919 25.0658 14.5762 24.7386 14.9833 24.4047C14.9061 24.0574 14.9061 24.0574 14.6069 23.9086C12.5947 22.924 10.2985 22.863 8.63952 24.6234ZM40.9051 24.2953C40.9818 24.3698 41.0585 24.4442 41.1376 24.5209C41.2429 24.6275 41.3477 24.7346 41.452 24.8422C41.5071 24.899 41.5623 24.9558 41.6191 25.0144C42.5119 25.9889 42.7084 27.045 42.6859 28.3281C42.6431 29.261 42.2943 29.9636 41.6708 30.6391C41.6708 30.7112 41.6708 30.7834 41.6708 30.8578C41.5726 30.9018 41.5726 30.9018 41.4725 30.9467C41.2351 31.0756 41.0902 31.2112 40.9051 31.4047C41.9324 32.3111 43.0714 32.6 44.4231 32.5403C45.7611 32.4068 46.8501 31.7062 47.709 30.6946C48.5322 29.5432 48.6993 28.2984 48.5614 26.9203C48.292 25.7419 47.6506 24.7366 46.661 24.0355C44.7624 22.876 42.6891 22.9124 40.9051 24.2953ZM15.9894 26.4491C15.4889 27.0213 15.3815 27.3793 15.3904 28.1422C15.4369 28.6165 15.5653 28.8394 15.8583 29.2172C16.3886 29.6285 16.808 29.8056 17.4857 29.7944C18.0416 29.7217 18.438 29.405 18.7977 28.9916C19.1752 28.4698 19.2288 27.9846 19.1395 27.3578C18.8935 26.7534 18.5266 26.3346 17.9364 26.0453C17.2002 25.8672 16.5632 25.9101 15.9894 26.4491ZM37.5145 26.2641C37.0928 26.6545 36.7847 27.017 36.7228 27.606C36.7043 28.2428 36.7477 28.6114 37.1864 29.1078C37.6292 29.5333 37.9603 29.7503 38.5878 29.7914C39.1241 29.7806 39.4962 29.6398 39.8845 29.2552C40.3572 28.7241 40.5077 28.3269 40.4984 27.6146C40.4345 27.081 40.1578 26.7311 39.7977 26.3393C39.061 25.9068 38.2533 25.7815 37.5145 26.2641ZM26.7065 37.0542C26.216 37.6132 26.0995 38.0469 26.1092 38.7875C26.171 39.3447 26.5095 39.6715 26.912 40.0248C27.4019 40.3896 27.84 40.4336 28.4364 40.3734C29.0313 40.1712 29.396 39.7854 29.7489 39.2797C29.9163 38.7776 29.9612 38.2542 29.7797 37.748C29.4807 37.1899 29.1194 36.8642 28.5389 36.6273C27.8643 36.4551 27.225 36.5824 26.7065 37.0542ZM24.3895 40.8109C23.5549 41.9535 23.1541 43.1053 23.3398 44.5421C23.6203 45.8217 24.228 46.8995 25.2991 47.6635C26.4869 48.4238 27.7179 48.6811 29.1157 48.3954C30.3683 48.0219 31.4492 47.252 32.097 46.1045C32.7313 44.7954 32.8709 43.5375 32.4012 42.1439C32.2013 41.6367 31.9481 41.2357 31.6083 40.8109C31.385 40.9877 31.1663 41.1703 30.952 41.3578C30.952 41.43 30.952 41.5022 30.952 41.5766C30.8638 41.6203 30.8638 41.6203 30.7739 41.665C30.5832 41.7608 30.3933 41.8582 30.2039 41.9564C30.0921 42.0138 29.9803 42.0711 29.8651 42.1303C29.7536 42.1879 29.6421 42.2456 29.5272 42.305C28.5919 42.7265 27.4705 42.6704 26.5108 42.3494C26.1293 42.1795 25.7987 41.9551 25.4628 41.7086C25.2739 41.5563 25.2739 41.5563 25.0458 41.5766C25.0187 41.5111 24.9916 41.4457 24.9637 41.3783C24.8086 41.1068 24.6419 40.9899 24.3895 40.8109ZM23.788 50.2103C23.6412 50.3451 23.6412 50.3451 23.4915 50.4825C23.3908 50.5754 23.2901 50.6683 23.1864 50.7641C22.9998 50.933 22.813 51.1016 22.6259 51.2699C22.5351 51.3517 22.4443 51.4335 22.3507 51.5177C22.125 51.7196 21.8975 51.9191 21.6688 52.1176C21.2772 52.4593 20.8911 52.8069 20.5067 53.1566C20.4475 53.2101 20.3883 53.2636 20.3273 53.3187C20.1845 53.4492 20.0445 53.5829 19.9051 53.7172C19.9051 53.7533 19.9051 53.7894 19.9051 53.8266C25.247 53.8266 30.5889 53.8266 36.0926 53.8266C35.6617 53.3238 35.2773 52.8954 34.7938 52.4594C34.708 52.3817 34.708 52.3817 34.6204 52.3024C34.24 51.959 33.8559 51.62 33.4685 51.2844C33.1101 50.9706 32.7586 50.6491 32.4064 50.3283C32.3235 50.2555 32.2406 50.1828 32.1551 50.1078C32.0858 50.0396 32.0164 49.9713 31.9449 49.901C31.7126 49.745 31.7126 49.745 31.4066 49.851C31.2927 49.8997 31.1788 49.9483 31.0614 49.9984C30.9452 50.0437 30.829 50.0889 30.7093 50.1356C30.47 50.231 30.2307 50.3267 29.9916 50.4227C28.3965 50.9783 26.5344 50.7167 25.0321 50.0326C24.9348 49.9848 24.8375 49.937 24.7373 49.8878C24.2673 49.6747 24.1428 49.8819 23.788 50.2103Z" fill="#0499FC"/>
</svg>
