<svg width="57" height="57" viewBox="0 0 57 57" fill="none" xmlns="http://www.w3.org/2000/svg">
<g clip-path="url(#clip0_2004_716)">
<path d="M2.13091 4.70211C2.22647 4.70156 2.32204 4.701 2.4205 4.70043C2.52556 4.70038 2.63063 4.70032 2.73888 4.70026C2.85043 4.69979 2.96199 4.69931 3.07692 4.69881C3.4525 4.69735 3.82808 4.69667 4.20367 4.696C4.47222 4.69514 4.74078 4.69423 5.00933 4.69329C5.81639 4.69067 6.62346 4.68901 7.43053 4.6876C7.65843 4.68719 7.88633 4.68676 8.11423 4.68631C9.52921 4.68355 10.9442 4.68114 12.3592 4.67978C12.6869 4.67946 13.0146 4.67914 13.3422 4.67881C13.4237 4.67872 13.5051 4.67864 13.5891 4.67856C14.9092 4.67717 16.2292 4.67354 17.5493 4.66898C18.9043 4.66435 20.2593 4.66177 21.6143 4.66119C22.3752 4.66082 23.1361 4.65953 23.897 4.65593C24.6125 4.65255 25.328 4.65195 26.0435 4.65324C26.3064 4.65326 26.5694 4.65235 26.8323 4.65043C27.1906 4.64797 27.5488 4.64885 27.9071 4.6506C28.064 4.64832 28.064 4.64832 28.224 4.646C28.7221 4.65199 28.9395 4.66444 29.3468 4.97418C29.5556 5.26397 29.5556 5.26397 29.624 5.5921C29.5291 6.04752 29.3786 6.18533 29.0088 6.4671C28.645 6.54656 28.2885 6.53857 27.9174 6.53286C27.8066 6.53333 27.6958 6.5338 27.5817 6.53428C27.21 6.53518 26.8384 6.53217 26.4667 6.52918C26.2005 6.52903 25.9343 6.52911 25.668 6.52942C25.0946 6.52955 24.5212 6.528 23.9478 6.52492C23.1187 6.52047 22.2897 6.51905 21.4606 6.51836C20.1154 6.51717 18.7703 6.51353 17.4252 6.50835C16.1186 6.50333 14.812 6.49946 13.5054 6.49714C13.4249 6.49699 13.3443 6.49685 13.2613 6.4967C12.8572 6.49599 12.4531 6.4953 12.049 6.49462C8.69704 6.48895 5.3451 6.47887 1.99315 6.4671C1.99315 9.10194 1.99315 11.7368 1.99315 14.4515C12.3521 14.4515 22.711 14.4515 33.3838 14.4515C33.4199 14.1266 33.456 13.8018 33.4931 13.4671C33.8122 12.8408 34.2489 12.486 34.915 12.264C35.2217 12.2547 35.5257 12.2513 35.8323 12.2533C35.9115 12.2534 35.9908 12.2535 36.0724 12.2536C36.3679 12.2542 36.6634 12.2557 36.959 12.2571C37.9504 12.2605 37.9504 12.2605 38.9619 12.264C38.9258 10.3871 38.8897 8.51022 38.8525 6.57647C38.1396 6.57415 38.1396 6.57415 37.4123 6.57177C37.0327 6.56901 36.6531 6.5657 36.2735 6.56203C35.8731 6.5583 35.4728 6.55553 35.0724 6.55508C34.6866 6.55461 34.3009 6.5515 33.9151 6.54657C33.6967 6.54446 33.4782 6.54508 33.2598 6.54573C32.155 6.52796 32.155 6.52796 31.8169 6.20933C31.5888 5.84925 31.5467 5.68216 31.6338 5.26397C31.9102 4.9212 32.0747 4.73884 32.5119 4.64913C32.6966 4.64946 32.6966 4.64946 32.8849 4.64981C33.0952 4.64828 33.0952 4.64828 33.3097 4.64672C33.4619 4.64843 33.614 4.65024 33.7662 4.65216C33.9232 4.65234 34.0802 4.65234 34.2373 4.65214C34.566 4.65232 34.8946 4.65436 35.2233 4.65782C35.6434 4.66215 36.0635 4.66263 36.4836 4.66181C36.8078 4.66148 37.132 4.66281 37.4562 4.66467C37.611 4.66544 37.7659 4.66578 37.9207 4.66569C38.1377 4.66589 38.3546 4.66848 38.5716 4.67117C38.6948 4.67209 38.818 4.67301 38.9449 4.67396C39.5199 4.74582 39.9446 4.98065 40.3086 5.42803C40.3623 5.49233 40.416 5.55662 40.4714 5.62286C40.7251 5.98647 40.7253 6.30979 40.7243 6.73848C40.7243 6.86108 40.7243 6.98368 40.7243 7.11C40.7237 7.24228 40.7232 7.37457 40.7226 7.51086C40.7223 7.71409 40.7224 7.71409 40.7221 7.92142C40.7216 8.28123 40.7206 8.64102 40.7194 9.00082C40.7183 9.36813 40.7178 9.73544 40.7172 10.1027C40.716 10.8232 40.7142 11.5436 40.7119 12.264C40.7798 12.2631 40.8478 12.2623 40.9178 12.2614C41.0512 12.2604 41.0512 12.2604 41.1873 12.2594C41.3197 12.2582 41.3197 12.2582 41.4547 12.2569C41.9683 12.272 42.3767 12.5166 42.7435 12.8651C43.1526 13.3353 43.2414 13.6846 43.2382 14.2921C43.2379 14.4095 43.2375 14.5269 43.2371 14.6478C43.2362 14.7702 43.2353 14.8927 43.2344 15.0189C43.2339 15.1426 43.2334 15.2663 43.2329 15.3938C43.2316 15.6995 43.2298 16.0052 43.2275 16.3108C43.3326 16.321 43.4376 16.3312 43.5458 16.3416C44.069 16.4172 44.5377 16.6048 45.0254 16.803C45.1213 16.8419 45.2172 16.8808 45.316 16.9208C49.6667 18.7295 53.0352 22.1948 54.9306 26.4827C55.6981 28.3997 56.246 30.4105 56.2692 32.4855C56.2703 32.5652 56.2713 32.6449 56.2724 32.727C56.2914 34.515 56.2632 36.2259 55.8056 37.9671C55.7863 38.0435 55.767 38.1198 55.7471 38.1985C54.5784 42.6948 51.5409 46.7119 47.5408 49.0699C43.1549 51.5437 38.1622 52.2066 33.2777 50.8933C29.7251 49.8674 26.7066 47.7471 24.3056 44.9671C24.2696 44.8949 24.2335 44.8227 24.1963 44.7483C24.111 44.7483 24.0257 44.7482 23.9379 44.7482C21.8639 44.7465 19.79 44.7419 17.716 44.7339C16.7131 44.7301 15.7102 44.7273 14.7072 44.727C13.8332 44.7266 12.9592 44.7244 12.0851 44.7199C11.6222 44.7175 11.1593 44.7161 10.6964 44.717C10.2608 44.7179 9.82528 44.7162 9.38968 44.7125C9.22972 44.7116 9.06975 44.7116 8.90979 44.7126C8.69154 44.7139 8.47328 44.7115 8.25503 44.7089C8.13284 44.7086 8.01064 44.7083 7.88475 44.708C7.57127 44.639 7.57127 44.639 7.31321 44.3821C7.09376 44.0274 7.06399 43.8459 7.13377 43.4358C7.37791 43.1244 7.52205 43.0148 7.8994 42.889C8.16684 42.8775 8.43124 42.872 8.69873 42.8717C8.78074 42.8711 8.86276 42.8706 8.94726 42.87C9.22285 42.8683 9.49843 42.8674 9.77402 42.8665C9.97127 42.8655 10.1685 42.8644 10.3658 42.8632C10.902 42.8603 11.4382 42.858 11.9744 42.8558C12.5345 42.8534 13.0946 42.8504 13.6547 42.8475C14.7157 42.842 15.7767 42.8371 16.8376 42.8324C18.0454 42.827 19.2531 42.821 20.4609 42.8149C22.9456 42.8025 25.4303 42.7908 27.915 42.7796C27.855 42.7054 27.7949 42.6311 27.7331 42.5546C27.6543 42.4568 27.5755 42.3589 27.4943 42.2581C27.4163 42.1613 27.3382 42.0645 27.2577 41.9648C26.9966 41.6302 26.7782 41.2918 26.5615 40.9271C26.4907 40.8088 26.42 40.6905 26.347 40.5686C26.287 40.4681 26.2269 40.3675 26.165 40.264C26.0567 40.1016 26.0567 40.1016 25.9463 39.9358C25.6454 39.8858 25.6454 39.8858 25.2875 39.8938C25.08 39.8921 25.08 39.8921 24.8683 39.8904C24.7941 39.8906 24.7199 39.8908 24.6435 39.8909C24.4113 39.8914 24.1791 39.8899 23.9469 39.8878C23.4535 39.8838 22.9602 39.8823 22.4668 39.8812C21.8961 39.8798 21.3255 39.8775 20.7549 39.8724C20.5266 39.8709 20.2982 39.8714 20.0699 39.8719C19.9305 39.8708 19.7911 39.8697 19.6475 39.8686C19.525 39.8683 19.4025 39.8681 19.2763 39.8679C18.9049 39.8213 18.6985 39.7198 18.3994 39.4983C18.2434 39.1863 18.2561 38.9696 18.29 38.6233C18.4708 38.332 18.4708 38.332 18.7275 38.0765C19.0251 38.0107 19.0251 38.0107 19.3696 38.0144C19.4987 38.0144 19.6279 38.0145 19.761 38.0145C19.9693 38.0187 19.9693 38.0187 20.1819 38.0231C20.3245 38.0238 20.4671 38.0246 20.614 38.0254C20.9924 38.0275 21.3707 38.0329 21.749 38.0389C22.1354 38.0445 22.5217 38.047 22.9081 38.0498C23.6657 38.0556 24.4232 38.065 25.1806 38.0765C25.1424 37.9391 25.1042 37.8018 25.0649 37.6603C25.0145 37.4755 24.9643 37.2906 24.914 37.1058C24.8889 37.0158 24.8637 36.9259 24.8378 36.8332C24.8135 36.743 24.7891 36.6527 24.7641 36.5597C24.7417 36.4784 24.7194 36.3971 24.6964 36.3133C24.6041 35.8493 24.5715 35.3753 24.5244 34.9046C17.0891 34.9046 9.65377 34.9046 1.99315 34.9046C1.99315 37.5394 1.99315 40.1743 1.99315 42.889C2.75112 42.889 3.50909 42.889 4.29002 42.889C4.94627 43.2171 4.94627 43.2171 5.05565 43.4358C5.10017 43.8365 5.09016 44.0356 4.87786 44.3833C4.54566 44.7103 4.38857 44.7068 3.92857 44.7039C3.72787 44.7035 3.72787 44.7035 3.52312 44.7031C3.38368 44.7 3.24424 44.6969 3.10057 44.6937C2.96198 44.6939 2.82338 44.6942 2.68059 44.6945C1.29479 44.6799 1.29479 44.6799 0.719528 44.1429C0.296096 43.5892 0.226246 43.2839 0.223789 42.5999C0.22307 42.5136 0.222352 42.4273 0.221611 42.3384C0.219451 42.0521 0.218177 41.7658 0.217087 41.4795C0.216418 41.3328 0.216418 41.3328 0.215736 41.1831C0.213453 40.6653 0.21189 40.1474 0.210865 39.6295C0.209656 39.0953 0.205896 38.561 0.201549 38.0268C0.198686 37.6155 0.197774 37.2043 0.197381 36.793C0.196849 36.5961 0.19558 36.3992 0.193549 36.2023C0.190877 35.9261 0.190987 35.6501 0.191746 35.3738C0.190345 35.2931 0.188944 35.2123 0.1875 35.1291C0.19355 34.5221 0.34394 34.189 0.680649 33.7015C1.49936 33.0666 1.83137 33.1546 2.97752 33.1546C2.97752 32.2523 2.97752 31.3499 2.97752 30.4202C2.75645 30.427 2.53538 30.4338 2.3076 30.4407C1.75148 30.4389 1.35782 30.4359 0.899399 30.0921C0.351835 29.5295 0.226552 29.1501 0.223789 28.3811C0.22307 28.2948 0.222352 28.2086 0.221611 28.1197C0.219451 27.8334 0.218177 27.5471 0.217087 27.2607C0.216641 27.1629 0.216195 27.0652 0.215736 26.9644C0.213453 26.4465 0.21189 25.9287 0.210865 25.4108C0.209656 24.8765 0.205896 24.3423 0.201549 23.808C0.198686 23.3968 0.197774 22.9855 0.197381 22.5742C0.196849 22.3773 0.19558 22.1805 0.193549 21.9836C0.190877 21.7074 0.190987 21.4313 0.191746 21.1551C0.190345 21.0743 0.188944 20.9936 0.1875 20.9103C0.19355 20.3033 0.34394 19.9702 0.680649 19.4827C1.49936 18.8478 1.83137 18.9358 2.97752 18.9358C2.97752 18.0335 2.97752 17.1312 2.97752 16.2015C2.75871 16.2105 2.53989 16.2195 2.31444 16.2288C1.65343 16.2281 1.30832 16.172 0.790024 15.764C0.297013 15.2191 0.226362 14.8785 0.223789 14.1624C0.22307 14.0761 0.222352 13.9898 0.221611 13.9009C0.219451 13.6146 0.218177 13.3283 0.217087 13.042C0.216641 12.9442 0.216195 12.8464 0.215736 12.7456C0.213453 12.2278 0.21189 11.7099 0.210865 11.192C0.209656 10.6578 0.205896 10.1235 0.201549 9.58928C0.198686 9.17801 0.197774 8.76676 0.197381 8.35548C0.196849 8.15859 0.19558 7.96171 0.193549 7.76484C0.190877 7.48863 0.190987 7.21256 0.191746 6.93635C0.190345 6.85558 0.188944 6.77481 0.1875 6.6916C0.19355 6.08456 0.34394 5.75148 0.680649 5.26397C1.1552 4.89595 1.53144 4.70396 2.13091 4.70211ZM35.1338 14.1233C35.1229 14.4343 35.1186 14.7421 35.1201 15.053C35.1197 15.1403 35.1193 15.2276 35.1188 15.3175C35.0781 15.7386 35.0781 15.7386 35.2431 16.0921C35.4378 16.1023 35.6329 16.1049 35.8279 16.1045C35.9527 16.1045 36.0775 16.1045 36.2061 16.1045C36.4098 16.1036 36.4098 16.1036 36.6176 16.1028C36.7558 16.1026 36.894 16.1025 37.0365 16.1023C37.4045 16.1018 37.7726 16.1008 38.1407 16.0996C38.516 16.0985 38.8914 16.098 39.2667 16.0974C40.0037 16.0962 40.7406 16.0944 41.4775 16.0921C41.4805 15.7662 41.4826 15.4404 41.4844 15.1146C41.4857 14.9751 41.4857 14.9751 41.4871 14.8328C41.4875 14.7443 41.4878 14.6558 41.4882 14.5647C41.4888 14.4828 41.4893 14.4009 41.4899 14.3165C41.4987 14.1204 41.4987 14.1204 41.3681 14.014C41.1774 14.0032 40.9862 14 40.7952 13.9998C40.6118 13.9993 40.6118 13.9993 40.4247 13.9988C40.2251 13.9991 40.2251 13.9991 40.0215 13.9994C39.8859 13.9993 39.7504 13.9992 39.6108 13.9991C39.3235 13.9991 39.0363 13.9992 38.749 13.9997C38.3801 14.0003 38.0112 14 37.6423 13.9993C37.2915 13.9988 36.9406 13.9992 36.5898 13.9994C36.3902 13.9991 36.3902 13.9991 36.1866 13.9988C36.0643 13.9991 35.9421 13.9995 35.8161 13.9998C35.6537 14 35.6537 14 35.4881 14.0001C35.2463 13.9865 35.2463 13.9865 35.1338 14.1233ZM4.72752 16.2015C4.72752 17.1038 4.72752 18.0062 4.72752 18.9358C14.7616 18.9358 24.7956 18.9358 35.1338 18.9358C35.1338 18.5749 35.1338 18.214 35.1338 17.8421C34.9962 17.7902 34.8586 17.7383 34.7168 17.6849C34.6007 17.6411 34.6007 17.6411 34.4822 17.5964C34.2996 17.529 34.1153 17.4662 33.9306 17.4046C33.8213 17.2269 33.8213 17.2269 33.7119 16.9671C33.6036 16.7144 33.4953 16.4618 33.3838 16.2015C23.9272 16.2015 14.4706 16.2015 4.72752 16.2015ZM36.8838 17.8421C36.8838 18.4918 36.8838 19.1415 36.8838 19.8108C37.8222 19.8108 38.7607 19.8108 39.7275 19.8108C39.7275 19.1612 39.7275 18.5115 39.7275 17.8421C38.7891 17.8421 37.8506 17.8421 36.8838 17.8421ZM1.99315 20.6858C1.8363 20.9996 1.86985 21.2681 1.86962 21.6187C1.86933 21.7287 1.86933 21.7287 1.86904 21.8408C1.86856 22.0836 1.86888 22.3264 1.86925 22.5691C1.86917 22.7375 1.86907 22.9059 1.86893 23.0742C1.86877 23.4273 1.869 23.7804 1.86951 24.1335C1.87014 24.5866 1.86978 25.0397 1.86912 25.4929C1.86873 25.8406 1.86885 26.1883 1.86914 26.536C1.86921 26.7032 1.86912 26.8703 1.86887 27.0374C1.86859 27.2707 1.86901 27.504 1.86962 27.7373C1.86971 27.8703 1.8698 28.0032 1.86988 28.1401C1.86236 28.4457 1.86236 28.4457 1.99315 28.6702C9.71721 28.6702 17.4413 28.6702 25.3994 28.6702C25.7242 27.9844 26.0491 27.2987 26.3838 26.5921C26.6545 26.1048 26.6545 26.1048 26.9306 25.6077C26.8316 25.6068 26.7325 25.606 26.6305 25.605C25.697 25.5965 24.7636 25.587 23.8302 25.5763C23.3503 25.5708 22.8705 25.5657 22.3906 25.5616C21.9275 25.5575 21.4644 25.5525 21.0013 25.5467C20.8246 25.5447 20.6479 25.543 20.4712 25.5417C20.2237 25.5399 19.9763 25.5367 19.7289 25.5332C19.588 25.5318 19.4471 25.5303 19.302 25.5288C18.9698 25.5004 18.7813 25.466 18.5088 25.2796C18.3551 24.9723 18.3722 24.745 18.3994 24.4046C18.5082 24.1671 18.5082 24.1671 18.7275 23.9671C19.0455 23.9279 19.3217 23.9166 19.6393 23.9247C19.7323 23.9254 19.8254 23.926 19.9213 23.9266C20.1236 23.9282 20.3259 23.9307 20.5282 23.934C20.8493 23.9389 21.1702 23.9406 21.4914 23.9413C22.4044 23.9436 23.3173 23.9499 24.2302 23.9629C24.7887 23.9707 25.3471 23.973 25.9057 23.972C26.1178 23.9727 26.3299 23.9754 26.542 23.9802C27.8714 24.041 27.8714 24.041 29.0232 23.4738C29.2524 23.25 29.4582 23.0083 29.665 22.764C29.9165 22.5587 30.1786 22.3793 30.4512 22.2034C30.5183 22.1592 30.5854 22.1151 30.6546 22.0695C31.42 21.5778 32.2335 21.182 33.0556 20.7952C33.0556 20.7591 33.0556 20.723 33.0556 20.6858C22.805 20.6858 12.5544 20.6858 1.99315 20.6858ZM41.4775 17.8421C41.4775 18.6001 41.4775 19.358 41.4775 20.139C41.7302 20.2134 41.9828 20.2879 42.2431 20.3646C45.6923 21.4303 48.6137 23.6419 50.3623 26.8385C50.9839 28.0265 51.4399 29.2284 51.7588 30.5296C51.7843 30.6332 51.8098 30.7369 51.8361 30.8436C52.5664 34.2953 51.7807 38.0645 49.9278 41.0376C47.9025 44.1371 44.8083 46.2121 41.2109 47.0179C39.6587 47.3391 37.1748 47.7121 35.6806 47.0452C35.4279 46.7116 35.3482 46.5726 35.373 46.1497C35.4619 45.8421 35.4619 45.8421 35.6806 45.6233C35.9494 45.6081 36.2057 45.606 36.474 45.6135C36.6393 45.6158 36.8046 45.618 36.9699 45.6201C37.2283 45.6248 37.4866 45.6301 37.745 45.6361C39.3687 45.6713 40.9226 45.5376 42.4482 44.9329C42.5352 44.8995 42.6222 44.8661 42.7118 44.8316C45.8086 43.6145 48.1901 41.1752 49.5166 38.1495C50.7447 35.1465 50.7157 31.8405 49.4888 28.8441C48.1306 25.7114 45.619 23.425 42.4751 22.1483C39.4621 21.0595 36.1555 21.2216 33.2511 22.5462C32.2009 23.0455 31.2972 23.6228 30.4306 24.4046C30.339 24.4807 30.2474 24.5569 30.1529 24.6353C27.9994 26.4621 26.5914 29.2688 26.2744 32.0608C26.0376 35.6097 26.8637 38.8651 29.2275 41.5765C30.2573 42.7289 31.4489 43.5617 32.7655 44.3476C33.0556 44.5296 33.0556 44.5296 33.2744 44.7483C33.3353 45.4179 33.3353 45.4179 33.1445 45.7191C32.8825 45.8817 32.7092 45.9257 32.3994 45.9515C32.1305 45.8491 31.8985 45.7447 31.6474 45.6097C31.455 45.5111 31.455 45.5111 31.2587 45.4106C30.9673 45.2558 30.8014 45.1229 30.5524 44.8881C29.9238 44.4271 28.9934 44.584 28.25 44.6048C28.0796 44.6075 27.9092 44.61 27.7388 44.6123C27.3235 44.6183 26.9084 44.6277 26.4931 44.639C28.9534 47.6218 32.8541 49.3241 36.6402 49.7601C38.3732 49.8991 40.1073 49.8171 41.8056 49.4515C42.0093 49.4096 42.0093 49.4096 42.2171 49.3669C46.2812 48.4091 49.9236 45.6537 52.1437 42.1451C53.0808 40.5975 53.7283 38.9526 54.165 37.2015C54.1843 37.1296 54.2036 37.0577 54.2235 36.9836C54.7916 34.8167 54.7324 32.0308 54.165 29.8733C54.1377 29.763 54.1377 29.763 54.1099 29.6504C53.2454 26.1852 51.2187 22.9615 48.3681 20.7952C48.2573 20.7088 48.1465 20.6224 48.0323 20.5333C46.4861 19.3571 43.5134 17.3331 41.4775 17.8421ZM4.72752 30.4202C4.72752 31.3226 4.72752 32.2249 4.72752 33.1546C11.2605 33.1546 17.7935 33.1546 24.5244 33.1546C24.5966 32.5049 24.6688 31.8552 24.7431 31.1858C24.7792 30.9332 24.8153 30.6805 24.8525 30.4202C18.2113 30.4202 11.57 30.4202 4.72752 30.4202Z" fill="#0499FC"/>
<path d="M38.8516 23.6392C39.0968 23.8824 39.1736 24.0303 39.2192 24.3743C39.2185 24.488 39.2178 24.6017 39.217 24.7188C39.217 24.9125 39.217 24.9125 39.2169 25.1102C39.2152 25.2491 39.2135 25.388 39.2118 25.5311C39.2113 25.6737 39.2109 25.8163 39.2104 25.9632C39.2091 26.3416 39.2059 26.7199 39.2023 27.0982C39.1989 27.4846 39.1974 27.8709 39.1958 28.2573C39.1923 29.0148 39.1867 29.7723 39.1798 30.5298C39.2635 30.5444 39.3473 30.5589 39.4335 30.5738C40.1909 30.7428 40.7075 31.3482 41.1485 31.9517C41.5906 32.6709 41.5842 33.5432 41.4766 34.358C41.2114 35.1669 40.8056 35.8923 40.0548 36.3267C39.0628 36.812 38.1896 36.9286 37.1358 36.5865C36.1811 36.2 35.6556 35.6255 35.2423 34.6861C34.9615 33.8205 35.0411 32.8027 35.4174 31.9833C35.8175 31.3284 36.3768 30.7995 37.1016 30.5298C37.2099 30.5298 37.3182 30.5298 37.4298 30.5298C37.429 30.45 37.4283 30.3701 37.4275 30.2878C37.421 29.5347 37.416 28.7815 37.4128 28.0284C37.411 27.6412 37.4087 27.254 37.405 26.8668C37.4007 26.4215 37.3992 25.9763 37.3977 25.5311C37.396 25.3922 37.3943 25.2533 37.3926 25.1102C37.3926 24.981 37.3925 24.8518 37.3925 24.7188C37.3918 24.6051 37.391 24.4914 37.3903 24.3743C37.4358 24.0313 37.5169 23.8844 37.7579 23.6392C38.1729 23.5009 38.4276 23.5408 38.8516 23.6392ZM37.4298 32.3892C37.0877 32.7583 36.8943 33.0059 36.8555 33.5103C36.886 33.968 36.9512 34.1996 37.211 34.5767C37.6462 34.9162 37.9291 35.0524 38.4825 35.0211C38.9675 34.9409 39.2018 34.7475 39.5079 34.358C39.7786 33.9518 39.7857 33.6256 39.7266 33.1548C39.5318 32.7038 39.2618 32.4376 38.8516 32.1705C38.2853 31.9858 37.943 32.1041 37.4298 32.3892Z" fill="#0499FC"/>
<path d="M19.395 9.56977C19.5321 9.56823 19.6692 9.56669 19.8104 9.5651C19.962 9.56616 20.1137 9.56728 20.2653 9.56845C20.4252 9.56771 20.5852 9.56674 20.7451 9.56555C21.1792 9.56306 21.6132 9.56402 22.0474 9.56576C22.5016 9.56714 22.9558 9.56586 23.41 9.565C24.1728 9.56401 24.9356 9.56532 25.6984 9.56792C26.5804 9.5709 27.4623 9.56993 28.3443 9.56692C29.1014 9.56444 29.8586 9.56409 30.6157 9.56552C31.068 9.56637 31.5202 9.56649 31.9725 9.56468C32.3977 9.5631 32.8228 9.5642 33.248 9.56736C33.4041 9.56808 33.5602 9.56787 33.7162 9.56667C33.9292 9.56517 34.1422 9.56738 34.3551 9.56977C34.4743 9.56998 34.5935 9.57019 34.7164 9.5704C35.0235 9.63922 35.0235 9.63922 35.2844 9.89221C35.461 10.1861 35.461 10.1861 35.4541 10.5826C35.3169 11.0767 35.3169 11.0767 35.0235 11.2798C34.6754 11.3959 34.4274 11.4035 34.0616 11.4046C33.9295 11.4052 33.7973 11.4058 33.6611 11.4065C33.5144 11.4066 33.3677 11.4067 33.221 11.4068C33.0666 11.4073 32.9123 11.4079 32.758 11.4085C32.3386 11.4099 31.9191 11.4106 31.4997 11.4111C31.2377 11.4114 30.9757 11.4119 30.7136 11.4124C29.8939 11.4139 29.0742 11.4149 28.2544 11.4153C27.308 11.4158 26.3616 11.4178 25.4152 11.4209C24.6837 11.4233 23.9522 11.4244 23.2207 11.4245C22.7838 11.4247 22.3469 11.4253 21.91 11.4273C21.499 11.4291 21.088 11.4293 20.677 11.4283C20.5263 11.4282 20.3755 11.4287 20.2248 11.4298C20.0188 11.4312 19.8128 11.4304 19.6068 11.4294C19.4916 11.4296 19.3764 11.4297 19.2577 11.4299C18.8967 11.3829 18.6905 11.2752 18.3985 11.0611C18.2424 10.749 18.2552 10.5323 18.2891 10.1861C18.6028 9.67669 18.8026 9.5708 19.395 9.56977Z" fill="#0499FC"/>
<path d="M11.9519 22.1851C12.1884 22.1833 12.4247 22.1785 12.6612 22.1736C12.8126 22.1725 12.9639 22.1716 13.1153 22.1708C13.2526 22.1693 13.3898 22.1677 13.5312 22.166C13.9825 22.2267 14.2177 22.3715 14.5697 22.6549C14.7316 22.9787 14.7013 23.31 14.7051 23.6654C14.706 23.7439 14.7069 23.8224 14.7078 23.9033C14.7093 24.0696 14.7105 24.2359 14.7113 24.4022C14.7132 24.6558 14.718 24.9091 14.7228 25.1626C14.724 25.3244 14.7249 25.4861 14.7256 25.6478C14.7275 25.7232 14.7295 25.7987 14.7314 25.8764C14.7291 26.4005 14.6117 26.6621 14.2416 27.0299C13.7508 27.2753 13.0391 27.1733 12.4943 27.1776C12.3244 27.1794 12.1546 27.1824 11.9848 27.1866C11.7394 27.1926 11.4942 27.1949 11.2487 27.1965C11.1733 27.199 11.0978 27.2015 11.0201 27.2041C10.5943 27.2022 10.4274 27.1508 10.0946 26.8759C9.62739 26.2951 9.72485 25.659 9.71889 24.9446C9.71708 24.7861 9.7141 24.6276 9.70992 24.4692C9.70389 24.2398 9.70153 24.0106 9.69993 23.7811C9.69776 23.6439 9.69559 23.5067 9.69336 23.3653C9.77771 22.8601 9.94609 22.6867 10.3041 22.3268C10.7818 22.0879 11.4211 22.1881 11.9519 22.1851ZM11.5072 23.9674C11.5072 24.4366 11.5072 24.9059 11.5072 25.3893C11.9764 25.3893 12.4456 25.3893 12.9291 25.3893C12.9291 24.9201 12.9291 24.4509 12.9291 23.9674C12.4598 23.9674 11.9906 23.9674 11.5072 23.9674Z" fill="#0499FC"/>
<path d="M11.9519 7.96638C12.1884 7.96451 12.4247 7.95971 12.6612 7.95488C12.8126 7.95377 12.9639 7.95284 13.1153 7.9521C13.2526 7.9505 13.3898 7.94891 13.5312 7.94727C13.9825 8.00796 14.2177 8.15277 14.5697 8.43617C14.7316 8.75999 14.7013 9.09128 14.7051 9.44661C14.706 9.52511 14.7069 9.60362 14.7078 9.68451C14.7093 9.85083 14.7105 10.0171 14.7113 10.1835C14.7132 10.437 14.718 10.6904 14.7228 10.9439C14.724 11.1056 14.7249 11.2673 14.7256 11.429C14.7275 11.5045 14.7295 11.5799 14.7314 11.6576C14.7291 12.1817 14.6117 12.4433 14.2416 12.8112C13.7508 13.0565 13.0391 12.9546 12.4943 12.9588C12.3244 12.9606 12.1546 12.9636 11.9848 12.9678C11.7394 12.9738 11.4942 12.9762 11.2487 12.9778C11.1733 12.9803 11.0978 12.9828 11.0201 12.9853C10.5943 12.9835 10.4274 12.9321 10.0946 12.6572C9.62739 12.0763 9.72485 11.4403 9.71889 10.7258C9.71708 10.5673 9.7141 10.4089 9.70992 10.2504C9.70389 10.021 9.70153 9.79185 9.69993 9.56239C9.69776 9.42517 9.69559 9.28795 9.69336 9.14657C9.77771 8.64133 9.94609 8.46796 10.3041 8.10804C10.7818 7.86915 11.4211 7.96932 11.9519 7.96638ZM11.5072 9.74867C11.5072 10.2179 11.5072 10.6871 11.5072 11.1705C11.9764 11.1705 12.4456 11.1705 12.9291 11.1705C12.9291 10.7013 12.9291 10.2321 12.9291 9.74867C12.4598 9.74867 11.9906 9.74867 11.5072 9.74867Z" fill="#0499FC"/>
<path d="M11.9689 36.3873C12.2035 36.3882 12.4378 36.3851 12.6724 36.3816C12.8228 36.3814 12.9732 36.3815 13.1236 36.3818C13.3273 36.3815 13.3273 36.3815 13.5352 36.3812C13.9823 36.446 14.2204 36.593 14.5702 36.8736C14.7321 37.1974 14.7019 37.5287 14.7057 37.884C14.7066 37.9625 14.7074 38.041 14.7083 38.1219C14.7099 38.2882 14.711 38.4546 14.7119 38.6209C14.7138 38.8744 14.7186 39.1278 14.7234 39.3813C14.7245 39.543 14.7254 39.7047 14.7262 39.8664C14.7281 39.9419 14.73 40.0173 14.732 40.095C14.7296 40.6191 14.6123 40.8807 14.2421 41.2486C13.7514 41.4939 13.0396 41.392 12.4948 41.3962C12.325 41.3981 12.1551 41.401 11.9853 41.4052C11.7399 41.4112 11.4947 41.4136 11.2493 41.4152C11.1738 41.4177 11.0984 41.4202 11.0206 41.4227C10.5949 41.4209 10.4279 41.3695 10.0952 41.0946C9.63368 40.5209 9.73343 39.9088 9.73146 39.204C9.7304 38.9742 9.72701 38.7446 9.72356 38.5148C9.72284 38.3681 9.72227 38.2213 9.72185 38.0746C9.72083 37.9414 9.7198 37.8081 9.71875 37.6709C9.77188 37.1805 9.9364 36.9165 10.2775 36.5689C10.7829 36.2958 11.4057 36.3839 11.9689 36.3873ZM11.5077 38.1861C11.5077 38.6553 11.5077 39.1245 11.5077 39.608C11.977 39.608 12.4462 39.608 12.9296 39.608C12.9296 39.1387 12.9296 38.6695 12.9296 38.1861C12.4604 38.1861 11.9912 38.1861 11.5077 38.1861Z" fill="#0499FC"/>
<path d="M5.71846 36.3976C5.87695 36.3958 6.03543 36.3928 6.19388 36.3886C6.42327 36.3826 6.65245 36.3802 6.8819 36.3786C7.01912 36.3765 7.15634 36.3743 7.29772 36.3721C7.80577 36.4569 7.97796 36.6178 8.33625 36.9828C8.52117 37.5375 8.47027 38.1269 8.4719 38.7075C8.47296 38.9363 8.47635 39.165 8.4798 39.3937C8.48052 39.54 8.48109 39.6862 8.48151 39.8325C8.48305 40.0313 8.48305 40.0313 8.48461 40.2341C8.44185 40.6268 8.35517 40.8266 8.1175 41.139C7.72604 41.4 7.43956 41.3931 6.98701 41.3945C6.86948 41.3956 6.86948 41.3956 6.74957 41.3967C6.58391 41.3978 6.41824 41.3983 6.25257 41.3983C5.99998 41.3988 5.74761 41.4027 5.49506 41.4069C5.33385 41.4075 5.17263 41.408 5.01142 41.4082C4.93632 41.4098 4.86122 41.4113 4.78385 41.4129C4.26171 41.408 3.99992 41.2886 3.63312 40.9203C3.38776 40.4295 3.48971 39.7178 3.48546 39.173C3.48365 39.0031 3.48066 38.8333 3.47648 38.6635C3.47048 38.4181 3.4681 38.1729 3.4665 37.9274C3.46402 37.852 3.46154 37.7765 3.45898 37.6988C3.46084 37.2731 3.51222 37.1061 3.78709 36.7733C4.36795 36.3061 5.00404 36.4036 5.71846 36.3976ZM5.16437 38.1859C5.16437 38.6551 5.16437 39.1243 5.16437 39.6078C5.66969 39.6078 6.175 39.6078 6.69562 39.6078C6.69562 39.1385 6.69562 38.6693 6.69562 38.1859C6.19031 38.1859 5.685 38.1859 5.16437 38.1859Z" fill="#0499FC"/>
<path d="M5.71846 22.1788C5.87695 22.177 6.03543 22.1741 6.19388 22.1699C6.42327 22.1639 6.65245 22.1615 6.8819 22.1599C7.01912 22.1577 7.15634 22.1556 7.29772 22.1533C7.80577 22.2381 7.97796 22.3991 8.33625 22.764C8.52117 23.3188 8.47027 23.9082 8.4719 24.4888C8.47296 24.7175 8.47635 24.9462 8.4798 25.175C8.48052 25.3212 8.48109 25.4675 8.48151 25.6137C8.48305 25.8125 8.48305 25.8125 8.48461 26.0153C8.44185 26.4081 8.35517 26.6079 8.1175 26.9203C7.72604 27.1812 7.43956 27.1743 6.98701 27.1758C6.86948 27.1769 6.86948 27.1769 6.74957 27.178C6.58391 27.1791 6.41824 27.1796 6.25257 27.1796C5.99998 27.18 5.74761 27.184 5.49506 27.1881C5.33385 27.1888 5.17263 27.1892 5.01142 27.1894C4.93632 27.191 4.86122 27.1926 4.78385 27.1942C4.26171 27.1893 3.99992 27.0699 3.63312 26.7015C3.38776 26.2108 3.48971 25.499 3.48546 24.9542C3.48365 24.7844 3.48066 24.6145 3.47648 24.4447C3.47048 24.1993 3.4681 23.9541 3.4665 23.7087C3.46402 23.6332 3.46154 23.5578 3.45898 23.48C3.46084 23.0543 3.51222 22.8874 3.78709 22.5546C4.36795 22.0873 5.00404 22.1848 5.71846 22.1788ZM5.16437 23.9671C5.16437 24.4364 5.16437 24.9056 5.16437 25.389C5.66969 25.389 6.175 25.389 6.69562 25.389C6.69562 24.9198 6.69562 24.4506 6.69562 23.9671C6.19031 23.9671 5.685 23.9671 5.16437 23.9671Z" fill="#0499FC"/>
<path d="M5.71846 7.9601C5.87695 7.95829 6.03543 7.95531 6.19388 7.95113C6.42327 7.9451 6.65245 7.94274 6.8819 7.94114C7.01912 7.93897 7.15634 7.9368 7.29772 7.93457C7.80577 8.01939 7.97796 8.18033 8.33625 8.54527C8.52117 9.10001 8.47027 9.68942 8.4719 10.27C8.47296 10.4988 8.47635 10.7275 8.4798 10.9562C8.48052 11.1025 8.48109 11.2487 8.48151 11.395C8.48305 11.5938 8.48305 11.5938 8.48461 11.7966C8.44185 12.1893 8.35517 12.3891 8.1175 12.7015C7.72604 12.9625 7.43956 12.9556 6.98701 12.957C6.86948 12.9581 6.86948 12.9581 6.74957 12.9592C6.58391 12.9603 6.41824 12.9608 6.25257 12.9608C5.99998 12.9613 5.74761 12.9652 5.49506 12.9694C5.33385 12.97 5.17263 12.9705 5.01142 12.9707C4.93632 12.9723 4.86122 12.9738 4.78385 12.9754C4.26171 12.9705 3.99992 12.8511 3.63312 12.4828C3.38776 11.992 3.48971 11.2803 3.48546 10.7355C3.48365 10.5656 3.48066 10.3958 3.47648 10.226C3.47048 9.98057 3.4681 9.73537 3.4665 9.48991C3.46402 9.41446 3.46154 9.33902 3.45898 9.26129C3.46084 8.83555 3.51222 8.6686 3.78709 8.33583C4.36795 7.8686 5.00404 7.96606 5.71846 7.9601ZM5.16437 9.74839C5.16437 10.2176 5.16437 10.6868 5.16437 11.1703C5.66969 11.1703 6.175 11.1703 6.69562 11.1703C6.69562 10.701 6.69562 10.2318 6.69562 9.74839C6.19031 9.74839 5.685 9.74839 5.16437 9.74839Z" fill="#0499FC"/>
<path d="M36.1017 40.335C36.3354 40.4829 36.3354 40.4829 36.5541 40.811C36.6203 41.2462 36.5868 41.4177 36.3422 41.7885C35.9347 42.0629 35.7501 42.0585 35.2796 41.9761C34.726 41.8222 34.1906 41.5915 33.8197 41.1391C33.7755 40.7337 33.764 40.4743 33.9633 40.1137C34.5941 39.5063 35.4534 40.0114 36.1017 40.335Z" fill="#0499FC"/>
<path d="M45.959 36.436C46.1641 36.5522 46.1641 36.5522 46.2871 36.7641C46.4004 37.4819 46.1945 37.8854 45.8171 38.4923C45.625 38.7405 45.4637 38.9019 45.1934 39.061C44.8836 39.0991 44.613 39.0528 44.3184 38.9516C44.0259 38.6503 43.9929 38.473 43.9766 38.0561C44.1614 37.4298 44.5245 36.7634 45.0883 36.4027C45.4097 36.2887 45.6348 36.3464 45.959 36.436Z" fill="#0499FC"/>
<path d="M32.6853 26.8384C33.1537 26.9425 33.3227 27.0789 33.6014 27.4673C33.6834 27.7749 33.6834 27.7749 33.6014 28.1235C33.3735 28.4436 33.1101 28.7182 32.8357 28.9985C32.7275 29.1339 32.7275 29.1339 32.617 29.272C32.2845 29.5214 32.0358 29.4864 31.6326 29.436C31.3728 29.3198 31.3728 29.3198 31.1951 29.1079C31.0593 28.6582 31.0379 28.4379 31.2498 28.0142C31.34 27.9059 31.4303 27.7976 31.5232 27.686C31.5803 27.6164 31.6374 27.5467 31.6963 27.475C32.0194 27.1117 32.1994 26.9389 32.6853 26.8384Z" fill="#0499FC"/>
<path d="M43.4453 39.2797C43.7256 39.5053 43.7256 39.5053 43.8828 39.8266C43.917 40.1958 43.917 40.1958 43.7734 40.5922C43.3313 41.0399 42.8418 41.3793 42.2422 41.5766C41.9064 41.5565 41.6745 41.5222 41.3877 41.3442C41.179 41.0146 41.1484 40.7613 41.1484 40.3735C41.7009 39.625 42.514 39.1245 43.4453 39.2797Z" fill="#0499FC"/>
<path d="M32.1797 37.4206C32.4668 37.653 32.4668 37.653 32.7266 37.9675C32.8258 38.0713 32.9251 38.175 33.0273 38.2819C33.3119 38.6772 33.3916 38.9033 33.3828 39.3894C33.2256 39.7107 33.2256 39.7107 32.9453 39.9362C32.589 39.9928 32.4058 40.0194 32.0703 39.9362C31.7764 39.7038 31.7764 39.7038 31.5234 39.3894C31.4737 39.3355 31.4239 39.2816 31.3726 39.2262C31.0714 38.8949 30.8672 38.6414 30.8672 38.1862C31.1617 37.457 31.3943 37.3407 32.1797 37.4206Z" fill="#0499FC"/>
<path d="M36.4446 25.061C36.7532 25.2525 36.7771 25.4037 36.8821 25.7583C36.8821 26.1547 36.8821 26.1547 36.6839 26.4487C36.1011 26.8715 35.539 27.1438 34.8108 27.1323C34.2978 26.9752 34.2978 26.9752 34.1477 26.7016C34.081 26.1006 34.081 26.1006 34.1477 25.8266C34.6548 25.1943 35.6582 24.7661 36.4446 25.061Z" fill="#0499FC"/>
<path d="M31.195 30.2015C31.4123 30.3677 31.5085 30.4663 31.5706 30.7347C31.5718 31.4358 31.4277 32.0995 31.0856 32.7171C30.7729 32.933 30.6509 32.936 30.2585 32.9222C29.8825 32.8265 29.8825 32.8265 29.6706 32.6488C29.3877 32.0165 29.5933 31.4056 29.7787 30.774C30.0739 30.0791 30.5064 30.0565 31.195 30.2015Z" fill="#0499FC"/>
<path d="M30.758 33.9206C31.1252 34.1525 31.1903 34.343 31.3323 34.7546C31.4369 35.2615 31.5212 35.8169 31.4143 36.3269C31.1294 36.6056 30.998 36.6523 30.594 36.7028C30.1391 36.646 30.0562 36.5664 29.7737 36.2175C29.6553 35.9107 29.6553 35.9107 29.5754 35.5749C29.5338 35.4095 29.5338 35.4095 29.4913 35.2408C29.4323 34.808 29.453 34.4286 29.6711 34.0437C30.0191 33.8416 30.373 33.8529 30.758 33.9206Z" fill="#0499FC"/>
<path d="M46.7246 32.7173C46.9844 32.8335 46.9844 32.8335 47.1621 33.0454C47.3372 33.7053 47.323 34.5074 47.0639 35.1475C46.8881 35.4317 46.7154 35.4795 46.3965 35.561C46.0478 35.544 45.8907 35.4843 45.6168 35.2667C45.2468 34.8101 45.3631 34.2616 45.4121 33.7017C45.4571 33.4143 45.5185 33.2081 45.6309 32.936C46.0367 32.6655 46.2445 32.6752 46.7246 32.7173Z" fill="#0499FC"/>
<path d="M40.143 40.8385C40.3769 41.1832 40.4048 41.4586 40.3276 41.8639C40.1437 42.155 39.9765 42.2776 39.6534 42.3963C39.1047 42.5155 38.5297 42.5437 37.976 42.4518C37.7087 42.2504 37.5683 42.1193 37.4766 41.7955C37.4773 41.3986 37.4944 41.1986 37.7368 40.8727C38.4064 40.5444 39.4959 40.3922 40.143 40.8385Z" fill="#0499FC"/>
</g>
<defs>
<clipPath id="clip0_2004_716">
<rect width="56" height="56" fill="white" transform="translate(0.242188 0.123535)"/>
</clipPath>
</defs>
</svg>
