<svg width="57" height="57" viewBox="0 0 57 57" fill="none" xmlns="http://www.w3.org/2000/svg">
<g clip-path="url(#clip0_2004_711)">
<path d="M8.494 15.8402C8.60631 15.8393 8.71862 15.8384 8.83434 15.8374C9.20395 15.8348 9.57354 15.8338 9.94316 15.8331C10.2007 15.8321 10.4582 15.8311 10.7158 15.8301C11.2547 15.8283 11.7936 15.8275 12.3326 15.8272C13.0234 15.8266 13.7142 15.8224 14.4051 15.8174C14.9365 15.8142 15.468 15.8134 15.9994 15.8133C16.2542 15.8128 16.5089 15.8115 16.7637 15.8092C17.1195 15.8063 17.4752 15.8068 17.831 15.8081C17.9889 15.8057 17.9889 15.8057 18.1499 15.8032C18.6495 15.8087 18.8757 15.8225 19.2883 16.1264C19.4921 16.4206 19.4921 16.4206 19.4921 16.8171C19.3887 17.1661 19.343 17.3067 19.0546 17.5143C18.8041 17.6396 18.6647 17.6376 18.3863 17.6381C18.2451 17.6387 18.2451 17.6387 18.101 17.6394C17.9975 17.6393 17.894 17.6393 17.7873 17.6392C17.624 17.6398 17.624 17.6398 17.4574 17.6404C17.2204 17.6412 16.9834 17.6418 16.7464 17.6421C16.3713 17.6429 15.9962 17.6446 15.6211 17.6467C14.5544 17.6524 13.4877 17.6577 12.4209 17.6593C11.7689 17.6604 11.117 17.6637 10.465 17.6682C10.2164 17.6696 9.96785 17.6701 9.71928 17.6699C9.37128 17.6696 9.0234 17.6721 8.67542 17.6751C8.57278 17.6744 8.47014 17.6737 8.36439 17.6729C7.75552 17.6816 7.3858 17.7486 6.91399 18.1706C6.39634 18.7642 6.41411 19.2893 6.41972 20.0559C6.4189 20.1802 6.41808 20.3045 6.41724 20.4325C6.41502 20.8492 6.41591 21.2658 6.41678 21.6825C6.41607 21.9811 6.4147 22.2796 6.41335 22.5782C6.4108 23.2212 6.40985 23.8641 6.40997 24.5071C6.41016 25.4367 6.40793 26.3662 6.40512 27.2958C6.40063 28.8041 6.39808 30.3123 6.39675 31.8205C6.39546 33.2855 6.39325 34.7505 6.38981 36.2155C6.3896 36.3058 6.38939 36.3962 6.38917 36.4892C6.3881 36.9424 6.38701 37.3955 6.38592 37.8486C6.37686 41.607 6.37107 45.3653 6.36711 49.1237C7.23336 49.1237 8.09961 49.1237 8.99211 49.1237C8.98196 48.677 8.98196 48.677 8.9716 48.2214C8.96176 46.3953 9.54828 44.7825 10.8154 43.4507C12.2411 42.0232 13.9506 41.26 15.9784 41.2145C16.5145 41.2298 17.0054 41.3316 17.5234 41.4674C17.5437 41.3953 17.564 41.3231 17.5849 41.2487C18.1514 40.0664 19.2783 39.281 20.4765 38.8424C21.5919 38.5163 22.6377 38.5755 23.7577 38.8424C23.8029 38.7161 23.848 38.5898 23.8945 38.4596C23.9573 38.2952 24.0212 38.1312 24.0859 37.9674C24.1138 37.8967 24.1417 37.8259 24.1705 37.753C24.692 36.5808 25.5508 35.9088 26.6745 35.3728C27.7602 34.9566 29.0159 35.0071 30.0754 35.4762C31.1381 36.0198 31.9912 36.7831 32.3915 37.9341C32.4485 38.1265 32.5029 38.3198 32.5539 38.5139C32.5974 38.731 32.5974 38.731 32.7265 38.8424C32.8893 38.8138 33.051 38.7783 33.2118 38.7399C34.6199 38.4487 36.0025 38.6725 37.2497 39.403C37.9394 39.892 38.5648 40.4959 38.9609 41.2487C38.9609 41.3209 38.9609 41.3931 38.9609 41.4674C39.0985 41.4314 39.2361 41.3953 39.3779 41.3581C41.1049 40.9847 42.8395 41.4292 44.3344 42.3181C45.8949 43.338 47.0279 44.9615 47.4421 46.7781C47.5457 47.559 47.51 48.3372 47.4921 49.1237C48.3584 49.1237 49.2246 49.1237 50.1171 49.1237C50.1131 45.2752 50.107 41.4267 50.0977 37.5783C50.0966 37.124 50.0955 36.6698 50.0944 36.2155C50.0942 36.1251 50.094 36.0347 50.0938 35.9415C50.0904 34.4768 50.0885 33.0121 50.0872 31.5474C50.0859 30.0448 50.0829 28.5421 50.0783 27.0394C50.0756 26.112 50.0741 25.1847 50.0743 24.2573C50.0743 23.6215 50.0727 22.9858 50.0698 22.35C50.0682 21.9831 50.0676 21.6162 50.0684 21.2493C50.0691 20.8515 50.0671 20.4537 50.0645 20.0559C50.0653 19.94 50.0662 19.824 50.0671 19.7045C50.0594 19.0478 50.0067 18.6711 49.5702 18.1706C49.0106 17.6703 48.5266 17.6706 47.8123 17.6768C47.703 17.6761 47.5937 17.6753 47.4811 17.6745C47.121 17.6724 46.761 17.6733 46.4009 17.6741C46.1503 17.673 45.8997 17.6717 45.6491 17.6702C44.9901 17.6667 44.3311 17.6655 43.6721 17.6651C42.6165 17.6641 41.5609 17.6602 40.5053 17.655C40.1364 17.6536 39.7676 17.6537 39.3987 17.6539C39.1731 17.6532 38.9474 17.6524 38.7218 17.6516C38.619 17.6521 38.5163 17.6525 38.4104 17.653C38.316 17.6524 38.2215 17.6518 38.1242 17.6512C38.0424 17.6512 37.9606 17.6511 37.8763 17.6511C37.6123 17.6194 37.4378 17.5416 37.2109 17.4049C36.9832 17.1122 36.9926 16.9546 37.0058 16.5778C37.1015 16.2018 37.1015 16.2018 37.2958 16.0169C37.5675 15.8569 37.7128 15.8325 38.0251 15.832C38.1218 15.8311 38.2186 15.8302 38.3182 15.8292C38.4235 15.8299 38.5288 15.8306 38.6373 15.8312C38.7489 15.8307 38.8604 15.8301 38.9754 15.8295C39.3447 15.828 39.7139 15.829 40.0832 15.8301C40.3402 15.8299 40.5971 15.8296 40.8541 15.8292C41.3932 15.8287 41.9322 15.8294 42.4713 15.8309C43.1608 15.8328 43.8502 15.8317 44.5396 15.8297C45.0706 15.8286 45.6016 15.8289 46.1326 15.8298C46.3867 15.83 46.6408 15.8297 46.8949 15.829C47.2512 15.8281 47.6074 15.8294 47.9637 15.8312C48.0678 15.8306 48.172 15.8299 48.2794 15.8292C49.3354 15.8392 50.225 16.112 50.9921 16.8581C51.7381 17.781 51.8997 18.5755 51.8934 19.7403C51.8937 19.9287 51.8937 19.9287 51.894 20.1209C51.8943 20.4686 51.8936 20.8163 51.8925 21.164C51.8916 21.5393 51.8919 21.9146 51.892 22.2899C51.8922 22.9399 51.8915 23.5898 51.8902 24.2397C51.8885 25.1794 51.8879 26.1191 51.8876 27.0587C51.8871 28.5834 51.8857 30.108 51.8836 31.6326C51.8816 33.1135 51.8801 34.5944 51.8791 36.0753C51.8791 36.1666 51.879 36.2579 51.879 36.352C51.8787 36.8101 51.8784 37.2681 51.8781 37.7262C51.8759 41.5253 51.872 45.3245 51.8671 49.1237C51.9769 49.122 52.0867 49.1203 52.1998 49.1185C52.6085 49.1125 53.0172 49.1088 53.4259 49.1057C53.6025 49.104 53.7792 49.1018 53.9558 49.0989C54.2102 49.0949 54.4645 49.0931 54.719 49.0917C54.8368 49.0891 54.8368 49.0891 54.9569 49.0865C55.4436 49.0864 55.7419 49.1599 56.1327 49.4518C56.4338 49.7528 56.2841 50.627 56.29 51.0309C56.2975 51.2355 56.2975 51.2355 56.3051 51.4443C56.3162 52.3578 56.1945 53.013 55.5859 53.7174C54.926 54.2431 54.3665 54.39 53.5289 54.3887C53.4406 54.389 53.3523 54.3893 53.2613 54.3896C52.9628 54.3904 52.6643 54.3905 52.3658 54.3905C52.1507 54.391 51.9355 54.3915 51.7204 54.392C51.1271 54.3933 50.5339 54.3939 49.9407 54.3944C49.3016 54.3951 48.6626 54.3963 48.0235 54.3975C46.5522 54.4001 45.0809 54.4016 43.6095 54.403C43.1004 54.4035 42.5914 54.404 42.0823 54.4045C39.3757 54.4072 36.6692 54.4097 33.9626 54.411C33.3354 54.4113 32.7083 54.4117 32.0811 54.412C32.0032 54.412 31.9253 54.4121 31.845 54.4121C29.3191 54.4134 26.7932 54.4168 24.2673 54.4214C21.6706 54.4261 19.074 54.429 16.4773 54.4296C14.948 54.4299 13.4187 54.4311 11.8894 54.4349C10.6497 54.4379 9.41007 54.4391 8.17041 54.4379C7.53784 54.4373 6.9053 54.4377 6.27273 54.4404C5.6935 54.4428 5.11432 54.4427 4.53508 54.4407C4.32567 54.4404 4.11626 54.441 3.90685 54.4426C1.84295 54.4578 1.84295 54.4578 1.00774 53.8268C0.761215 53.5658 0.761215 53.5658 0.618088 53.3141C0.568318 53.2302 0.518548 53.1463 0.46727 53.0599C0.135361 52.4365 0.217525 51.7974 0.214767 51.0993C0.212512 50.957 0.210256 50.8146 0.207932 50.668C0.207368 50.5318 0.206804 50.3957 0.206223 50.2555C0.2052 50.1303 0.204178 50.0051 0.203125 49.8761C0.242111 49.5612 0.242111 49.5612 0.387909 49.3606C0.808661 49.0663 1.25376 49.1095 1.74388 49.113C1.867 49.1132 1.867 49.1132 1.9926 49.1135C2.25449 49.1141 2.51636 49.1155 2.77824 49.1169C2.95591 49.1174 3.13357 49.1179 3.31123 49.1184C3.74653 49.1196 4.18182 49.1214 4.61711 49.1237C4.61695 49.0593 4.61678 48.9948 4.61661 48.9285C4.60681 45.1089 4.59931 41.2892 4.59477 37.4696C4.59422 37.0109 4.59366 36.5521 4.59308 36.0934C4.59296 36.002 4.59285 35.9107 4.59273 35.8166C4.59083 34.3383 4.58738 32.8601 4.58336 31.3819C4.57926 29.8647 4.57684 28.3476 4.57595 26.8304C4.57535 25.8945 4.57345 24.9586 4.5699 24.0226C4.56758 23.3806 4.56689 22.7385 4.56745 22.0965C4.56773 21.7262 4.56707 21.356 4.56496 20.9857C4.56278 20.5836 4.56331 20.1817 4.5645 19.7797C4.56323 19.6634 4.56195 19.5471 4.56064 19.4273C4.56877 18.4133 4.89537 17.4959 5.60149 16.7487C6.51672 16.0007 7.3415 15.841 8.494 15.8402ZM26.099 37.9598C25.6544 38.6144 25.5523 39.1658 25.6171 39.9362C25.6397 40.0535 25.6622 40.1708 25.6855 40.2917C25.7343 40.65 25.6822 40.8253 25.5077 41.1393C25.1622 41.3697 25.0411 41.3917 24.6426 41.3235C24.2542 41.1964 23.9283 40.966 23.5843 40.7492C22.9003 40.343 22.18 40.2787 21.4117 40.4245C20.4051 40.685 19.6492 41.2761 19.0546 42.1237C18.9298 42.35 18.8167 42.577 18.7111 42.8128C18.6171 42.9987 18.6171 42.9987 18.3984 43.2174C17.8994 43.2531 17.4712 43.2146 16.9833 43.1081C15.6052 42.8165 14.2268 43.1109 13.039 43.8737C11.8555 44.7762 11.0617 45.9085 10.7421 47.3737C10.7345 47.6755 10.7318 47.9744 10.7353 48.276C10.7358 48.3575 10.7363 48.439 10.7368 48.523C10.7381 48.7232 10.74 48.9235 10.7421 49.1237C10.87 49.1278 10.9979 49.1319 11.1296 49.1361C11.299 49.1433 11.4683 49.1505 11.6376 49.1579C11.7217 49.1603 11.8058 49.1628 11.8925 49.1654C12.3921 49.1889 12.7459 49.2338 13.1484 49.5612C13.2779 49.9335 13.2859 50.1345 13.1594 50.5077C12.8962 50.8016 12.8463 50.8058 12.4708 50.8342C12.2733 50.8378 12.0758 50.8383 11.8783 50.8364C11.7705 50.8376 11.6627 50.8387 11.5516 50.8399C11.1947 50.8431 10.838 50.8424 10.4811 50.8417C10.2339 50.8431 9.98665 50.8448 9.73945 50.8467C9.08835 50.851 8.43728 50.8521 7.78617 50.8526C7.12195 50.8536 6.45774 50.8577 5.79353 50.8615C4.48994 50.8686 3.18635 50.8722 1.88274 50.8737C1.8809 51.0117 1.87907 51.1498 1.87718 51.292C1.87615 51.3696 1.87512 51.4473 1.87406 51.5272C1.88923 51.9144 2.01555 52.1862 2.25188 52.487C2.67432 52.8119 3.20252 52.7486 3.712 52.7471C3.79802 52.7473 3.88405 52.7475 3.97268 52.7477C4.26269 52.7482 4.5527 52.748 4.84271 52.7477C5.05203 52.7479 5.26135 52.7481 5.47067 52.7484C6.04726 52.7491 6.62384 52.7491 7.20043 52.749C7.82172 52.749 8.44301 52.7496 9.0643 52.7501C10.282 52.751 11.4997 52.7513 12.7174 52.7513C13.7068 52.7514 14.6962 52.7516 15.6856 52.752C18.0323 52.7528 20.3789 52.7534 22.7256 52.7534C22.8007 52.7534 22.8758 52.7534 22.9531 52.7534C23.3336 52.7534 23.7141 52.7534 24.0946 52.7533C24.1702 52.7533 24.2458 52.7533 24.3236 52.7533C24.4765 52.7533 24.6293 52.7533 24.7821 52.7533C27.1605 52.7533 29.5388 52.7541 31.9171 52.7556C34.5881 52.7573 37.2591 52.7582 39.93 52.7581C41.3447 52.7581 42.7593 52.7584 44.174 52.7595C45.3782 52.7605 46.5825 52.7608 47.7867 52.76C48.4015 52.7597 49.0162 52.7597 49.631 52.7606C50.1933 52.7615 50.7556 52.7613 51.318 52.7604C51.5218 52.7602 51.7257 52.7604 51.9296 52.761C52.2059 52.7618 52.4822 52.7612 52.7585 52.7603C52.8383 52.7608 52.9182 52.7614 53.0005 52.7619C53.5278 52.7582 53.9355 52.6938 54.3554 52.3639C54.6147 52.0268 54.6057 51.7072 54.6036 51.2954C54.6029 51.1562 54.6022 51.0171 54.6015 50.8737C54.519 50.8736 54.4365 50.8735 54.3515 50.8734C49.4661 50.867 44.5806 50.8589 39.6952 50.8487C39.1091 50.8474 38.523 50.8462 37.9369 50.845C37.8202 50.8447 37.7035 50.8445 37.5833 50.8443C35.6919 50.8404 33.8005 50.8377 31.9091 50.8354C29.9695 50.833 28.03 50.8294 26.0904 50.8246C24.8928 50.8217 23.6952 50.8198 22.4976 50.8191C21.6772 50.8185 20.8569 50.8167 20.0366 50.814C19.5627 50.8125 19.0889 50.8115 18.615 50.8119C18.1816 50.8123 17.7483 50.8111 17.315 50.8088C17.1578 50.8082 17.0005 50.8082 16.8433 50.8088C16.6305 50.8095 16.4176 50.808 16.2048 50.8064C16.0863 50.8062 15.9678 50.806 15.8457 50.8058C15.5546 50.7643 15.5546 50.7643 15.352 50.6216C15.1433 50.3134 15.1944 50.0303 15.2265 49.6706C15.4452 49.3424 15.4452 49.3424 15.6451 49.2682C15.9011 49.2304 16.1441 49.2187 16.4029 49.2179C16.5078 49.2173 16.6127 49.2167 16.7207 49.2161C16.8356 49.216 16.9505 49.2159 17.0689 49.2158C17.1912 49.2152 17.3135 49.2147 17.4395 49.2141C17.8508 49.2124 18.2621 49.2115 18.6734 49.2106C18.9676 49.2096 19.2619 49.2085 19.5561 49.2073C20.1904 49.205 20.8246 49.203 21.4588 49.2012C22.3758 49.1988 23.2928 49.1957 24.2098 49.1925C25.6976 49.1873 27.1853 49.1825 28.673 49.1781C30.1183 49.1738 31.5636 49.1693 33.0088 49.1644C33.1425 49.164 33.1425 49.164 33.2788 49.1635C33.7256 49.162 34.1725 49.1605 34.6193 49.159C38.3269 49.1465 42.0345 49.1349 45.7421 49.1237C45.7469 48.8465 45.7505 48.5695 45.7532 48.2923C45.7547 48.2146 45.7562 48.137 45.7577 48.057C45.7678 46.7058 45.154 45.4775 44.2382 44.5026C43.1484 43.4751 41.8101 42.9678 40.3199 42.9803C40.0385 42.9998 39.7765 43.0484 39.5009 43.1081C39.0109 43.2142 38.587 43.2614 38.0859 43.2174C37.7844 42.9845 37.6632 42.7135 37.5116 42.3698C37.0361 41.4004 36.3529 40.8727 35.3515 40.4831C34.3727 40.2502 33.6318 40.3956 32.7265 40.8112C32.5695 40.9106 32.4143 41.0129 32.2616 41.1188C31.9357 41.335 31.8512 41.3581 31.4345 41.3717C31.0859 41.2487 31.0859 41.2487 30.8671 41.0163C30.7259 40.6103 30.7898 40.3576 30.8671 39.9362C30.9651 39.1263 30.7754 38.534 30.3202 37.8581C29.759 37.2096 29.0966 36.9208 28.2558 36.8258C27.3505 36.8703 26.6522 37.2527 26.099 37.9598Z" fill="#0499FC"/>
<path d="M28.679 1.87347C28.9718 2.05024 29.1874 2.27833 29.4172 2.52972C29.4825 2.59816 29.5477 2.6666 29.6149 2.73712C30.6985 3.89933 31.609 5.19967 32.3977 6.57659C32.5051 6.7608 32.5051 6.7608 32.6148 6.94872C33.9648 9.32595 34.7911 12.074 35.1321 14.7797C35.1425 14.859 35.1529 14.9382 35.1636 15.0199C35.2536 15.7918 35.2619 16.5633 35.2619 17.3395C35.262 17.4941 35.2624 17.6486 35.2632 17.8031C35.2677 18.7208 35.2282 19.602 35.0706 20.5082C35.0013 20.9496 34.9748 21.2526 35.1928 21.6605C35.4471 21.9453 35.7185 22.1864 36.0071 22.436C36.1706 22.6262 36.3301 22.8201 36.4856 23.017C36.7983 23.4038 37.1152 23.7858 37.439 24.1633C37.8812 24.6799 38.3161 25.2017 38.7346 25.7377C38.8101 25.834 38.8855 25.9303 38.9632 26.0295C39.5819 27.0157 39.6895 27.9196 39.6795 29.0618C39.678 29.3077 39.6817 29.5531 39.6859 29.7989C39.686 29.9566 39.6858 30.1144 39.6852 30.2721C39.6854 30.4842 39.6854 30.4842 39.6855 30.7005C39.5979 31.1779 39.4611 31.3417 39.0696 31.6235C38.552 31.7091 38.2383 31.5702 37.7917 31.3146C37.6733 31.2478 37.555 31.181 37.433 31.1121C37.3063 31.0388 37.1796 30.9654 37.053 30.892C36.9222 30.8176 36.7914 30.7433 36.6606 30.6691C36.3923 30.5169 36.1246 30.3639 35.8572 30.2102C35.4787 29.993 35.0986 29.7787 34.7181 29.565C34.2862 29.3224 33.8543 29.0797 33.4231 28.8357C33.3382 28.7877 33.2533 28.7397 33.1659 28.6903C32.9787 28.5809 32.7969 28.4625 32.6165 28.3422C32.2946 28.6381 32.1016 28.911 31.9602 29.3266C31.982 29.9175 32.1634 30.4913 32.3283 31.0558C32.6951 32.3211 32.6951 32.3211 32.6165 32.8266C32.3333 33.1827 32.1689 33.3539 31.7168 33.4429C31.5837 33.4433 31.4505 33.4438 31.3134 33.4442C31.2025 33.4457 31.2025 33.4457 31.0895 33.4471C30.8465 33.4495 30.6036 33.448 30.3606 33.4461C30.191 33.4465 30.0215 33.447 29.8519 33.4477C29.497 33.4485 29.1422 33.4473 28.7873 33.4448C28.333 33.4416 27.8789 33.4434 27.4247 33.4467C27.0747 33.4487 26.7247 33.4481 26.3747 33.4466C26.2072 33.4463 26.0398 33.4467 25.8723 33.448C25.638 33.4494 25.4039 33.4473 25.1696 33.4442C25.0364 33.4438 24.9033 33.4434 24.7661 33.4429C24.3152 33.3541 24.1504 33.1802 23.8665 32.8266C23.8266 32.5736 23.8266 32.5736 23.8686 32.316C23.8909 32.1734 23.8909 32.1734 23.9137 32.0279C24.0353 31.4505 24.189 30.8843 24.3529 30.3176C24.5014 29.7865 24.5014 29.7865 24.4565 29.2467C24.2676 28.9393 24.0729 28.6381 23.8665 28.3422C23.7661 28.4015 23.7661 28.4015 23.6637 28.462C22.1507 29.3538 20.6273 30.2201 19.0803 31.0517C18.8529 31.1763 18.6292 31.3059 18.4058 31.4376C18.026 31.6476 17.8392 31.7068 17.4133 31.6235C17.0425 31.3319 16.8837 31.1702 16.7974 30.7005C16.7975 30.5591 16.7976 30.4178 16.7977 30.2721C16.7974 30.1953 16.7971 30.1186 16.7969 30.0395C16.797 29.8774 16.7984 29.7154 16.8012 29.5533C16.8049 29.3086 16.8034 29.0644 16.8013 28.8197C16.8027 27.3945 17.1452 26.4707 18.0696 25.3891C18.1638 25.2774 18.2579 25.1656 18.352 25.0537C18.5577 24.8097 18.7642 24.5665 18.9711 24.3235C19.3215 23.9112 19.6643 23.4932 19.9995 23.0683C20.192 22.841 20.3769 22.6474 20.5933 22.4462C21.0817 21.9746 21.4434 21.6086 21.4876 20.909C21.4537 20.5669 21.3927 20.2307 21.3337 19.8921C21.2056 19.1297 21.2049 18.3675 21.2073 17.5961C21.2074 17.523 21.2076 17.4499 21.2077 17.3746C21.2337 11.862 23.2806 6.66422 27.0383 2.63909C27.1046 2.5607 27.1709 2.48231 27.2391 2.40154C27.3326 2.2958 27.3326 2.2958 27.428 2.18792C27.506 2.09614 27.506 2.09614 27.5856 2.0025C27.942 1.79187 28.2855 1.78491 28.679 1.87347ZM27.9578 4.22247C26.7372 5.59808 25.646 7.15911 24.9602 8.87347C27.1258 8.87347 29.2915 8.87347 31.5227 8.87347C30.7484 7.3249 29.9946 5.9819 28.8977 4.66937C28.8208 4.57712 28.8208 4.57712 28.7423 4.48301C28.617 4.33765 28.4845 4.1986 28.3508 4.06097C28.1192 4.03619 28.1192 4.03619 27.9578 4.22247ZM24.1946 10.6235C23.8488 11.6609 23.5454 12.6119 23.3469 13.6723C23.3242 13.7871 23.3015 13.9018 23.2781 14.0201C22.3724 18.6949 23.3301 23.3957 25.5071 27.5766C25.5435 27.6749 25.5799 27.7733 25.6174 27.8746C25.8056 28.1393 25.8056 28.1393 26.0505 28.1706C26.3419 28.1871 26.6282 28.1848 26.92 28.1769C27.0263 28.1761 27.1327 28.1753 27.2423 28.1745C27.5823 28.1715 27.922 28.1646 28.262 28.1576C28.4923 28.1549 28.7227 28.1524 28.953 28.1502C29.518 28.1441 30.0828 28.1347 30.6477 28.1235C31.5023 26.566 31.5023 26.566 32.2063 24.9379C32.2409 24.8451 32.2756 24.7523 32.3112 24.6567C33.9325 20.1413 33.976 15.124 32.2883 10.6235C29.6174 10.6235 26.9465 10.6235 24.1946 10.6235ZM21.8977 23.5297C21.8406 23.6001 21.7835 23.6704 21.7247 23.7429C21.257 24.3171 20.7847 24.8865 20.3049 25.4506C19.9378 25.8838 19.5713 26.3173 19.2112 26.7563C19.1434 26.8386 19.0756 26.921 19.0057 27.0058C18.6476 27.5155 18.5903 27.9222 18.6028 28.5405C18.6073 28.766 18.6119 28.9916 18.6165 29.2172C19.5314 28.774 20.4144 28.2921 21.2893 27.7748C21.404 27.7075 21.5187 27.6402 21.6369 27.5708C22.1262 27.2833 22.6144 26.9941 23.1008 26.7016C22.8952 25.9836 22.6687 25.2721 22.4377 24.5619C22.4096 24.4734 22.3815 24.3848 22.3525 24.2935C22.2801 24.0732 22.199 23.8558 22.1165 23.6391C22.0443 23.603 21.9721 23.5669 21.8977 23.5297ZM34.4758 23.5297C34.4302 23.652 34.3845 23.7742 34.3374 23.9001C34.2082 24.2452 34.0768 24.5894 33.9443 24.9332C33.8754 25.1148 33.8064 25.2964 33.7376 25.478C33.7016 25.5704 33.6656 25.6628 33.6286 25.758C33.5952 25.8468 33.5618 25.9355 33.5273 26.027C33.4968 26.1067 33.4662 26.1865 33.4347 26.2687C33.3567 26.504 33.3567 26.504 33.4915 26.811C33.7626 26.9983 33.7626 26.9983 34.102 27.175C34.1643 27.2091 34.2266 27.2433 34.2907 27.2784C34.4909 27.3879 34.6918 27.496 34.8928 27.6039C35.0886 27.7102 35.2842 27.8168 35.4798 27.9235C35.6093 27.994 35.7388 28.0645 35.8683 28.1347C36.4244 28.4373 36.9699 28.7558 37.5138 29.0795C37.7264 29.2262 37.7264 29.2262 37.8665 29.2172C37.9241 28.1668 37.9007 27.4808 37.2153 26.6666C37.0489 26.481 36.8805 26.2971 36.7103 26.115C36.1786 25.5379 35.6944 24.9195 35.2077 24.3043C35.1286 24.2044 35.0495 24.1044 34.968 24.0014C34.897 23.9107 34.8259 23.8201 34.7527 23.7267C34.6974 23.6617 34.6422 23.5967 34.5852 23.5297C34.5491 23.5297 34.513 23.5297 34.4758 23.5297ZM26.2727 29.8735C26.1283 30.451 25.984 31.0285 25.8352 31.6235C27.4233 31.6235 29.0115 31.6235 30.6477 31.6235C30.5033 31.046 30.359 30.4685 30.2102 29.8735C28.9108 29.8735 27.6115 29.8735 26.2727 29.8735Z" fill="#0499FC"/>
<path d="M30.1008 13.6861C30.9513 14.2786 31.5523 15.0605 31.7415 16.0924C31.8361 17.2993 31.6557 18.2038 30.8763 19.1463C30.1621 19.8565 29.2696 20.2393 28.2688 20.2897C27.2717 20.2654 26.325 19.8557 25.6165 19.1549C24.8499 18.2193 24.6259 17.2901 24.7415 16.0924C24.9498 15.0659 25.5301 14.2162 26.4064 13.634C27.5495 13.0401 28.9845 13.028 30.1008 13.6861ZM26.7854 15.7164C26.4667 16.1768 26.4076 16.6394 26.4915 17.1861C26.6892 17.697 26.9733 18.0649 27.4485 18.3414C27.9474 18.5519 28.383 18.5482 28.8977 18.3893C29.3313 18.1779 29.6019 17.9315 29.8752 17.5348C30.0641 16.9682 30.0674 16.5264 29.8684 15.9625C29.5852 15.5376 29.2506 15.2298 28.7883 14.9986C27.9041 14.9016 27.3958 15.04 26.7854 15.7164Z" fill="#0499FC"/>
</g>
<defs>
<clipPath id="clip0_2004_711">
<rect width="56" height="56" fill="white" transform="translate(0.242188 0.123535)"/>
</clipPath>
</defs>
</svg>
