<svg width="56" height="57" viewBox="0 0 56 57" fill="none" xmlns="http://www.w3.org/2000/svg">
<g clip-path="url(#clip0_420_261)">
<path fill-rule="evenodd" clip-rule="evenodd" d="M51.1823 19.163L48.1366 17.9907C47.7067 16.3634 47.0611 14.8063 46.2127 13.3498L47.5383 10.3654C47.6852 10.0346 47.6134 9.64753 47.3573 9.39148L43.3493 5.38366C43.0933 5.12783 42.7065 5.05597 42.3755 5.20275L39.39 6.5287C37.9333 5.68028 36.3766 5.03497 34.7505 4.60523L33.5779 1.5587C33.448 1.22095 33.1234 0.998047 32.7613 0.998047H27.0935C26.7315 0.998047 26.407 1.22095 26.2769 1.5587L25.1042 4.60523C23.4781 5.03497 21.9214 5.68028 20.4647 6.5287L17.4795 5.20275C17.1486 5.05564 16.7616 5.12772 16.5056 5.38366L12.4976 9.39159C12.2417 9.64764 12.1698 10.0347 12.3167 10.3655L13.6426 13.3505C12.7942 14.8074 12.1487 16.3643 11.719 17.9905L8.67269 19.163C8.33494 19.293 8.11203 19.6176 8.11203 19.9796V25.6476C8.11203 26.0096 8.33494 26.3341 8.67269 26.4642L11.7185 27.6364C12.1486 29.2638 12.7941 30.821 13.6423 32.2774L12.3167 35.2617C12.1698 35.5925 12.2417 35.9796 12.4978 36.2356L14.5594 38.2971L10.6268 40.574L10.1809 39.786V39.7859C9.63475 38.8215 8.40582 38.4809 7.44124 39.0267L5.27791 40.2509C4.81153 40.5147 4.47564 40.9455 4.33203 41.4638C4.18843 41.9822 4.2546 42.5243 4.51852 42.9906L10.8787 54.2289C11.1426 54.695 11.5734 55.0308 12.0916 55.1745C12.2709 55.2242 12.4529 55.2488 12.6336 55.2488C12.9757 55.2488 13.3134 55.1608 13.6183 54.9881L15.7815 53.7638C16.2479 53.5 16.5838 53.0692 16.7274 52.5509C16.871 52.0325 16.8048 51.4904 16.5409 51.0242L15.9783 50.0301L17.0537 49.4092L26.8529 52.0349C27.4148 52.1855 27.9735 52.2604 28.5234 52.2604C29.6357 52.2603 30.7107 51.9539 31.6932 51.349L45.6858 42.7329C47.0455 41.896 47.4805 39.7925 46.5986 38.3199C46.4897 38.1382 46.295 37.865 45.9903 37.6026L47.3574 36.2355C47.6134 35.9795 47.6852 35.5924 47.5383 35.2616L46.2124 32.2761C47.0606 30.8196 47.7059 29.2628 48.1357 27.6367L51.1823 26.464C51.52 26.3341 51.7429 26.0095 51.7429 25.6475V19.9796C51.7429 19.6176 51.52 19.293 51.1823 19.163ZM15.041 52.0834C15.0301 52.1225 14.9999 52.1953 14.9198 52.2407L12.7563 53.465C12.6764 53.5102 12.5985 53.499 12.5591 53.488C12.5198 53.477 12.4471 53.4469 12.4017 53.3668L6.04157 42.1286C5.99618 42.0485 6.00766 41.9706 6.0186 41.9312C6.02953 41.892 6.05972 41.8193 6.13989 41.7739L8.30322 40.5496C8.34238 40.5274 8.3858 40.5169 8.42868 40.5169C8.52022 40.5169 8.61057 40.5645 8.65793 40.6479L15.0181 51.8862C15.0635 51.9664 15.0519 52.0441 15.041 52.0834ZM44.7685 41.2426L30.7758 49.8587C29.7127 50.5131 28.5453 50.6767 27.3059 50.3444L17.1566 47.6249C16.9326 47.5648 16.6936 47.5962 16.4927 47.7124L15.1164 48.507L11.4887 42.097L17.0733 38.8636C18.3208 38.1414 19.6668 37.5351 21.0548 37.9851C21.5205 38.1361 22.0593 38.3309 22.6831 38.5564C24.479 39.2058 26.7099 40.0124 29.0324 40.4387C29.734 40.6908 30.1263 41.3668 29.9482 42.0316C29.7589 42.7385 29.23 43.0465 28.3775 42.9497C27.2532 42.7179 26.1809 42.412 25.0466 42.088C24.5044 41.9332 23.9438 41.773 23.3669 41.6185C22.9003 41.4938 22.4205 41.7705 22.2952 42.2372C22.1701 42.704 22.4473 43.1838 22.914 43.3089C23.477 43.4597 24.0307 43.6179 24.566 43.7708C25.7467 44.108 26.8617 44.4264 28.0662 44.6726C28.0717 44.6737 28.0771 44.6741 28.0826 44.6751C28.0887 44.6762 28.0946 44.6779 28.1009 44.679L29.0602 44.8351C30.5398 45.0717 31.8531 44.8407 33.0761 44.1284L40.7866 39.6374C42.8727 38.4225 44.5243 38.2622 45.0974 39.2189C45.4845 39.8657 45.3156 40.9058 44.7685 41.2426ZM30.3133 39.136C30.5872 38.9881 30.7732 38.6986 30.7732 38.3657V37.9899C31.6244 37.8338 32.3668 37.4496 32.8389 36.9038C33.3059 36.3637 33.5054 35.6882 33.4156 34.9499C33.2365 33.475 32.1033 32.5559 30.0475 32.2184C28.4261 31.9523 28.3966 31.3451 28.3856 31.1165C28.3438 30.2555 29.2752 30.0001 29.4625 29.9577C29.5954 29.9276 29.7336 29.9098 29.8736 29.9062C29.8964 29.9069 29.9191 29.9067 29.9413 29.9054C30.5774 29.9092 31.232 30.2047 31.5358 30.9283C31.723 31.374 32.2363 31.5833 32.6813 31.3963C33.1269 31.2093 33.3364 30.6964 33.1493 30.2508C32.6657 29.0992 31.7442 28.4782 30.7732 28.2553V27.8579C30.7732 27.3747 30.3814 26.9829 29.8982 26.9829C29.415 26.9829 29.0232 27.3747 29.0232 27.8579V28.2632C27.5261 28.6244 26.5695 29.7991 26.6376 31.2013C26.6874 32.2271 27.2703 33.5358 29.764 33.9452C31.3618 34.2075 31.6263 34.7325 31.6784 35.1607C31.7085 35.4091 31.6582 35.5935 31.5152 35.7588C31.2399 36.077 30.6253 36.3011 29.9858 36.3163C29.9634 36.317 29.941 36.3167 29.9182 36.3171C29.9095 36.3169 29.9005 36.317 29.8919 36.3169C29.1711 36.3077 28.2992 35.9967 28.0839 35.1333C27.9671 34.6644 27.492 34.3796 27.0232 34.496C26.5543 34.6129 26.2689 35.0878 26.3859 35.5567C26.6959 36.8 27.7053 37.696 29.0233 37.9752V38.3655C29.0233 38.4707 29.0429 38.5712 29.0769 38.6646C26.99 38.2517 24.9409 37.5116 23.2781 36.9104C22.666 36.6892 22.088 36.4802 21.5947 36.3203C21.241 36.2055 20.8938 36.1357 20.5534 36.102C20.1595 34.2323 20.5042 32.2765 21.569 30.4068C22.6752 28.4646 24.4232 26.2264 27.0513 23.386H32.8037C35.4316 26.2264 37.1798 28.4646 38.286 30.4067C40.0316 33.4719 39.8086 36.8267 37.6985 39.4107L32.1953 42.616C31.9597 42.7532 31.7213 42.8646 31.4776 42.9509C31.5408 42.8035 31.5946 42.6478 31.6385 42.4842C31.984 41.1951 31.4175 39.8603 30.3133 39.136ZM31.7916 18.5673H28.0635L25.8075 16.3113C25.5338 16.0378 25.5338 15.5925 25.8075 15.319C26.0389 15.0873 26.4075 15.0478 26.6843 15.2255C27.1556 15.5276 27.7223 15.5782 28.2397 15.3641C28.7572 15.1497 29.1224 14.713 29.2415 14.1661C29.3116 13.8451 29.6002 13.6123 29.9275 13.6123C30.255 13.6123 30.5435 13.8452 30.6134 14.166C30.7329 14.7131 31.0981 15.1498 31.6152 15.364C32.1323 15.5783 32.6994 15.5279 33.171 15.2252C33.4474 15.0478 33.8161 15.0872 34.0476 15.3188C34.3212 15.5924 34.3212 16.0377 34.0476 16.3112L31.7916 18.5673ZM26.5049 20.3173H33.3502C33.7138 20.3173 34.0096 20.6131 34.0096 20.9767C34.0096 21.3403 33.7138 21.636 33.3502 21.636H26.5049C26.1413 21.636 25.8454 21.3402 25.8454 20.9766C25.8454 20.613 26.1413 20.3173 26.5049 20.3173ZM39.7331 29.4151C38.6586 27.5597 37.0613 25.4752 34.7586 22.9299C35.3645 22.4919 35.7597 21.7798 35.7597 20.9768C35.7597 19.923 35.0793 19.0255 34.1349 18.6992L35.2852 17.5489C35.7469 17.087 36.0013 16.4712 36.0013 15.8152C36.0013 15.159 35.7469 14.5433 35.285 14.0814C34.4973 13.2939 33.2573 13.1418 32.3025 13.7053C32.0261 12.632 31.0415 11.8622 29.9274 11.8622C28.814 11.8624 27.8298 12.6315 27.5526 13.7055C26.5985 13.142 25.3578 13.2937 24.5699 14.0815C24.1081 14.5434 23.8537 15.1592 23.8537 15.8153C23.8537 16.4713 24.1081 17.0871 24.57 17.549L25.7203 18.6993C24.7759 19.0256 24.0953 19.923 24.0953 20.9768C24.0953 21.78 24.4906 22.492 25.0964 22.93C22.7939 25.4753 21.1966 27.5597 20.1221 29.4152C18.8154 27.4741 18.1049 25.1756 18.1049 22.8138C18.1049 16.2946 23.4085 10.991 29.9275 10.991C36.4466 10.991 41.7502 16.2946 41.7502 22.8138C41.7502 25.1756 41.0397 27.4741 39.7331 29.4151ZM49.9929 25.0467L47.0834 26.1665C46.8142 26.2701 46.6133 26.4999 46.5466 26.7805C46.1281 28.5392 45.4338 30.2138 44.4833 31.7575C44.332 32.0031 44.3117 32.3076 44.4287 32.5713L45.6951 35.4227L44.2526 36.8652C43.3667 36.7647 42.195 36.9492 40.6683 37.7123C41.4213 35.652 41.4006 33.4036 40.5885 31.2137C42.4695 28.8276 43.5002 25.8657 43.5002 22.8135C43.5002 15.3295 37.4115 9.24077 29.9275 9.24077C22.4435 9.24077 16.3549 15.3295 16.3549 22.8135C16.3549 25.8645 17.3847 28.8253 19.2646 31.2111C18.6463 32.8732 18.4855 34.5734 18.7927 36.233C17.8533 36.457 16.9833 36.8934 16.1964 37.3492L16.1266 37.3895L14.1599 35.423L15.4259 32.5725C15.543 32.3088 15.5226 32.0043 15.3713 31.7586C14.4209 30.2155 13.7266 28.5404 13.3076 26.7803C13.2408 26.4996 13.0399 26.2699 12.7708 26.1663L9.86203 25.0468V20.5804L12.7713 19.4607C13.0406 19.3571 13.2414 19.1273 13.3081 18.8466C13.7266 17.0879 14.4209 15.4132 15.3716 13.8693C15.5228 13.6236 15.5432 13.3191 15.4262 13.0554L14.1599 10.2044L17.3181 7.04616L20.1695 8.3125C20.433 8.42953 20.7377 8.4093 20.9834 8.25792C22.5273 7.30734 24.2018 6.61303 25.9603 6.19456C26.2409 6.12784 26.4707 5.92703 26.5743 5.65775L27.6943 2.74816H32.1605L33.2804 5.65775C33.384 5.92703 33.6138 6.12784 33.8945 6.19456C35.653 6.61303 37.3274 7.30734 38.8713 8.25792C39.1172 8.4093 39.4217 8.42953 39.6852 8.3125L42.5366 7.04616L45.6949 10.2042L44.4288 13.0548C44.3117 13.3185 44.3321 13.6231 44.4835 13.8687C45.4341 15.412 46.1285 17.0869 46.5473 18.8468C46.614 19.1275 46.8148 19.3573 47.0841 19.4609L49.9927 20.5804V25.0467H49.9929ZM8.83686 42.5541C8.89855 42.9762 8.60641 43.3684 8.18433 43.4301C7.76225 43.4918 7.37003 43.1996 7.30835 42.7775C7.24666 42.3555 7.5388 41.9632 7.96088 41.9016C8.38296 41.8398 8.77518 42.1319 8.83686 42.5541Z" fill="white"/>
<path fill-rule="evenodd" clip-rule="evenodd" d="M51.1823 19.163L48.1366 17.9907C47.7067 16.3634 47.0611 14.8063 46.2127 13.3498L47.5383 10.3654C47.6852 10.0346 47.6134 9.64753 47.3573 9.39148L43.3493 5.38366C43.0933 5.12783 42.7065 5.05597 42.3755 5.20275L39.39 6.5287C37.9333 5.68028 36.3766 5.03497 34.7505 4.60523L33.5779 1.5587C33.448 1.22095 33.1234 0.998047 32.7613 0.998047H27.0935C26.7315 0.998047 26.407 1.22095 26.2769 1.5587L25.1042 4.60523C23.4781 5.03497 21.9214 5.68028 20.4647 6.5287L17.4795 5.20275C17.1486 5.05564 16.7616 5.12772 16.5056 5.38366L12.4976 9.39159C12.2417 9.64764 12.1698 10.0347 12.3167 10.3655L13.6426 13.3505C12.7942 14.8074 12.1487 16.3643 11.719 17.9905L8.67269 19.163C8.33494 19.293 8.11203 19.6176 8.11203 19.9796V25.6476C8.11203 26.0096 8.33494 26.3341 8.67269 26.4642L11.7185 27.6364C12.1486 29.2638 12.7941 30.821 13.6423 32.2774L12.3167 35.2617C12.1698 35.5925 12.2417 35.9796 12.4978 36.2356L14.5594 38.2971L10.6268 40.574L10.1809 39.786V39.7859C9.63475 38.8215 8.40582 38.4809 7.44124 39.0267L5.27791 40.2509C4.81153 40.5147 4.47564 40.9455 4.33203 41.4638C4.18843 41.9822 4.2546 42.5243 4.51852 42.9906L10.8787 54.2289C11.1426 54.695 11.5734 55.0308 12.0916 55.1745C12.2709 55.2242 12.4529 55.2488 12.6336 55.2488C12.9757 55.2488 13.3134 55.1608 13.6183 54.9881L15.7815 53.7638C16.2479 53.5 16.5838 53.0692 16.7274 52.5509C16.871 52.0325 16.8048 51.4904 16.5409 51.0242L15.9783 50.0301L17.0537 49.4092L26.8529 52.0349C27.4148 52.1855 27.9735 52.2604 28.5234 52.2604C29.6357 52.2603 30.7107 51.9539 31.6932 51.349L45.6858 42.7329C47.0455 41.896 47.4805 39.7925 46.5986 38.3199C46.4897 38.1382 46.295 37.865 45.9903 37.6026L47.3574 36.2355C47.6134 35.9795 47.6852 35.5924 47.5383 35.2616L46.2124 32.2761C47.0606 30.8196 47.7059 29.2628 48.1357 27.6367L51.1823 26.464C51.52 26.3341 51.7429 26.0095 51.7429 25.6475V19.9796C51.7429 19.6176 51.52 19.293 51.1823 19.163ZM15.041 52.0834C15.0301 52.1225 14.9999 52.1953 14.9198 52.2407L12.7563 53.465C12.6764 53.5102 12.5985 53.499 12.5591 53.488C12.5198 53.477 12.4471 53.4469 12.4017 53.3668L6.04157 42.1286C5.99618 42.0485 6.00766 41.9706 6.0186 41.9312C6.02953 41.892 6.05972 41.8193 6.13989 41.7739L8.30322 40.5496C8.34238 40.5274 8.3858 40.5169 8.42868 40.5169C8.52022 40.5169 8.61057 40.5645 8.65793 40.6479L15.0181 51.8862C15.0635 51.9664 15.0519 52.0441 15.041 52.0834ZM44.7685 41.2426L30.7758 49.8587C29.7127 50.5131 28.5453 50.6767 27.3059 50.3444L17.1566 47.6249C16.9326 47.5648 16.6936 47.5962 16.4927 47.7124L15.1164 48.507L11.4887 42.097L17.0733 38.8636C18.3208 38.1414 19.6668 37.5351 21.0548 37.9851C21.5205 38.1361 22.0593 38.3309 22.6831 38.5564C24.479 39.2058 26.7099 40.0124 29.0324 40.4387C29.734 40.6908 30.1263 41.3668 29.9482 42.0316C29.7589 42.7385 29.23 43.0465 28.3775 42.9497C27.2532 42.7179 26.1809 42.412 25.0466 42.088C24.5044 41.9332 23.9438 41.773 23.3669 41.6185C22.9003 41.4938 22.4205 41.7705 22.2952 42.2372C22.1701 42.704 22.4473 43.1838 22.914 43.3089C23.477 43.4597 24.0307 43.6179 24.566 43.7708C25.7467 44.108 26.8617 44.4264 28.0662 44.6726C28.0717 44.6737 28.0771 44.6741 28.0826 44.6751C28.0887 44.6762 28.0946 44.6779 28.1009 44.679L29.0602 44.8351C30.5398 45.0717 31.8531 44.8407 33.0761 44.1284L40.7866 39.6374C42.8727 38.4225 44.5243 38.2622 45.0974 39.2189C45.4845 39.8657 45.3156 40.9058 44.7685 41.2426ZM30.3133 39.136C30.5872 38.9881 30.7732 38.6986 30.7732 38.3657V37.9899C31.6244 37.8338 32.3668 37.4496 32.8389 36.9038C33.3059 36.3637 33.5054 35.6882 33.4156 34.9499C33.2365 33.475 32.1033 32.5559 30.0475 32.2184C28.4261 31.9523 28.3966 31.3451 28.3856 31.1165C28.3438 30.2555 29.2752 30.0001 29.4625 29.9577C29.5954 29.9276 29.7336 29.9098 29.8736 29.9062C29.8964 29.9069 29.9191 29.9067 29.9413 29.9054C30.5774 29.9092 31.232 30.2047 31.5358 30.9283C31.723 31.374 32.2363 31.5833 32.6813 31.3963C33.1269 31.2093 33.3364 30.6964 33.1493 30.2508C32.6657 29.0992 31.7442 28.4782 30.7732 28.2553V27.8579C30.7732 27.3747 30.3814 26.9829 29.8982 26.9829C29.415 26.9829 29.0232 27.3747 29.0232 27.8579V28.2632C27.5261 28.6244 26.5695 29.7991 26.6376 31.2013C26.6874 32.2271 27.2703 33.5358 29.764 33.9452C31.3618 34.2075 31.6263 34.7325 31.6784 35.1607C31.7085 35.4091 31.6582 35.5935 31.5152 35.7588C31.2399 36.077 30.6253 36.3011 29.9858 36.3163C29.9634 36.317 29.941 36.3167 29.9182 36.3171C29.9095 36.3169 29.9005 36.317 29.8919 36.3169C29.1711 36.3077 28.2992 35.9967 28.0839 35.1333C27.9671 34.6644 27.492 34.3796 27.0232 34.496C26.5543 34.6129 26.2689 35.0878 26.3859 35.5567C26.6959 36.8 27.7053 37.696 29.0233 37.9752V38.3655C29.0233 38.4707 29.0429 38.5712 29.0769 38.6646C26.99 38.2517 24.9409 37.5116 23.2781 36.9104C22.666 36.6892 22.088 36.4802 21.5947 36.3203C21.241 36.2055 20.8938 36.1357 20.5534 36.102C20.1595 34.2323 20.5042 32.2765 21.569 30.4068C22.6752 28.4646 24.4232 26.2264 27.0513 23.386H32.8037C35.4316 26.2264 37.1798 28.4646 38.286 30.4067C40.0316 33.4719 39.8086 36.8267 37.6985 39.4107L32.1953 42.616C31.9597 42.7532 31.7213 42.8646 31.4776 42.9509C31.5408 42.8035 31.5946 42.6478 31.6385 42.4842C31.984 41.1951 31.4175 39.8603 30.3133 39.136ZM31.7916 18.5673H28.0635L25.8075 16.3113C25.5338 16.0378 25.5338 15.5925 25.8075 15.319C26.0389 15.0873 26.4075 15.0478 26.6843 15.2255C27.1556 15.5276 27.7223 15.5782 28.2397 15.3641C28.7572 15.1497 29.1224 14.713 29.2415 14.1661C29.3116 13.8451 29.6002 13.6123 29.9275 13.6123C30.255 13.6123 30.5435 13.8452 30.6134 14.166C30.7329 14.7131 31.0981 15.1498 31.6152 15.364C32.1323 15.5783 32.6994 15.5279 33.171 15.2252C33.4474 15.0478 33.8161 15.0872 34.0476 15.3188C34.3212 15.5924 34.3212 16.0377 34.0476 16.3112L31.7916 18.5673ZM26.5049 20.3173H33.3502C33.7138 20.3173 34.0096 20.6131 34.0096 20.9767C34.0096 21.3403 33.7138 21.636 33.3502 21.636H26.5049C26.1413 21.636 25.8454 21.3402 25.8454 20.9766C25.8454 20.613 26.1413 20.3173 26.5049 20.3173ZM39.7331 29.4151C38.6586 27.5597 37.0613 25.4752 34.7586 22.9299C35.3645 22.4919 35.7597 21.7798 35.7597 20.9768C35.7597 19.923 35.0793 19.0255 34.1349 18.6992L35.2852 17.5489C35.7469 17.087 36.0013 16.4712 36.0013 15.8152C36.0013 15.159 35.7469 14.5433 35.285 14.0814C34.4973 13.2939 33.2573 13.1418 32.3025 13.7053C32.0261 12.632 31.0415 11.8622 29.9274 11.8622C28.814 11.8624 27.8298 12.6315 27.5526 13.7055C26.5985 13.142 25.3578 13.2937 24.5699 14.0815C24.1081 14.5434 23.8537 15.1592 23.8537 15.8153C23.8537 16.4713 24.1081 17.0871 24.57 17.549L25.7203 18.6993C24.7759 19.0256 24.0953 19.923 24.0953 20.9768C24.0953 21.78 24.4906 22.492 25.0964 22.93C22.7939 25.4753 21.1966 27.5597 20.1221 29.4152C18.8154 27.4741 18.1049 25.1756 18.1049 22.8138C18.1049 16.2946 23.4085 10.991 29.9275 10.991C36.4466 10.991 41.7502 16.2946 41.7502 22.8138C41.7502 25.1756 41.0397 27.4741 39.7331 29.4151ZM49.9929 25.0467L47.0834 26.1665C46.8142 26.2701 46.6133 26.4999 46.5466 26.7805C46.1281 28.5392 45.4338 30.2138 44.4833 31.7575C44.332 32.0031 44.3117 32.3076 44.4287 32.5713L45.6951 35.4227L44.2526 36.8652C43.3667 36.7647 42.195 36.9492 40.6683 37.7123C41.4213 35.652 41.4006 33.4036 40.5885 31.2137C42.4695 28.8276 43.5002 25.8657 43.5002 22.8135C43.5002 15.3295 37.4115 9.24077 29.9275 9.24077C22.4435 9.24077 16.3549 15.3295 16.3549 22.8135C16.3549 25.8645 17.3847 28.8253 19.2646 31.2111C18.6463 32.8732 18.4855 34.5734 18.7927 36.233C17.8533 36.457 16.9833 36.8934 16.1964 37.3492L16.1266 37.3895L14.1599 35.423L15.4259 32.5725C15.543 32.3088 15.5226 32.0043 15.3713 31.7586C14.4209 30.2155 13.7266 28.5404 13.3076 26.7803C13.2408 26.4996 13.0399 26.2699 12.7708 26.1663L9.86203 25.0468V20.5804L12.7713 19.4607C13.0406 19.3571 13.2414 19.1273 13.3081 18.8466C13.7266 17.0879 14.4209 15.4132 15.3716 13.8693C15.5228 13.6236 15.5432 13.3191 15.4262 13.0554L14.1599 10.2044L17.3181 7.04616L20.1695 8.3125C20.433 8.42953 20.7377 8.4093 20.9834 8.25792C22.5273 7.30734 24.2018 6.61303 25.9603 6.19456C26.2409 6.12784 26.4707 5.92703 26.5743 5.65775L27.6943 2.74816H32.1605L33.2804 5.65775C33.384 5.92703 33.6138 6.12784 33.8945 6.19456C35.653 6.61303 37.3274 7.30734 38.8713 8.25792C39.1172 8.4093 39.4217 8.42953 39.6852 8.3125L42.5366 7.04616L45.6949 10.2042L44.4288 13.0548C44.3117 13.3185 44.3321 13.6231 44.4835 13.8687C45.4341 15.412 46.1285 17.0869 46.5473 18.8468C46.614 19.1275 46.8148 19.3573 47.0841 19.4609L49.9927 20.5804V25.0467H49.9929ZM8.83686 42.5541C8.89855 42.9762 8.60641 43.3684 8.18433 43.4301C7.76225 43.4918 7.37003 43.1996 7.30835 42.7775C7.24666 42.3555 7.5388 41.9632 7.96088 41.9016C8.38296 41.8398 8.77518 42.1319 8.83686 42.5541Z" fill="#0499FC"/>
</g>
<defs>
<clipPath id="clip0_420_261">
<rect width="56" height="56" fill="white" transform="translate(0 0.123535)"/>
</clipPath>
</defs>
</svg>
