<svg width="63" height="62" viewBox="0 0 63 62" fill="none" xmlns="http://www.w3.org/2000/svg">
<path d="M61.2879 40.1145C60.6882 39.3432 58.4033 37.0294 54.2242 39.5355C52.4749 40.5839 51.2156 41.7005 50.1052 42.6828C49.4187 43.2928 48.8252 43.818 48.2193 44.2377C47.7499 44.5645 47.6341 45.2075 47.9608 45.6749C48.2855 46.1484 48.9306 46.2601 49.398 45.9354C50.1052 45.4453 50.7689 44.856 51.4741 44.2315C52.5204 43.3072 53.7032 42.2589 55.2871 41.3077C56.9476 40.311 58.333 40.2076 59.2945 41.0058C60.0824 41.6613 60.2519 42.6538 60.2436 42.7737L50.4381 52.1719L36.9642 58.6669C36.1516 59.0474 34.6793 59.1673 33.8336 58.9357L17.2146 53.9068C17.1174 53.8779 17.0161 53.8634 16.9147 53.8634H15.4941V55.9312H16.7617L33.2566 60.9229C33.7405 61.0573 34.3071 61.1235 34.8923 61.1235C35.9324 61.1235 37.0325 60.9188 37.8492 60.5383L51.4844 53.9689C51.5837 53.9213 51.6746 53.8593 51.7511 53.7828L61.6932 44.2564C62.5679 43.3775 62.388 41.5206 61.2879 40.1145Z" fill="#0499FC"/>
<path d="M44.9028 44.4881C43.6642 43.1647 41.6688 42.5134 38.9786 42.5134H33.106C32.8888 42.5134 32.6903 41.9282 32.529 41.769C31.2408 40.5014 28.2197 38.3633 22.4981 38.3633C21.5076 38.3633 20.575 38.4232 19.7293 38.5494C19.1648 38.6342 18.776 39.1594 18.8587 39.7218C18.9435 40.2863 19.4688 40.6689 20.0333 40.5924C20.7777 40.4787 21.6069 40.4228 22.496 40.4228C27.4815 40.4228 29.9567 42.257 31.0754 43.2454C31.6502 43.7458 31.9769 44.5812 32.9178 44.5812H38.9806C41.0774 44.5812 42.5621 45.032 43.3954 45.9211C44.1729 46.7545 44.2784 48.7168 44.2618 48.7168H32.2975C31.7267 48.7168 31.2635 49.1821 31.2635 49.7507C31.2635 50.3214 31.7267 50.7846 32.2975 50.7846H45.2482C45.8168 50.7846 46.2821 50.3049 46.2821 49.7321L46.2965 49.4385C46.3586 48.4707 46.5054 46.1982 44.9028 44.4881Z" fill="#0499FC"/>
<path d="M15.7491 56.9873H8.51172V54.9194H14.7152V40.4448H8.51172V38.377H15.7491C16.3198 38.377 16.783 38.805 16.783 39.3736V55.9161C16.783 56.491 16.3198 56.9873 15.7491 56.9873Z" fill="#0499FC"/>
<path d="M1.27609 61.1234C0.705377 61.1234 0.242188 60.6602 0.242188 60.0895C0.242188 59.5187 0.705377 59.0556 1.27609 59.0556H8.51343V40.4453H1.27609C0.705377 40.4453 0.242188 39.9821 0.242188 39.4113C0.242188 38.8406 0.705377 38.3774 1.27609 38.3774H9.54734C10.1181 38.3774 10.5812 38.8055 10.5812 39.3741V60.0522C10.5812 60.6271 10.1181 61.1234 9.54734 61.1234H1.27609Z" fill="#0499FC"/>
<path d="M44.0627 38.1587C42.0424 38.1587 40.4688 37.7121 40.3737 37.6852C40.016 37.5797 39.7389 37.2923 39.6541 36.9263C39.5941 36.6678 38.2356 30.5533 43.5829 26.9408C44.0544 26.6182 44.6996 26.7464 45.018 27.2179C45.3364 27.6914 45.2124 28.3345 44.7388 28.653C41.4386 30.8821 41.4262 34.4242 41.573 35.8427C42.5573 36.0371 44.5465 36.2997 46.4427 35.8076C48.9861 35.1438 50.6983 33.6964 51.6743 31.3887C52.2078 30.1253 53.2045 29.019 54.4121 28.2663C52.884 27.6894 50.7086 27.0938 48.5002 27.3172C47.9502 27.3523 47.427 26.9553 47.3732 26.3866C47.3174 25.8201 47.7351 25.3135 48.3038 25.2576C53.0204 24.8172 57.3794 27.3399 57.5634 27.4474C57.9377 27.6666 58.1341 28.0967 58.0556 28.5248C57.977 28.9528 57.6399 29.2836 57.214 29.3581C55.6693 29.6228 54.1743 30.787 53.5808 32.1931C52.3546 35.0921 50.1296 36.98 46.968 37.8072C45.9733 38.0677 44.9725 38.1587 44.0627 38.1587Z" fill="#0499FC"/>
<path d="M28.6627 34.0231C27.7529 34.0231 26.75 33.9321 25.7512 33.6716C22.5895 32.8465 20.3646 30.9565 19.1384 28.0574C18.5449 26.6513 17.0499 25.4872 15.5052 25.2225C15.0772 25.148 14.7401 24.8172 14.6636 24.3891C14.585 23.9632 14.7815 23.5331 15.1558 23.3118C15.2137 23.2767 16.5887 22.4744 18.6069 21.8375C19.1528 21.67 19.7318 21.9677 19.9035 22.5116C20.0751 23.0575 19.7732 23.6365 19.2273 23.8081C18.8985 23.9136 18.5883 24.0231 18.3009 24.1286C19.5106 24.8813 20.5073 25.9876 21.0407 27.2531C22.0168 29.5607 23.7289 31.0061 26.2723 31.672C28.1809 32.1662 30.1639 31.9036 31.1441 31.7092C31.3074 30.2224 31.2971 26.4384 27.4944 24.2155C26.3219 23.5289 24.9572 23.1671 23.4415 23.1381C22.8708 23.1278 22.4158 22.6563 22.4262 22.0835C22.4365 21.5149 22.9225 21.0703 23.4787 21.0703C25.3521 21.1055 27.0539 21.5625 28.5366 22.4289C33.367 25.2535 33.6089 30.4437 33.0609 32.7927C32.9762 33.1587 32.7011 33.4462 32.3413 33.5516C32.2524 33.5785 30.6809 34.0231 28.6627 34.0231Z" fill="#0499FC"/>
<path d="M36.3954 19.7677C36.0521 19.7677 35.7274 19.7036 35.3945 19.6664V43.5206L37.4623 43.5227V19.6602C37.1087 19.7015 36.7614 19.7677 36.3954 19.7677Z" fill="#0499FC"/>
<path d="M36.3937 20.8017C30.6928 20.8017 26.0547 16.1635 26.0547 10.4626C26.0547 4.76164 30.6928 0.123535 36.3937 0.123535C42.0947 0.123535 46.7328 4.76164 46.7328 10.4626C46.7328 16.1635 42.0947 20.8017 36.3937 20.8017ZM36.3937 2.19135C31.8342 2.19135 28.1225 5.90307 28.1225 10.4626C28.1225 15.0221 31.8342 18.7338 36.3937 18.7338C40.9533 18.7338 44.665 15.0221 44.665 10.4626C44.665 5.90307 40.9533 2.19135 36.3937 2.19135Z" fill="#0499FC"/>
<path d="M36.2024 37.4073C35.9605 37.4073 35.7186 37.3225 35.5221 37.1509L31.3865 33.5322C30.9564 33.1559 30.913 32.5045 31.2893 32.0744C31.6657 31.6402 32.3191 31.6009 32.7492 31.9773L36.8848 35.5959C37.3149 35.9723 37.3583 36.6236 36.982 37.0537C36.7752 37.2895 36.4899 37.4073 36.2024 37.4073Z" fill="#0499FC"/>
<path d="M36.5555 41.2213C36.2639 41.2213 35.9723 41.0972 35.7676 40.8573C35.3975 40.421 35.4512 39.7696 35.8855 39.3995L39.9922 35.907C40.4243 35.5368 41.0778 35.5885 41.45 36.0248C41.8201 36.4612 41.7663 37.1125 41.3321 37.4826L37.2254 40.9752C37.0311 41.1406 36.7912 41.2213 36.5555 41.2213Z" fill="#0499FC"/>
<path d="M48.963 5.29379C48.6074 5.29379 48.2579 5.10769 48.0677 4.77684C47.7802 4.28263 47.9498 3.64988 48.4461 3.36246L52.0255 1.29465C52.5176 1.00722 53.1524 1.17678 53.4378 1.67512C53.7252 2.16933 53.5556 2.80208 53.0594 3.08951L49.48 5.15732C49.3146 5.25037 49.1367 5.29379 48.963 5.29379Z" fill="#0499FC"/>
<path d="M55.0348 11.496H50.8991C50.3284 11.496 49.8652 11.0328 49.8652 10.4621C49.8652 9.89141 50.3284 9.42822 50.8991 9.42822H55.0348C55.6055 9.42822 56.0687 9.89141 56.0687 10.4621C56.0687 11.0328 55.6055 11.496 55.0348 11.496Z" fill="#0499FC"/>
<path d="M21.9508 11.496H17.8152C17.2444 11.496 16.7812 11.0328 16.7812 10.4621C16.7812 9.89141 17.2444 9.42822 17.8152 9.42822H21.9508C22.5215 9.42822 22.9847 9.89141 22.9847 10.4621C22.9847 11.0328 22.5215 11.496 21.9508 11.496Z" fill="#0499FC"/>
<path d="M23.8926 5.29254C23.7168 5.29254 23.539 5.24911 23.3757 5.15606L19.7963 3.08825C19.3021 2.80083 19.1325 2.17014 19.4179 1.67387C19.7032 1.17759 20.338 1.01217 20.8302 1.29339L24.4096 3.3612C24.9038 3.64863 25.0733 4.27931 24.788 4.77559C24.5957 5.10644 24.2462 5.29254 23.8926 5.29254Z" fill="#0499FC"/>
</svg>
