<svg width="52" height="52" viewBox="0 0 52 52" fill="none" xmlns="http://www.w3.org/2000/svg">
<path d="M14.9375 21.9097H47.7574C48.72 21.9097 49.5882 22.3021 50.219 22.9325V22.9384C50.8493 23.5692 51.2422 24.4374 51.2422 25.394V47.6393C51.2422 48.5956 50.8493 49.4698 50.219 50.1001C49.5882 50.7312 48.72 51.1233 47.7574 51.1233H14.9375C13.9808 51.1233 13.1067 50.7312 12.4763 50.1001C11.8456 49.4698 11.4531 48.6012 11.4531 47.6393V25.394C11.4531 24.4374 11.8456 23.5632 12.4763 22.9325C13.1071 22.3021 13.9808 21.9097 14.9375 21.9097ZM47.7574 23.5026H14.9375C14.4175 23.5026 13.9474 23.7182 13.6047 24.0608C13.2616 24.4039 13.0461 24.8741 13.0461 25.394V47.6393C13.0461 48.1593 13.2616 48.6346 13.6047 48.9777C13.947 49.32 14.4175 49.5303 14.9375 49.5303H47.7574C48.2774 49.5303 48.7527 49.3204 49.0958 48.9777C49.4384 48.6346 49.6492 48.1589 49.6492 47.6393V25.394C49.6492 24.8741 49.4388 24.3987 49.0958 24.0557V24.0612C48.7527 23.7186 48.2774 23.5026 47.7574 23.5026Z" fill="#0499FC"/>
<path d="M24.6933 15.2671H38.006C38.7638 15.2671 39.4603 15.5767 39.9584 16.0799C40.456 16.5831 40.7716 17.2748 40.7716 18.0323V22.7056V23.5021H39.9747H36.6123H35.8162V22.7056V20.1177H26.8835V22.706V23.5025H26.0867H22.7242H21.9277V22.706V18.0323C21.9277 17.2748 22.2373 16.5776 22.735 16.0799C23.2382 15.5767 23.9303 15.2671 24.6933 15.2671ZM38.0056 16.8601H24.6933C24.3722 16.8601 24.0793 16.9923 23.8634 17.2083C23.6534 17.4187 23.5211 17.7115 23.5211 18.0323V21.9091H25.2906V19.3208V18.5247H26.0871H36.6123H37.4091V19.3208V21.9095H39.1786V18.0327C39.1786 17.7115 39.0459 17.4187 38.8359 17.2087H38.83C38.6196 16.9927 38.3267 16.8601 38.0056 16.8601Z" fill="#0499FC"/>
<path d="M9.04134 43.3528C9.47843 43.3528 9.83782 43.7062 9.83782 44.1489C9.83782 44.5856 9.47843 44.945 9.04134 44.945H2.63163C1.97899 44.945 1.38173 44.674 0.944638 44.2429V44.2373C0.513127 43.8058 0.242188 43.209 0.242188 42.5504V2.51307C0.242188 1.86043 0.513127 1.26316 0.944638 0.826474C1.37575 0.394963 1.97301 0.124023 2.63163 0.124023H25.0363C25.3794 0.124023 25.7001 0.190563 25.9994 0.323244C26.2926 0.455924 26.558 0.649168 26.7958 0.898193L32.8079 7.33061C32.8242 7.34735 32.8354 7.36368 32.8521 7.38042C33.045 7.59597 33.1836 7.83424 33.2832 8.08287C33.3829 8.35421 33.4382 8.64148 33.4382 8.94589V12.8506C33.4382 13.2929 33.0788 13.6471 32.6418 13.6471C32.1995 13.6471 31.8397 13.2929 31.8397 12.8506V8.94589C31.8397 8.83512 31.8289 8.73591 31.7955 8.64706C31.7624 8.57534 31.7238 8.5088 31.6739 8.44226C31.6628 8.4315 31.6512 8.42593 31.6405 8.41477L25.634 1.98235C25.5507 1.8939 25.4571 1.82736 25.3575 1.77755C25.2638 1.7389 25.1586 1.71699 25.0367 1.71699H2.63163C2.41608 1.71699 2.21686 1.80544 2.07302 1.95486L2.06744 1.94928C1.92361 2.09272 1.83515 2.29752 1.83515 2.51307V42.5504C1.83515 42.7715 1.92361 42.9707 2.06744 43.1145L2.07302 43.1201C2.21686 43.2588 2.41568 43.3528 2.63163 43.3528H9.04134Z" fill="#0499FC"/>
<path d="M28.4605 36.4285L14.794 33.8338C13.8705 33.6625 13.0182 33.2589 12.405 32.6449C11.8181 32.0588 11.4531 31.2902 11.4531 30.3662H13.0461C13.0461 30.8364 13.2346 31.2237 13.533 31.5225C13.9147 31.8982 14.4733 32.1584 15.0873 32.2743L28.7538 34.8682L28.4605 36.4285ZM51.2418 30.3662C51.2418 31.2898 50.8768 32.0532 50.2903 32.6393V32.6449C49.6763 33.2589 48.8248 33.6629 47.9068 33.8338L34.2399 36.45L33.9415 34.8905L47.608 32.2743C48.2276 32.1528 48.7862 31.8986 49.1675 31.5225C49.4663 31.2237 49.6488 30.836 49.6488 30.3662H51.2418Z" fill="#0499FC"/>
<path d="M20.5393 7.2417C20.9816 7.2417 21.3358 7.59591 21.3358 8.03818C21.3358 8.47527 20.9816 8.83466 20.5393 8.83466H9.42286C8.9802 8.83466 8.62598 8.47527 8.62598 8.03818C8.62598 7.59591 8.9802 7.2417 9.42286 7.2417H20.5393ZM5.62812 7.2417C6.07079 7.2417 6.43058 7.59591 6.43058 8.03818C6.43058 8.47527 6.07118 8.83466 5.62812 8.83466H5.03126C4.59377 8.83466 4.23438 8.47527 4.23438 8.03818C4.23438 7.59591 4.59377 7.2417 5.03126 7.2417H5.62812Z" fill="#0499FC"/>
<path d="M15.3015 14.4707C15.7385 14.4707 16.0979 14.8297 16.0979 15.2672C16.0979 15.7095 15.7385 16.0633 15.3015 16.0633H9.42247C8.9802 16.0633 8.62598 15.7095 8.62598 15.2672C8.62598 14.8301 8.9802 14.4707 9.42247 14.4707H15.3015ZM5.62852 14.4707C6.07079 14.4707 6.43058 14.8297 6.43058 15.2672C6.43058 15.7095 6.07118 16.0633 5.62852 16.0633H5.03126C4.59417 16.0633 4.23438 15.7095 4.23438 15.2672C4.23438 14.8301 4.59377 14.4707 5.03126 14.4707H5.62852Z" fill="#0499FC"/>
<path d="M20.5393 10.8589C20.9816 10.8589 21.3358 11.2131 21.3358 11.6554C21.3358 12.0921 20.9816 12.4519 20.5393 12.4519H9.42286C8.9802 12.4519 8.62598 12.0925 8.62598 11.6554C8.62598 11.2131 8.9802 10.8589 9.42286 10.8589H20.5393ZM5.62812 10.8589C6.07079 10.8589 6.43058 11.2131 6.43058 11.6554C6.43058 12.0921 6.07118 12.4519 5.62812 12.4519H5.03126C4.59377 12.4519 4.23438 12.0925 4.23438 11.6554C4.23438 11.2131 4.59377 10.8589 5.03126 10.8589H5.62812Z" fill="#0499FC"/>
<path d="M25.8555 0.416877L33.1059 8.28727C33.3992 8.60801 33.3828 9.11124 33.0561 9.40967C32.9067 9.54793 32.7139 9.62005 32.5198 9.62005H27.5258C26.6743 9.62005 25.9053 9.27142 25.3467 8.7132C25.3304 8.69647 25.3132 8.68013 25.2969 8.6634C24.7658 8.10996 24.4395 7.35811 24.4395 6.53373V0.920506C24.4395 0.483417 24.7937 0.124023 25.2363 0.124023C25.4846 0.124023 25.7061 0.23997 25.8555 0.416877ZM30.7061 8.02749L26.0324 2.96092V6.53413C26.0324 6.93217 26.1874 7.29157 26.4364 7.55693C26.4472 7.56808 26.4587 7.57924 26.4699 7.5904C26.7408 7.86134 27.1166 8.02709 27.5258 8.02709L30.7061 8.02749Z" fill="#0499FC"/>
<path d="M36.4568 4.41593C36.3684 4.84704 35.9484 5.12356 35.5169 5.02993C35.0854 4.94108 34.8089 4.52112 34.8973 4.09479L35.2017 2.64566L35.5998 0.759844C35.6771 0.384115 36.009 0.123535 36.3795 0.123535H37.7733H39.167C39.5706 0.123535 39.9029 0.422365 39.9579 0.814829L40.544 3.60232C40.9532 3.71866 41.3517 3.85692 41.7386 4.01709C42.1314 4.17767 42.5127 4.36573 42.8777 4.57053L45.3169 2.97756C45.6321 2.77276 46.0469 2.82257 46.3067 3.08275H46.3126L47.2972 4.0673C47.308 4.08403 47.3247 4.09519 47.3362 4.11152L48.2817 5.05742C48.5579 5.32836 48.5861 5.75987 48.3706 6.06946L46.794 8.486C47.0039 8.85137 47.1868 9.23268 47.3526 9.62554C47.5076 10.0124 47.6458 10.4109 47.7618 10.8201L50.6046 11.4229C50.9975 11.5002 51.2629 11.8544 51.241 12.2413V13.5916V14.9854C51.241 15.389 50.9425 15.7265 50.5497 15.7763L47.7622 16.3624C47.6462 16.7771 47.5076 17.1756 47.353 17.5569C47.1207 18.1155 46.8442 18.6462 46.529 19.1391C46.2971 19.5148 45.8046 19.6256 45.4285 19.3877C45.058 19.1499 44.9476 18.6578 45.1851 18.2868C45.4564 17.8613 45.6887 17.4131 45.8823 16.9489C46.0704 16.495 46.2194 16.0305 46.3302 15.5551C46.38 15.24 46.623 14.9798 46.9498 14.9081L49.648 14.3439V13.5916H49.6536V12.8449L46.949 12.2752C46.6561 12.2146 46.4071 11.9875 46.335 11.6723C46.2298 11.1803 46.0752 10.7045 45.8815 10.2348C45.6879 9.77017 45.4556 9.32193 45.1843 8.89639C45.0241 8.64179 45.0185 8.30989 45.1898 8.03895L46.7003 5.7272L46.213 5.23513C46.1967 5.22437 46.1859 5.21281 46.1688 5.19608L45.6381 4.66536L43.3757 6.14198C43.116 6.3408 42.7562 6.36311 42.4693 6.18062C42.0434 5.90968 41.5955 5.67739 41.1309 5.48375C40.6771 5.29569 40.2073 5.14627 39.7316 5.0359C39.422 4.9861 39.1563 4.74823 39.0901 4.41633L38.5196 1.7169H37.7733H37.0206L36.7608 2.9668L36.4568 4.41593ZM37.7733 8.65813C37.3306 8.65813 36.9764 8.30391 36.9764 7.86164C36.9764 7.41938 37.3306 7.06516 37.7733 7.06516C39.5758 7.06516 41.2074 7.7955 42.3912 8.97887C43.5694 10.1571 44.2993 11.7887 44.2993 13.5916C44.2993 14.0674 44.2495 14.5375 44.1499 14.9854C44.0503 15.444 43.9009 15.887 43.708 16.3126C43.5252 16.711 43.055 16.8879 42.6514 16.7054C42.2533 16.5225 42.0816 16.0524 42.2645 15.6543C42.4079 15.3448 42.5187 15.0073 42.596 14.6531C42.6681 14.3104 42.7068 13.9562 42.7068 13.5912C42.7068 12.2305 42.1537 10.997 41.2632 10.1013C40.3671 9.21156 39.1336 8.65813 37.7733 8.65813Z" fill="#0499FC"/>
<path d="M28.7192 30.3887H33.9786C34.3938 30.3887 34.7695 30.56 35.0408 30.8305L35.0464 30.8361C35.3178 31.1079 35.4887 31.4892 35.4887 31.9039V37.7335C35.4887 38.8727 35.0245 39.907 34.2719 40.6589C33.5256 41.4115 32.4856 41.8761 31.3461 41.8761C30.2066 41.8761 29.1722 41.4115 28.4204 40.6589C27.6733 39.907 27.2031 38.8731 27.2031 37.7335V31.9039C27.2031 31.4892 27.3749 31.1071 27.6514 30.8361V30.8305C27.9279 30.56 28.3044 30.3887 28.7192 30.3887ZM33.8961 31.9816H28.8021V37.7335C28.8021 38.43 29.0842 39.0719 29.5487 39.5313C30.0133 39.9959 30.6496 40.2831 31.3461 40.2831C32.049 40.2831 32.6845 39.9959 33.1491 39.5313C33.6081 39.0723 33.8961 38.43 33.8961 37.7335V31.9816Z" fill="#0499FC"/>
<path d="M31.3473 38.4245C31.7871 38.4245 32.1437 38.0679 32.1437 37.628C32.1437 37.1881 31.7871 36.8315 31.3473 36.8315C30.9074 36.8315 30.5508 37.1881 30.5508 37.628C30.5508 38.0679 30.9074 38.4245 31.3473 38.4245Z" fill="#0499FC"/>
</svg>
