<svg width="52" height="52" viewBox="0 0 52 52" fill="none" xmlns="http://www.w3.org/2000/svg">
<g clip-path="url(#clip0_420_247)">
<path d="M50.302 20.3175L45.0373 19.7331C44.659 18.4923 44.1608 17.2913 43.5498 16.1471L46.8585 12.0118C47.1961 11.5892 47.1623 10.9803 46.7799 10.5977L40.7682 4.59242C40.3856 4.21002 39.7767 4.17615 39.3541 4.51383L35.2187 7.82136C34.0745 7.21036 32.8735 6.71211 31.6327 6.33389L31.0483 1.06923C30.9888 0.530839 30.5339 0.123535 29.9923 0.123535H21.4923C20.9507 0.123535 20.4957 0.530839 20.4361 1.06913L19.8517 6.32851C18.611 6.70683 17.41 7.20498 16.2658 7.81598L12.1305 4.50735C11.7078 4.16968 11.0989 4.20354 10.7163 4.58594L4.7047 10.5977C4.32259 10.9806 4.28922 11.5895 4.6271 12.0118L7.94001 16.1471C7.32901 17.2913 6.83076 18.4923 6.45255 19.7331L1.18788 20.3175C0.649491 20.377 0.242188 20.832 0.242188 21.3735V29.8735C0.242188 30.4151 0.649491 30.8701 1.18778 30.9297L6.44717 31.5141C6.82548 32.7548 7.32363 33.9558 7.93464 35.1L4.626 39.2353C4.28833 39.658 4.3222 40.2669 4.7046 40.6495L10.7162 46.6611C11.1005 47.0416 11.7093 47.0727 12.1304 46.7333L16.2657 43.4258C17.4099 44.0368 18.6109 44.5351 19.8516 44.9133L20.436 50.1779C20.4956 50.7162 20.9505 51.1236 21.4922 51.1235H29.9922C30.532 51.1238 30.9862 50.7194 31.0483 50.1832L31.6327 44.9186C32.8735 44.5402 34.0745 44.0421 35.2187 43.4311L39.354 46.7397C39.7766 47.0774 40.3855 47.0435 40.7681 46.6611L46.7734 40.6495C47.1558 40.2669 47.1897 39.658 46.852 39.2353L43.5445 35.1C44.1555 33.9558 44.6537 32.7548 45.0319 31.5141L50.2966 30.9297C50.8349 30.8701 51.2423 30.4152 51.2422 29.8735V21.3735C51.2426 20.8338 50.8382 20.3795 50.302 20.3175ZM49.1175 28.9227H49.1173L44.0949 29.4816C43.6592 29.53 43.298 29.841 43.1854 30.2646C42.7762 31.809 42.1626 33.2919 41.361 34.674C41.1408 35.0533 41.1762 35.529 41.4503 35.8714L44.6091 39.8196L39.9437 44.4851L35.9954 41.3262C35.653 41.0522 35.1774 41.0168 34.798 41.237C33.416 42.0385 31.9331 42.652 30.3886 43.0613C29.965 43.1739 29.654 43.5352 29.6056 43.9709L29.0467 48.9987H22.4485L21.8844 43.9709C21.8359 43.5352 21.525 43.174 21.1013 43.0613C19.5569 42.6521 18.074 42.0385 16.6919 41.237C16.3126 41.0168 15.837 41.0522 15.4945 41.3262L11.5463 44.4851L6.88087 39.8196L10.0397 35.8767C10.3137 35.5342 10.3492 35.0586 10.1289 34.6793C9.32738 33.2972 8.71388 31.8143 8.30459 30.2699C8.19203 29.8462 7.83074 29.5353 7.39505 29.4868L2.36726 28.9279V22.3298L7.39505 21.7656C7.83074 21.7172 8.19193 21.4062 8.30459 20.9826C8.71378 19.4381 9.32738 17.9552 10.1289 16.5732C10.3492 16.1938 10.3137 15.7182 10.0397 15.3758L6.88087 11.4275L11.5463 6.76212L15.4999 9.92093C15.8423 10.195 16.318 10.2304 16.6973 10.0102C18.0794 9.20862 19.5623 8.59513 21.1067 8.18583C21.5303 8.07328 21.8413 7.71199 21.8897 7.2763L22.4486 2.24851H29.0415L29.6004 7.2763C29.6488 7.71199 29.9598 8.07318 30.3834 8.18583C31.9279 8.59503 33.4108 9.20862 34.7929 10.0102C35.1722 10.2304 35.6478 10.195 35.9903 9.92093L39.9385 6.76212L44.6039 11.4329L41.4451 15.3811C41.1711 15.7236 41.1356 16.1992 41.3558 16.5785C42.1574 17.9606 42.7709 19.4435 43.1802 20.988C43.2927 21.4116 43.654 21.7226 44.0897 21.771L49.1175 22.3299V28.9227Z" fill="white"/>
<path d="M50.302 20.3175L45.0373 19.7331C44.659 18.4923 44.1608 17.2913 43.5498 16.1471L46.8585 12.0118C47.1961 11.5892 47.1623 10.9803 46.7799 10.5977L40.7682 4.59242C40.3856 4.21002 39.7767 4.17615 39.3541 4.51383L35.2187 7.82136C34.0745 7.21036 32.8735 6.71211 31.6327 6.33389L31.0483 1.06923C30.9888 0.530839 30.5339 0.123535 29.9923 0.123535H21.4923C20.9507 0.123535 20.4957 0.530839 20.4361 1.06913L19.8517 6.32851C18.611 6.70683 17.41 7.20498 16.2658 7.81598L12.1305 4.50735C11.7078 4.16968 11.0989 4.20354 10.7163 4.58594L4.7047 10.5977C4.32259 10.9806 4.28922 11.5895 4.6271 12.0118L7.94001 16.1471C7.32901 17.2913 6.83076 18.4923 6.45255 19.7331L1.18788 20.3175C0.649491 20.377 0.242188 20.832 0.242188 21.3735V29.8735C0.242188 30.4151 0.649491 30.8701 1.18778 30.9297L6.44717 31.5141C6.82548 32.7548 7.32363 33.9558 7.93464 35.1L4.626 39.2353C4.28833 39.658 4.3222 40.2669 4.7046 40.6495L10.7162 46.6611C11.1005 47.0416 11.7093 47.0727 12.1304 46.7333L16.2657 43.4258C17.4099 44.0368 18.6109 44.5351 19.8516 44.9133L20.436 50.1779C20.4956 50.7162 20.9505 51.1236 21.4922 51.1235H29.9922C30.532 51.1238 30.9862 50.7194 31.0483 50.1832L31.6327 44.9186C32.8735 44.5402 34.0745 44.0421 35.2187 43.4311L39.354 46.7397C39.7766 47.0774 40.3855 47.0435 40.7681 46.6611L46.7734 40.6495C47.1558 40.2669 47.1897 39.658 46.852 39.2353L43.5445 35.1C44.1555 33.9558 44.6537 32.7548 45.0319 31.5141L50.2966 30.9297C50.8349 30.8701 51.2423 30.4152 51.2422 29.8735V21.3735C51.2426 20.8338 50.8382 20.3795 50.302 20.3175ZM49.1175 28.9227H49.1173L44.0949 29.4816C43.6592 29.53 43.298 29.841 43.1854 30.2646C42.7762 31.809 42.1626 33.2919 41.361 34.674C41.1408 35.0533 41.1762 35.529 41.4503 35.8714L44.6091 39.8196L39.9437 44.4851L35.9954 41.3262C35.653 41.0522 35.1774 41.0168 34.798 41.237C33.416 42.0385 31.9331 42.652 30.3886 43.0613C29.965 43.1739 29.654 43.5352 29.6056 43.9709L29.0467 48.9987H22.4485L21.8844 43.9709C21.8359 43.5352 21.525 43.174 21.1013 43.0613C19.5569 42.6521 18.074 42.0385 16.6919 41.237C16.3126 41.0168 15.837 41.0522 15.4945 41.3262L11.5463 44.4851L6.88087 39.8196L10.0397 35.8767C10.3137 35.5342 10.3492 35.0586 10.1289 34.6793C9.32738 33.2972 8.71388 31.8143 8.30459 30.2699C8.19203 29.8462 7.83074 29.5353 7.39505 29.4868L2.36726 28.9279V22.3298L7.39505 21.7656C7.83074 21.7172 8.19193 21.4062 8.30459 20.9826C8.71378 19.4381 9.32738 17.9552 10.1289 16.5732C10.3492 16.1938 10.3137 15.7182 10.0397 15.3758L6.88087 11.4275L11.5463 6.76212L15.4999 9.92093C15.8423 10.195 16.318 10.2304 16.6973 10.0102C18.0794 9.20862 19.5623 8.59513 21.1067 8.18583C21.5303 8.07328 21.8413 7.71199 21.8897 7.2763L22.4486 2.24851H29.0415L29.6004 7.2763C29.6488 7.71199 29.9598 8.07318 30.3834 8.18583C31.9279 8.59503 33.4108 9.20862 34.7929 10.0102C35.1722 10.2304 35.6478 10.195 35.9903 9.92093L39.9385 6.76212L44.6039 11.4329L41.4451 15.3811C41.1711 15.7236 41.1356 16.1992 41.3558 16.5785C42.1574 17.9606 42.7709 19.4435 43.1802 20.988C43.2927 21.4116 43.654 21.7226 44.0897 21.771L49.1175 22.3299V28.9227Z" fill="#0499FC"/>
<path d="M38.7201 18.3601C34.7086 11.1908 25.6451 8.63071 18.4758 12.6421C11.3065 16.6535 8.7464 25.7172 12.7579 32.8865C12.8054 32.9713 12.8643 33.0492 12.933 33.118C13.3476 33.5333 14.0203 33.5338 14.4356 33.1192L21.3769 26.1779L23.8291 29.4483C23.8593 29.4885 23.8921 29.5265 23.9277 29.562C24.3427 29.9769 25.0153 29.9769 25.4303 29.562L32.1166 22.8757V26.6858H34.2416V20.3108H34.2414C34.2414 19.7241 33.7658 19.2485 33.1791 19.2483H26.8041V21.3733H30.6143L24.7939 27.1936L22.3416 23.9233C22.1573 23.6758 21.8746 23.5207 21.567 23.4982C21.2597 23.4796 20.9591 23.5929 20.7404 23.8095L13.985 30.5639C12.1583 26.2165 12.8855 21.2153 15.8747 17.5681C20.3296 12.1323 28.3477 11.3371 33.7836 15.7921C39.2194 20.2471 40.0145 28.2651 35.5595 33.701C35.1489 34.202 34.7079 34.6633 34.2417 35.0849V28.8108H32.1166V36.637C31.4357 37.033 30.7241 37.3619 29.9916 37.6223V30.9358H27.8667V38.1773C27.1649 38.2972 26.4539 38.3586 25.7417 38.3603V34.1233H23.6167V38.1877C22.8985 38.0682 22.1875 37.8861 21.4917 37.6413V31.9983H19.3666V36.6634C18.7727 36.3205 18.1983 35.9258 17.6506 35.477L16.3002 37.1185C18.9622 39.3024 22.2985 40.4967 25.7416 40.4984C28.2839 40.498 30.7836 39.846 33.0022 38.6045C40.1715 34.5931 42.7316 25.5294 38.7201 18.3601Z" fill="white"/>
<path d="M38.7201 18.3601C34.7086 11.1908 25.6451 8.63071 18.4758 12.6421C11.3065 16.6535 8.7464 25.7172 12.7579 32.8865C12.8054 32.9713 12.8643 33.0492 12.933 33.118C13.3476 33.5333 14.0203 33.5338 14.4356 33.1192L21.3769 26.1779L23.8291 29.4483C23.8593 29.4885 23.8921 29.5265 23.9277 29.562C24.3427 29.9769 25.0153 29.9769 25.4303 29.562L32.1166 22.8757V26.6858H34.2416V20.3108H34.2414C34.2414 19.7241 33.7658 19.2485 33.1791 19.2483H26.8041V21.3733H30.6143L24.7939 27.1936L22.3416 23.9233C22.1573 23.6758 21.8746 23.5207 21.567 23.4982C21.2597 23.4796 20.9591 23.5929 20.7404 23.8095L13.985 30.5639C12.1583 26.2165 12.8855 21.2153 15.8747 17.5681C20.3296 12.1323 28.3477 11.3371 33.7836 15.7921C39.2194 20.2471 40.0145 28.2651 35.5595 33.701C35.1489 34.202 34.7079 34.6633 34.2417 35.0849V28.8108H32.1166V36.637C31.4357 37.033 30.7241 37.3619 29.9916 37.6223V30.9358H27.8667V38.1773C27.1649 38.2972 26.4539 38.3586 25.7417 38.3603V34.1233H23.6167V38.1877C22.8985 38.0682 22.1875 37.8861 21.4917 37.6413V31.9983H19.3666V36.6634C18.7727 36.3205 18.1983 35.9258 17.6506 35.477L16.3002 37.1185C18.9622 39.3024 22.2985 40.4967 25.7416 40.4984C28.2839 40.498 30.7836 39.846 33.0022 38.6045C40.1715 34.5931 42.7316 25.5294 38.7201 18.3601Z" fill="#0499FC"/>
</g>
<defs>
<clipPath id="clip0_420_247">
<rect width="51" height="51" fill="white" transform="translate(0.242188 0.123535)"/>
</clipPath>
</defs>
</svg>
