<svg width="52" height="52" viewBox="0 0 52 52" fill="none" xmlns="http://www.w3.org/2000/svg">
<path d="M43.0187 19.0636C42.6423 18.3108 42.9473 17.3959 43.7001 17.0195L49.7938 13.9726C50.5466 13.5977 51.4616 13.9012 51.8379 14.654C52.2143 15.4068 51.9093 16.3217 51.1566 16.6981L45.0628 19.745C44.3024 20.1227 43.3932 19.8106 43.0187 19.0636Z" fill="#0499FC"/>
<path d="M49.7938 34.9793L43.7001 31.9324C42.9473 31.556 42.6423 30.641 43.0187 29.8882C43.398 29.137 44.31 28.8349 45.0628 29.2069L51.1566 32.2537C51.9093 32.6301 52.2143 33.5451 51.8379 34.2979C51.4631 35.0456 50.5535 35.3566 49.7938 34.9793Z" fill="#0499FC"/>
<path d="M50.4766 25.9995H44.3828C43.5408 25.9995 42.8594 25.3181 42.8594 24.4761C42.8594 23.634 43.5408 22.9526 44.3828 22.9526H50.4766C51.3186 22.9526 52 23.634 52 24.4761C52 25.3181 51.3186 25.9995 50.4766 25.9995Z" fill="#0499FC"/>
<path d="M38.2891 6.19531C37.447 6.19531 36.7656 6.8767 36.7656 7.71875V9.89402C31.258 13.42 24.7707 15.6995 18.2812 16.4845V32.4687C24.7707 33.2537 31.258 35.5333 36.7656 39.0592V41.2344C36.7656 42.0764 37.447 42.7578 38.2891 42.7578C39.1311 42.7578 39.8125 42.0764 39.8125 41.2344V7.71875C39.8125 6.8767 39.1311 6.19531 38.2891 6.19531Z" fill="#0499FC"/>
<path d="M14.7654 43.0317C13.3627 40.5067 12.1509 37.5408 13.0843 34.931L5.56083 34.0934C4.99513 34.0307 4.45045 33.9087 3.92059 33.7549C2.80066 36.9982 2.90202 40.1892 2.99891 42.5764C3.02278 43.1879 3.04655 43.7592 3.04655 44.2814C3.04655 45.1235 3.72793 45.8049 4.56998 45.8049H13.7106C14.2387 45.8049 14.7297 45.5312 15.0064 45.0818C15.2846 44.6325 15.3099 44.0717 15.0734 43.6L14.7654 43.0317Z" fill="#0499FC"/>
<path d="M0 24.4766C0 27.8597 2.5351 30.6923 5.89733 31.0657L15.2344 32.104V16.8491L5.89733 17.8874C2.5351 18.2608 0 21.0934 0 24.4766Z" fill="#0499FC"/>
</svg>
