<svg width="48" height="48" viewBox="0 0 48 48" fill="none" xmlns="http://www.w3.org/2000/svg">
<path d="M24.3 25.0002C24.2 25.0002 24.2 25.0002 24.1 25.0002C24 25.0002 24 25.0002 23.9 25.0002C23.8 25.0002 23.6 25.0002 23.5 25.0002C23.4 25.0002 23.2 24.9002 23.1 24.9002L10 19.7002V36.1002C10 37.1002 10.9 38.2002 11.8 38.5002C19.8 40.7002 28.2 40.7002 36.1 38.5002C37 38.2002 37.9 37.1002 37.9 36.1002V19.7002L24.7 24.9002C24.6 25.0002 24.5 25.0002 24.3 25.0002Z" fill="#0499FC"/>
<path d="M44.9 35.7002C46.4 35.1002 47.5 33.5002 47.5 31.8002C47.5 29.8002 46.1 28.2002 44.3 27.7002V14.8002L47.3 13.6002L47.4 13.5002V13.4002L23.9 4.2002L0.5 13.4002V13.5002C0.5 13.5002 0.5 13.6002 0.6 13.6002L7.8 16.4002L24 22.8002L40.2 16.4002L42.3 15.6002V27.6002C40.5 28.1002 39.1 29.7002 39.1 31.7002C39.1 33.5002 40.2 35.0002 41.7 35.6002L39 41.1002V43.8002H47.5V41.1002L44.9 35.7002Z" fill="#0499FC"/>
</svg>
