<svg width="46" height="46" viewBox="0 0 46 46" fill="none" xmlns="http://www.w3.org/2000/svg">
<g clip-path="url(#clip0_632_1341)">
<path d="M45.9988 0.86021C46.0016 0.630705 45.9128 0.409903 45.7504 0.247659C45.5884 0.0857871 45.3671 -0.0038514 45.1383 0.000127008C44.6918 0.00721355 34.126 0.253502 27.3241 7.05534L18.6988 15.6807C16.6937 14.9745 9.86289 13.6492 0.247598 23.2638C-0.0450633 23.5567 -0.0826095 24.0178 0.158084 24.355C0.18556 24.3935 0.215398 24.4288 0.248592 24.4618C0.500475 24.7135 0.890855 24.7841 1.22032 24.6223C1.28546 24.5901 7.4168 21.6278 10.6716 23.7078L8.53722 25.8421C8.48537 25.894 8.44074 25.9524 8.40369 26.0154C8.3138 26.1717 6.24914 29.8817 11.1832 34.8151C16.1169 39.7489 19.8273 37.6851 19.9822 37.5945C20.0464 37.5576 20.1037 37.5127 20.1558 37.4608L22.2902 35.3265C24.3704 38.5815 21.4083 44.7124 21.3765 44.7781C21.2144 45.1076 21.2841 45.4972 21.5366 45.75C21.5424 45.7552 21.5468 45.7596 21.5522 45.7647C21.8836 46.0826 22.4103 46.0782 22.7361 45.7519C22.7525 45.7359 22.7672 45.7192 22.7822 45.7025C32.345 36.112 31.0228 29.3007 30.3172 27.2991L38.9426 18.6738C45.7443 11.8723 45.9912 1.30691 45.9988 0.86021ZM35.047 17.6774C33.1895 19.5346 30.1791 19.5345 28.3224 17.6776C26.4658 15.821 26.4656 12.8105 28.3228 10.9532C30.1793 9.09651 33.1901 9.09651 35.047 10.9532C36.9035 12.81 36.9035 15.8208 35.047 17.6774Z" fill="#0499FC"/>
<path d="M11.1124 39.8918C9.44308 40.1824 7.72006 40.2989 6.02775 40.271C5.8839 40.2684 5.73633 40.0948 5.7367 39.9776C5.73645 39.7212 5.74279 39.3477 5.74926 39.0915C5.75871 38.7169 5.77462 38.3429 5.79451 37.9685C5.84151 37.1197 5.91101 36.2682 6.03608 35.4273C6.25402 33.9556 6.58597 32.5128 7.13486 31.1267C7.20995 30.9379 7.29362 30.7531 7.362 30.561C5.82236 31.2197 4.62051 32.5316 3.77386 33.9457C2.95033 35.3203 2.4171 36.8582 2.12121 38.4297C1.94616 39.3574 1.8554 40.2998 1.84222 41.2433C1.83613 41.765 1.80294 42.3959 1.9842 42.8962C2.24106 43.607 2.90197 44.0786 3.64991 44.1301C4.32151 44.176 4.99535 44.1672 5.66808 44.1227C8.72423 43.921 11.99 42.8574 14.1357 40.5827C14.6635 39.9926 15.1239 39.3712 15.4436 38.6426C14.6803 38.9238 13.9393 39.235 13.1513 39.4474C12.4774 39.6288 11.7998 39.7722 11.1124 39.8918Z" fill="#0499FC"/>
</g>
<defs>
<clipPath id="clip0_632_1341">
<rect width="46" height="46" fill="white"/>
</clipPath>
</defs>
</svg>
