<svg width="56" height="56" viewBox="0 0 56 56" fill="none" xmlns="http://www.w3.org/2000/svg">
<g clip-path="url(#clip0_2004_541)">
<path d="M1.25387 -0.0686036C1.39787 -0.0700297 1.54188 -0.0714558 1.69025 -0.0729251C1.84989 -0.0717428 2.00954 -0.0705087 2.16919 -0.0692284C2.3389 -0.0698585 2.50862 -0.070727 2.67833 -0.0718136C3.14495 -0.0741002 3.61151 -0.0729666 4.07812 -0.0712743C4.58124 -0.070039 5.08435 -0.0719458 5.58747 -0.0734508C6.57318 -0.0758852 7.55886 -0.0753561 8.54456 -0.073772C9.34552 -0.072538 10.1465 -0.072369 10.9474 -0.0729647C11.0613 -0.0730485 11.1752 -0.0731323 11.2926 -0.0732187C11.524 -0.0733935 11.7553 -0.0735708 11.9867 -0.0737505C14.1574 -0.0753108 16.3281 -0.0735157 18.4989 -0.0705785C20.3623 -0.0681351 22.2257 -0.0685595 24.0891 -0.0710809C26.252 -0.0740061 28.4148 -0.0751605 30.5776 -0.0734805C30.8082 -0.0733062 31.0387 -0.0731343 31.2693 -0.0729647C31.3827 -0.0728803 31.4961 -0.072796 31.613 -0.0727091C32.4132 -0.0722365 33.2134 -0.0730348 34.0135 -0.0743207C34.9884 -0.075853 35.9633 -0.0754428 36.9382 -0.0725266C37.4358 -0.0710872 37.9333 -0.07053 38.4309 -0.0723347C38.8862 -0.0739609 39.3414 -0.0730745 39.7967 -0.0701595C39.9616 -0.0695472 40.1266 -0.0698626 40.2915 -0.0711853C40.5153 -0.0728425 40.7391 -0.0708195 40.9628 -0.0686036C41.1494 -0.0684704 41.1494 -0.0684704 41.3399 -0.0683345C41.7795 0.0227312 41.9436 0.197985 42.2177 0.547091C42.2863 0.772808 42.2863 0.772808 42.2867 0.998716C42.2882 1.08553 42.2897 1.17234 42.2912 1.26179C42.29 1.35595 42.2888 1.45011 42.2876 1.54712C42.289 1.69856 42.289 1.69856 42.2904 1.85306C42.2928 2.1915 42.2913 2.5298 42.2898 2.86824C42.2908 3.11077 42.2919 3.35331 42.2933 3.59584C42.2964 4.25454 42.2961 4.91319 42.2952 5.57189C42.2949 6.26016 42.2976 6.94843 42.3001 7.6367C42.3037 8.792 42.3054 9.9473 42.3057 11.1026C42.306 12.2925 42.3074 13.4824 42.3104 14.6722C42.3106 14.7456 42.3108 14.819 42.311 14.8946C42.3119 15.2626 42.3128 15.6307 42.3138 15.9987C42.3217 19.0513 42.3256 22.1039 42.3271 25.1565C42.5181 24.8615 42.7091 24.5665 42.9 24.2714C42.9536 24.1887 43.0071 24.106 43.0623 24.0208C43.5124 23.3254 43.9594 22.6281 44.4052 21.9299C44.9412 21.0914 45.4776 20.2532 46.021 19.4194C46.3224 18.9558 46.6182 18.489 46.9114 18.0202C46.9875 17.8993 47.0636 17.7785 47.1419 17.654C47.2908 17.4174 47.4388 17.1804 47.5858 16.9427C48.1922 15.9819 48.8433 14.9567 49.915 14.4856C50.0241 14.4358 50.1332 14.386 50.2457 14.3348C51.2317 13.9335 52.5397 13.9427 53.538 14.3215C54.7235 14.9093 55.3962 15.7409 55.8896 16.9533C56.1875 17.847 56.149 19.1967 55.7324 20.0487C55.6478 20.1949 55.6478 20.1949 55.5615 20.344C55.5244 20.4086 55.4873 20.4732 55.4491 20.5398C54.7321 21.7773 53.9363 22.9676 53.1522 24.1631C52.7016 24.8511 52.258 25.5434 51.8154 26.2365C51.3343 26.9898 50.8527 27.7427 50.3661 28.4924C49.8707 29.256 49.3798 30.0224 48.8896 30.7893C48.3532 31.6283 47.8153 32.4661 47.2733 33.3015C46.7478 34.1124 46.228 34.927 45.7075 35.7412C45.3392 36.3172 44.9708 36.8931 44.5978 37.466C44.5033 37.6121 44.4097 37.7587 44.3172 37.906C44.0536 38.3233 43.7768 38.7183 43.4714 39.1061C42.2431 40.733 42.1152 42.1774 42.1678 44.1572C42.1764 44.5536 42.1757 44.9501 42.176 45.3466C42.1778 46.094 42.1868 46.8411 42.199 47.5884C42.2207 48.9307 42.2302 50.2731 42.2363 51.6156C42.2388 52.0857 42.2446 52.5556 42.2532 53.0256C42.2593 53.3851 42.2621 53.7446 42.2655 54.1041C42.2689 54.2334 42.2722 54.3626 42.2757 54.4958C42.2762 54.6146 42.2768 54.7333 42.2773 54.8557C42.279 54.9585 42.2807 55.0613 42.2824 55.1673C42.1893 55.579 41.9926 55.7336 41.6708 56.0002C41.3399 56.0688 41.3399 56.0688 40.9628 56.069C40.8188 56.0705 40.6748 56.0719 40.5264 56.0734C40.3668 56.0722 40.2071 56.0709 40.0475 56.0697C39.8778 56.0703 39.7081 56.0712 39.5383 56.0722C39.0717 56.0745 38.6052 56.0734 38.1385 56.0717C37.6354 56.0705 37.1323 56.0724 36.6292 56.0739C35.6435 56.0763 34.6578 56.0758 33.6721 56.0742C32.8712 56.073 32.0702 56.0728 31.2693 56.0734C31.0984 56.0735 31.0984 56.0735 30.9241 56.0736C30.6927 56.0738 30.4613 56.074 30.23 56.0742C28.0592 56.0757 25.8885 56.0739 23.7178 56.071C21.8544 56.0686 19.991 56.069 18.1275 56.0715C15.9647 56.0744 13.8019 56.0756 11.639 56.0739C11.4085 56.0737 11.178 56.0736 10.9474 56.0734C10.834 56.0733 10.7205 56.0732 10.6037 56.0731C9.80348 56.0727 9.00331 56.0735 8.20312 56.0747C7.22824 56.0763 6.25338 56.0759 5.2785 56.073C4.7809 56.0715 4.28334 56.071 3.78573 56.0728C3.33045 56.0744 2.87525 56.0735 2.41998 56.0706C2.25505 56.07 2.0901 56.0703 1.92517 56.0716C1.70141 56.0733 1.47762 56.0713 1.25387 56.069C1.06723 56.0689 1.06723 56.0689 0.876824 56.0688C0.441232 55.9785 0.276051 55.7934 -0.00103784 55.4533C-0.069746 55.1753 -0.069746 55.1753 -0.0700648 54.8778C-0.0714356 54.7658 -0.0728064 54.6537 -0.0742188 54.5383C-0.0727686 54.4184 -0.0713185 54.2985 -0.0698245 54.175C-0.0700883 54.0509 -0.0703521 53.9267 -0.0706239 53.7988C-0.0705169 53.5366 -0.0690523 53.2743 -0.0663264 53.0122C-0.0625745 52.611 -0.064067 52.2101 -0.0661929 51.8089C-0.0654383 51.554 -0.0643804 51.2991 -0.0629885 51.0442C-0.063531 50.9243 -0.0640735 50.8044 -0.0646324 50.6809C-0.0518022 49.8508 -0.0518022 49.8508 0.206657 49.4181C0.58204 49.0928 0.93759 49.0819 1.42084 49.1096C1.73529 49.219 1.73529 49.219 1.96771 49.4377C2.29584 50.2033 2.29584 50.2033 2.29584 53.8127C14.7121 53.8127 27.1283 53.8127 39.9208 53.8127C39.8667 49.1566 39.8667 49.1566 39.8115 44.4065C39.1618 44.8757 38.5121 45.3449 37.8427 45.8283C36.913 46.4846 36.913 46.4846 36.4554 46.8063C35.8647 47.2232 35.2801 47.6486 34.6969 48.0759C34.3201 48.3501 33.9402 48.6193 33.5515 48.8763C33.4845 48.9209 33.4176 48.9654 33.3486 49.0113C33.0197 49.166 32.7315 49.15 32.3799 49.0831C32.0824 48.9734 31.8771 48.8156 31.6959 48.5542C31.5183 48.128 31.5685 47.7014 31.6083 47.2502C31.6171 47.1387 31.6258 47.0272 31.6348 46.9123C31.6594 46.6235 31.687 46.3353 31.7177 46.0471C30.2537 46.4804 29.3087 47.3819 28.5757 48.705C28.4033 48.9351 28.2688 49.0127 27.999 49.1096C27.6571 49.1331 27.3442 49.0935 27.0146 49.0002C26.5992 48.6368 26.5337 48.3299 26.4677 47.7971C26.4615 47.5229 26.4609 47.2485 26.4647 46.9742C26.4661 46.8158 26.4675 46.6575 26.4688 46.4991C26.4715 46.2527 26.4745 46.0062 26.4782 45.7598C26.4815 45.5197 26.4835 45.2797 26.4852 45.0396C26.4871 44.8972 26.4889 44.7547 26.4908 44.608C26.4454 43.7792 26.4454 43.7792 26.0302 43.094C24.5927 43.129 23.0784 44.667 22.1367 45.6438C21.3478 46.5263 20.6919 47.4586 20.1116 48.4884C19.8865 48.808 19.7099 48.9449 19.3583 49.1096C18.8661 49.1812 18.6542 49.1461 18.2236 48.8908C17.9443 48.5717 17.809 48.3656 17.7891 47.9372C18.0278 46.3705 19.7185 44.7428 20.7802 43.6408C20.8504 43.5637 20.9206 43.4866 20.993 43.4071C22.2002 42.1189 24.0611 40.7091 25.8798 40.6467C26.699 40.6577 27.3068 40.8795 27.8973 41.4555C28.6882 42.4003 28.8266 43.4325 28.9833 44.6252C29.0338 44.5895 29.0843 44.5539 29.1363 44.5171C30.0824 43.8832 31.0166 43.6474 32.1552 43.7502C32.2274 43.7863 32.2996 43.8224 32.374 43.8596C32.3904 43.7616 32.3904 43.7616 32.4072 43.6616C32.4988 43.1184 32.5931 42.5758 32.6906 42.0335C32.7647 41.6201 32.8318 41.2074 32.8879 40.7911C33.0913 39.4292 33.6724 38.4927 34.4607 37.3809C34.8442 36.8287 35.1998 36.2585 35.5595 35.6906C35.7089 35.4566 35.8585 35.2226 36.0081 34.9887C36.0789 34.8779 36.1497 34.7672 36.2227 34.6531C36.5335 34.1681 36.8469 33.6847 37.1605 33.2015C37.7024 32.3654 38.2384 31.5254 38.7745 30.6855C38.8459 30.5738 38.9172 30.4621 38.9907 30.3471C39.0541 30.2478 39.1175 30.1485 39.1827 30.0462C39.374 29.7502 39.374 29.7502 39.6011 29.4724C39.8832 28.9649 39.8729 28.5648 39.8682 27.9936C39.869 27.8834 39.8699 27.7732 39.8707 27.6597C39.8729 27.2897 39.872 26.9196 39.8712 26.5496C39.8721 26.2801 39.8733 26.0106 39.8746 25.7411C39.8773 25.0924 39.8781 24.4437 39.878 23.795C39.8779 23.0444 39.8806 22.2939 39.8833 21.5433C39.8891 19.5622 39.891 17.581 39.8935 15.5998C39.9025 11.1738 39.9115 6.74783 39.9208 2.18772C27.5046 2.18772 15.0883 2.18772 2.29584 2.18772C2.29964 4.95805 2.30345 7.72839 2.30737 10.5827C2.30905 12.3337 2.31064 14.0848 2.31186 15.8359C2.3125 16.7555 2.31316 17.675 2.31386 18.5946C2.31395 18.7099 2.31403 18.8251 2.31412 18.9439C2.31555 20.8053 2.31814 22.6667 2.32115 24.5282C2.32422 26.4381 2.32604 28.348 2.32671 30.2579C2.32716 31.4367 2.32858 32.6155 2.33125 33.7943C2.33298 34.6023 2.33351 35.4103 2.33308 36.2184C2.33287 36.6847 2.33319 37.1511 2.33495 37.6175C2.33655 38.0445 2.33663 38.4715 2.33551 38.8985C2.33537 39.053 2.33578 39.2074 2.33681 39.3618C2.34721 41.0176 2.34721 41.0176 1.78314 41.6653C1.40863 41.8373 1.05486 41.8552 0.655212 41.7815C0.347865 41.5853 0.161996 41.4513 -0.00103784 41.1252C-0.0119183 40.9057 -0.0155679 40.6859 -0.0160238 40.4661C-0.0165788 40.3247 -0.0171338 40.1832 -0.0177056 40.0375C-0.0177715 39.879 -0.0178261 39.7206 -0.0178707 39.5621C-0.0183096 39.3949 -0.018795 39.2277 -0.0193232 39.0606C-0.0206345 38.5995 -0.0212502 38.1384 -0.0217492 37.6772C-0.0223996 37.1806 -0.0236697 36.684 -0.0248435 36.1873C-0.0275278 34.9872 -0.0291258 33.787 -0.0305375 32.5868C-0.0309433 32.2481 -0.0313779 31.9093 -0.0318229 31.5705C-0.0345828 29.4681 -0.0369957 27.3658 -0.0383557 25.2634C-0.0386762 24.7762 -0.0390001 24.2891 -0.0393298 23.8019C-0.0394114 23.6808 -0.039493 23.5597 -0.0395771 23.435C-0.0409618 21.4723 -0.0445965 19.5097 -0.0491518 17.547C-0.053787 15.5335 -0.0563688 13.52 -0.0569408 11.5065C-0.0573147 10.3754 -0.0586062 9.24426 -0.062202 8.11313C-0.0652586 7.15005 -0.0664703 6.18699 -0.0652431 5.22391C-0.0646743 4.73229 -0.0650015 4.2407 -0.0677003 3.74909C-0.0701491 3.29926 -0.0700884 2.84952 -0.0680062 2.39969C-0.0676983 2.23673 -0.0683211 2.07376 -0.0699544 1.91081C-0.0720356 1.68971 -0.0704317 1.46859 -0.0686351 1.2475C-0.0687835 1.12455 -0.0689318 1.00161 -0.0690847 0.874948C0.0833613 0.140447 0.553901 -0.0681041 1.25387 -0.0686036ZM50.3619 17.0435C50.2285 17.2272 50.105 17.4179 49.9833 17.6096C50.4058 18.0758 50.9661 18.375 51.4924 18.7102C51.6856 18.8333 51.8782 18.9574 52.0706 19.0817C52.1918 19.1591 52.313 19.2366 52.4379 19.3164C52.5492 19.3877 52.6605 19.4589 52.7752 19.5323C53.0254 19.7059 53.0254 19.7059 53.2646 19.6877C53.7224 19.0439 53.8164 18.5031 53.7021 17.719C53.5184 17.1855 53.1843 16.8269 52.7177 16.5158C51.8472 16.2257 50.9697 16.3231 50.3619 17.0435ZM48.6708 19.5783C48.6207 19.6582 48.6207 19.6582 48.5694 19.7396C47.932 20.7528 47.2916 21.7638 46.6396 22.7677C46.1833 23.4708 45.7316 24.1768 45.2802 24.883C44.7439 25.722 44.2059 26.5599 43.6639 27.3952C43.2155 28.0873 42.7713 28.782 42.3271 29.4768C41.7907 30.3158 41.2528 31.1536 40.7108 31.989C40.1854 32.7997 39.6658 33.614 39.1455 34.428C38.7225 35.0895 38.2977 35.7498 37.8701 36.4084C37.4326 37.0837 36.997 37.7602 36.5644 38.4387C36.4774 38.5739 36.4774 38.5739 36.3887 38.7119C36.3357 38.7953 36.2827 38.8787 36.2281 38.9646C36.1808 39.0387 36.1335 39.1128 36.0847 39.1891C35.9659 39.3719 35.9659 39.3719 35.9833 39.594C36.2445 39.7723 36.5054 39.9376 36.7763 40.0998C36.9365 40.1976 37.0966 40.2956 37.2565 40.3938C37.3367 40.4428 37.4168 40.4919 37.4994 40.5425C38.0242 40.8683 38.5346 41.2161 39.0458 41.5627C39.4973 41.1647 39.7797 40.6824 40.0917 40.175C40.2097 39.9857 40.3278 39.7964 40.4459 39.6072C40.5049 39.5124 40.564 39.4177 40.6248 39.32C40.8691 38.9302 41.1191 38.5441 41.3701 38.1584C41.8748 37.3813 42.3749 36.6013 42.874 35.8205C43.4103 34.9815 43.9482 34.1437 44.4902 33.3083C44.9387 32.6163 45.3829 31.9216 45.8271 31.2268C46.3634 30.3878 46.9014 29.5499 47.4434 28.7146C47.8918 28.0226 48.336 27.3278 48.7802 26.633C49.2865 25.8411 49.7936 25.0498 50.3046 24.261C50.3518 24.1879 50.399 24.1149 50.4477 24.0396C50.6802 23.68 50.9143 23.3214 51.1506 22.9643C51.197 22.8936 51.2434 22.8229 51.2912 22.7501C51.3782 22.6175 51.4658 22.4854 51.5541 22.3537C51.748 22.057 51.8427 21.9096 51.8427 21.5471C51.6779 21.4012 51.6779 21.4012 51.4543 21.2788C51.3716 21.2294 51.2888 21.18 51.2035 21.1292C51.1144 21.0776 51.0253 21.026 50.9335 20.9729C50.753 20.8657 50.5726 20.7585 50.3922 20.6512C50.3038 20.599 50.2153 20.5468 50.1242 20.493C49.6322 20.2 49.1519 19.8888 48.6708 19.5783ZM35.1083 41.7815C35.0119 42.2446 34.9165 42.7079 34.8219 43.1714C34.7896 43.3291 34.7571 43.4867 34.7242 43.6443C34.6771 43.8706 34.6309 44.0971 34.585 44.3236C34.5569 44.4599 34.5288 44.5962 34.4999 44.7367C34.4216 45.0539 34.4216 45.0539 34.5615 45.2815C34.8533 45.0766 35.1449 44.8714 35.4365 44.6662C35.5178 44.6091 35.5992 44.552 35.683 44.4932C36.2281 44.1093 36.7648 43.7159 37.2958 43.3127C37.1702 42.9358 37.0995 42.8963 36.7767 42.6894C36.6942 42.6361 36.6116 42.5829 36.5266 42.5281C36.4398 42.4734 36.353 42.4188 36.2636 42.3625C36.1773 42.3066 36.0909 42.2507 36.0019 42.1931C35.5861 41.8935 35.5861 41.8935 35.1083 41.7815Z" fill="#0499FC"/>
<path d="M9.51236 5.0031C9.63213 5.00272 9.75189 5.00233 9.87529 5.00194C10.2704 5.00098 10.6654 5.00161 11.0605 5.00235C11.3353 5.00221 11.6102 5.00199 11.885 5.00172C12.4607 5.0014 13.0363 5.00184 13.6119 5.00289C14.2767 5.00408 14.9415 5.00369 15.6063 5.00249C16.2469 5.00137 16.8876 5.00149 17.5282 5.00213C17.8004 5.00228 18.0725 5.0021 18.3447 5.00159C18.7249 5.00104 19.105 5.00188 19.4851 5.0031C19.5977 5.00266 19.7103 5.00221 19.8263 5.00176C19.9301 5.00238 20.0339 5.00299 20.1408 5.00363C20.2755 5.00375 20.2755 5.00375 20.4129 5.00388C20.872 5.05278 21.1388 5.17109 21.4678 5.49856C21.6825 5.83948 21.7103 6.01701 21.7098 6.41626C21.7107 6.5397 21.7117 6.66314 21.7126 6.79032C21.7114 6.92471 21.7101 7.0591 21.7089 7.19757C21.7093 7.3399 21.7097 7.48223 21.7101 7.62887C21.7112 8.01846 21.7095 8.40801 21.7073 8.7976C21.7054 9.20553 21.7058 9.61347 21.7058 10.0214C21.7056 10.7063 21.7037 11.3912 21.7008 12.0761C21.6973 12.8678 21.6962 13.6595 21.6963 14.4512C21.6965 15.2944 21.695 16.1376 21.6929 16.9808C21.6925 17.2237 21.6923 17.4666 21.6922 17.7095C21.692 18.1619 21.6898 18.6144 21.6875 19.0669C21.6876 19.2015 21.6877 19.3361 21.6878 19.4748C21.6869 19.5979 21.6859 19.7211 21.685 19.8479C21.6846 19.9549 21.6843 20.0619 21.6839 20.1721C21.6543 20.4675 21.597 20.6424 21.437 20.8908C20.8491 21.3097 20.2429 21.2653 19.5502 21.2614C19.4273 21.2619 19.3043 21.2625 19.1776 21.2631C18.7719 21.2645 18.3662 21.2636 17.9605 21.2625C17.6783 21.2627 17.3961 21.263 17.1139 21.2634C16.5228 21.2639 15.9317 21.2632 15.3406 21.2617C14.6579 21.2599 13.9752 21.2605 13.2926 21.2623C12.6347 21.264 11.9769 21.2638 11.3191 21.2628C11.0396 21.2626 10.7602 21.2629 10.4807 21.2636C10.0903 21.2645 9.69996 21.2632 9.30958 21.2614C9.13612 21.2624 9.13612 21.2624 8.95915 21.2634C7.96659 21.2548 7.96659 21.2548 7.54636 20.8908C7.22967 20.5421 7.17699 20.3152 7.17583 19.8479C7.17475 19.7248 7.17367 19.6017 7.17255 19.4748C7.17329 19.2729 7.17329 19.2729 7.17404 19.0669C7.17329 18.9248 7.17254 18.7826 7.17177 18.6362C7.1698 18.2466 7.16993 17.857 7.17056 17.4674C7.1709 17.142 7.17023 16.8167 7.16957 16.4913C7.16803 15.7237 7.1682 14.9561 7.16945 14.1885C7.1707 13.3968 7.16917 12.6052 7.16623 11.8135C7.16381 11.1336 7.16308 10.4537 7.16373 9.77371C7.16409 9.36771 7.16383 8.96175 7.16195 8.55576C7.15994 8.103 7.16148 7.65033 7.16336 7.19757C7.1623 7.06318 7.16125 6.92878 7.16016 6.79032C7.16123 6.66688 7.16231 6.54344 7.16342 6.41626C7.16344 6.30925 7.16346 6.20224 7.16348 6.09199C7.23416 5.71123 7.39069 5.52743 7.65574 5.25016C8.24103 4.95425 8.87146 5.00057 9.51236 5.0031ZM9.51511 7.32828C9.51511 9.85484 9.51511 12.3814 9.51511 14.9845C10.0926 14.6958 10.6701 14.407 11.2651 14.1095C11.1929 13.9223 11.1207 13.7351 11.0464 13.5421C10.6563 12.3581 10.7183 11.2925 11.2651 10.172C11.7046 9.33345 12.4509 8.84302 13.3364 8.54508C14.394 8.27047 15.3623 8.39485 16.3382 8.87961C17.116 9.34494 17.6576 10.0107 17.9554 10.868C18.2149 12.0023 18.0974 13.0605 17.6089 14.1095C17.7169 14.1635 17.8249 14.2175 17.9361 14.2732C18.6475 14.6288 18.6475 14.6288 19.3589 14.9845C19.3589 12.458 19.3589 9.93141 19.3589 7.32828C16.1104 7.32828 12.862 7.32828 9.51511 7.32828ZM13.1245 11.3752C12.9925 11.771 12.9798 12.0524 13.0151 12.4689C13.2406 12.8876 13.4681 13.2242 13.8901 13.4533C14.3211 13.565 14.5739 13.5905 14.9975 13.4464C15.4318 13.1538 15.7973 12.8771 15.908 12.3399C15.9366 11.7541 15.8242 11.3828 15.4214 10.9377C14.544 10.3777 13.7895 10.587 13.1245 11.3752ZM10.3969 17.2609C10.0332 17.7147 9.62449 18.3214 9.62449 18.922C12.8007 18.922 15.977 18.922 19.2495 18.922C19.0398 17.8735 18.5933 17.2491 17.7182 16.6252C16.6787 16.0343 15.6433 15.8173 14.4575 15.8253C14.3617 15.826 14.2659 15.8266 14.1672 15.8272C12.7639 15.8534 11.388 16.2023 10.3969 17.2609Z" fill="#0499FC"/>
<path d="M8.54295 24.0473C8.63746 24.0468 8.73198 24.0462 8.82936 24.0456C8.93382 24.0456 9.03828 24.0455 9.1459 24.0455C9.31164 24.0448 9.31164 24.0448 9.48072 24.044C9.85336 24.0426 10.226 24.0419 10.5987 24.0412C10.8649 24.0404 11.1311 24.0394 11.3973 24.0385C12.1979 24.0359 12.9985 24.0342 13.7991 24.0328C14.0252 24.0324 14.2513 24.032 14.4774 24.0315C15.881 24.0288 17.2846 24.0264 18.6882 24.025C19.0134 24.0247 19.3386 24.0243 19.6637 24.024C19.7446 24.0239 19.8254 24.0239 19.9087 24.0238C21.2181 24.0224 22.5275 24.0188 23.8369 24.0142C25.1809 24.0096 26.5249 24.007 27.8689 24.0064C28.6236 24.006 29.3784 24.0047 30.1331 24.0011C30.843 23.9978 31.5529 23.9972 32.2629 23.9985C32.5236 23.9985 32.7844 23.9976 33.0451 23.9956C33.4008 23.9932 33.7563 23.9941 34.112 23.9958C34.2672 23.9935 34.2672 23.9935 34.4256 23.9912C34.9013 23.997 35.2285 24.0184 35.6097 24.3194C35.9733 24.7159 35.9987 24.9899 36.0025 25.5081C36.0035 25.6245 36.0046 25.741 36.0057 25.861C36.0064 26.0496 36.0064 26.0496 36.0071 26.2421C36.0077 26.3715 36.0083 26.5008 36.009 26.634C36.01 26.9078 36.0107 27.1816 36.0111 27.4554C36.0122 27.8743 36.0156 28.2932 36.019 28.712C36.0198 28.9779 36.0203 29.2438 36.0208 29.5097C36.0221 29.635 36.0235 29.7604 36.0248 29.8895C36.0245 30.0067 36.0242 30.1238 36.0239 30.2445C36.0243 30.3472 36.0246 30.4499 36.0251 30.5558C35.9652 30.9842 35.7828 31.2535 35.4933 31.5679C35.0599 31.8061 34.6314 31.7637 34.1447 31.7602C34.0344 31.7607 33.9241 31.7613 33.8104 31.7618C33.4397 31.7631 33.069 31.7621 32.6983 31.761C32.433 31.7615 32.1676 31.762 31.9023 31.7628C31.2557 31.7641 30.6092 31.7639 29.9626 31.763C29.4371 31.7622 28.9117 31.7621 28.3862 31.7625C28.274 31.7625 28.274 31.7625 28.1596 31.7626C28.0078 31.7627 27.8559 31.7628 27.704 31.7629C26.2794 31.7639 24.8549 31.7628 23.4303 31.761C22.2079 31.7596 20.9855 31.7598 19.7632 31.7613C18.3439 31.7631 16.9246 31.7638 15.5054 31.7628C15.354 31.7627 15.2027 31.7626 15.0513 31.7625C14.9769 31.7624 14.9024 31.7624 14.8257 31.7623C14.3009 31.762 13.7761 31.7625 13.2512 31.7633C12.5448 31.7643 11.8384 31.7636 11.132 31.7617C10.8724 31.7612 10.6128 31.7614 10.3533 31.7621C9.9995 31.763 9.64581 31.7619 9.29205 31.7602C9.13722 31.7613 9.13722 31.7613 8.97925 31.7624C8.44922 31.7577 8.08558 31.7387 7.65674 31.3904C7.41662 31.0496 7.40938 30.7499 7.40621 30.3397C7.40482 30.2166 7.40342 30.0936 7.40199 29.9669C7.40174 29.8345 7.4015 29.7021 7.40125 29.5657C7.40052 29.4292 7.39979 29.2927 7.39904 29.1521C7.39793 28.8635 7.39733 28.575 7.39746 28.2864C7.39748 27.9173 7.39449 27.5484 7.39072 27.1794C7.3877 26.8264 7.38783 26.4734 7.38758 26.1204C7.386 25.9882 7.38443 25.856 7.38281 25.7198C7.38349 25.5965 7.38416 25.4731 7.38485 25.346C7.38454 25.2378 7.38423 25.1296 7.38391 25.0181C7.45306 24.6351 7.61015 24.4509 7.87549 24.1717C8.12569 24.0466 8.26485 24.0482 8.54295 24.0473ZM9.73487 26.3592C9.73487 27.3698 9.73487 28.3804 9.73487 29.4217C17.6394 29.4217 25.5439 29.4217 33.688 29.4217C33.688 28.4111 33.688 27.4004 33.688 26.3592C25.7835 26.3592 17.8789 26.3592 9.73487 26.3592Z" fill="#0499FC"/>
<path d="M9.41491 34.7398C9.54554 34.7389 9.67618 34.738 9.81077 34.737C9.95261 34.7377 10.0944 34.7383 10.2406 34.739C10.3926 34.7386 10.5447 34.738 10.6967 34.7373C11.1085 34.7358 11.5202 34.7364 11.9319 34.7374C12.3634 34.7382 12.7949 34.7375 13.2264 34.7369C13.9509 34.7364 14.6754 34.7371 15.3999 34.7387C16.2368 34.7405 17.0737 34.7399 17.9105 34.7381C18.6299 34.7366 19.3492 34.7364 20.0686 34.7373C20.4978 34.7378 20.9271 34.7378 21.3564 34.7368C21.76 34.7358 22.1636 34.7365 22.5673 34.7384C22.7855 34.739 23.0038 34.738 23.222 34.737C23.3527 34.7379 23.4833 34.7389 23.6179 34.7398C23.731 34.7399 23.8441 34.7401 23.9606 34.7402C24.3463 34.7897 24.6067 34.9087 24.9383 35.1096C25.2313 35.5491 25.2332 35.9055 25.157 36.4221C24.9608 36.736 24.8308 36.9133 24.5008 37.0784C24.2916 37.0898 24.0821 37.0941 23.8727 37.0952C23.7389 37.0961 23.6052 37.0971 23.4675 37.098C23.3185 37.0985 23.1695 37.099 23.0205 37.0995C22.8642 37.1003 22.7079 37.1012 22.5516 37.1022C22.0375 37.105 21.5234 37.1067 21.0093 37.1083C20.8324 37.1088 20.6555 37.1094 20.4785 37.11C19.7426 37.1124 19.0066 37.1144 18.2706 37.1157C17.2157 37.1174 16.1608 37.1211 15.1059 37.1273C14.3642 37.1315 13.6226 37.1337 12.881 37.1343C12.438 37.1347 11.9951 37.136 11.5521 37.1395C11.1351 37.1428 10.7183 37.1435 10.3014 37.1422C10.1485 37.1422 9.99571 37.1431 9.8429 37.145C8.54535 37.1604 8.54535 37.1604 8.11511 36.8244C7.81311 36.4548 7.75805 36.2418 7.7664 35.7659C7.90583 35.3394 8.00808 35.1616 8.39439 34.9293C8.76697 34.7748 9.01424 34.7403 9.41491 34.7398Z" fill="#0499FC"/>
<path d="M27.3145 16.8C27.4395 16.7989 27.4395 16.7989 27.567 16.7977C27.8414 16.7957 28.1157 16.7962 28.3901 16.7968C28.5815 16.7963 28.7729 16.7957 28.9643 16.795C29.365 16.7941 29.7658 16.7943 30.1665 16.7954C30.6794 16.7967 31.1921 16.7945 31.7049 16.7913C32.1001 16.7893 32.4952 16.7893 32.8903 16.7899C33.0793 16.7899 33.2684 16.7893 33.4574 16.7879C33.7221 16.7863 33.9866 16.7875 34.2513 16.7893C34.3677 16.7878 34.3677 16.7878 34.4864 16.7861C35.034 16.7942 35.3423 16.9425 35.7665 17.2817C36.0022 17.5686 35.9974 17.7991 35.9716 18.1567C35.9076 18.5711 35.7791 18.7736 35.4384 19.0317C35.1053 19.1983 34.7576 19.1601 34.392 19.1622C34.3066 19.1631 34.2212 19.164 34.1332 19.1649C33.8499 19.1676 33.5667 19.1694 33.2834 19.171C33.1383 19.1719 33.1383 19.1719 32.9903 19.1728C32.4782 19.1757 31.9662 19.1778 31.4541 19.1794C30.9254 19.1812 30.3968 19.1861 29.8682 19.1917C29.4615 19.1954 29.0549 19.1966 28.6482 19.1972C28.4534 19.198 28.2585 19.1996 28.0637 19.2023C27.7906 19.2057 27.5177 19.2057 27.2446 19.2049C27.1644 19.2067 27.0843 19.2085 27.0017 19.2103C26.5827 19.2053 26.3094 19.1426 25.9842 18.8872C25.635 18.522 25.5859 18.3303 25.5947 17.8286C25.7262 17.4486 25.8373 17.2383 26.1562 16.9922C26.5477 16.8073 26.8905 16.7973 27.3145 16.8Z" fill="#0499FC"/>
<path d="M27.3145 11.9875C27.4395 11.9864 27.4395 11.9864 27.567 11.9852C27.8414 11.9832 28.1157 11.9837 28.3901 11.9843C28.5815 11.9838 28.7729 11.9832 28.9643 11.9825C29.365 11.9816 29.7658 11.9818 30.1665 11.9829C30.6794 11.9842 31.1921 11.982 31.7049 11.9788C32.1001 11.9768 32.4952 11.9768 32.8903 11.9774C33.0793 11.9774 33.2684 11.9768 33.4574 11.9754C33.7221 11.9738 33.9866 11.975 34.2513 11.9768C34.3677 11.9753 34.3677 11.9753 34.4864 11.9736C35.034 11.9817 35.3423 12.13 35.7665 12.4692C36.0022 12.7561 35.9974 12.9866 35.9716 13.3442C35.9076 13.7586 35.7791 13.9611 35.4384 14.2192C35.1053 14.3858 34.7576 14.3476 34.392 14.3497C34.3066 14.3506 34.2212 14.3515 34.1332 14.3524C33.8499 14.3551 33.5667 14.3569 33.2834 14.3585C33.1383 14.3594 33.1383 14.3594 32.9903 14.3603C32.4782 14.3632 31.9662 14.3653 31.4541 14.3669C30.9254 14.3687 30.3968 14.3736 29.8682 14.3792C29.4615 14.3829 29.0549 14.3841 28.6482 14.3847C28.4534 14.3855 28.2585 14.3871 28.0637 14.3898C27.7906 14.3932 27.5177 14.3932 27.2446 14.3924C27.1644 14.3942 27.0843 14.396 27.0017 14.3978C26.5827 14.3928 26.3094 14.3301 25.9842 14.0747C25.635 13.7095 25.5859 13.5178 25.5947 13.0161C25.7262 12.6361 25.8373 12.4258 26.1562 12.1797C26.5477 11.9948 26.8905 11.9848 27.3145 11.9875Z" fill="#0499FC"/>
<path d="M27.4162 7.17635C27.538 7.17549 27.538 7.17549 27.6622 7.17461C27.929 7.17318 28.1956 7.17412 28.4623 7.17523C28.6487 7.17501 28.835 7.17469 29.0213 7.17428C29.4111 7.1738 29.8009 7.1745 30.1907 7.17603C30.6894 7.1779 31.1881 7.17683 31.6868 7.17486C32.0713 7.17367 32.4558 7.17405 32.8404 7.1749C33.0242 7.17512 33.2081 7.17486 33.3919 7.17409C33.6492 7.17325 33.9064 7.17453 34.1637 7.17635C34.2391 7.17569 34.3144 7.17503 34.3921 7.17434C34.8918 7.18087 35.2316 7.28727 35.6572 7.54694C35.9641 7.89345 35.9853 8.06334 35.9853 8.53131C35.9534 8.86085 35.8618 8.98665 35.6516 9.25193C35.2501 9.58028 34.9509 9.59325 34.4541 9.58645C34.3676 9.58741 34.2811 9.58837 34.1919 9.58935C33.9068 9.59175 33.6219 9.59017 33.3368 9.58832C33.1381 9.58869 32.9393 9.58922 32.7406 9.5899C32.3244 9.59071 31.9082 9.58954 31.492 9.58698C30.9593 9.58387 30.4267 9.58566 29.894 9.58894C29.4837 9.59092 29.0734 9.59028 28.663 9.58887C28.4667 9.5885 28.2703 9.58895 28.0739 9.59022C27.799 9.59162 27.5243 9.58949 27.2494 9.58645C27.1688 9.58756 27.0881 9.58866 27.005 9.5898C26.5857 9.58125 26.3096 9.51708 25.9839 9.26133C25.6349 8.8965 25.5859 8.7046 25.5947 8.20319C25.7318 7.78373 25.8359 7.60111 26.2118 7.36673C26.6256 7.20008 26.9778 7.17249 27.4162 7.17635Z" fill="#0499FC"/>
<path d="M9.39598 39.3326C9.46969 39.332 9.54339 39.3315 9.61932 39.3309C9.86179 39.3294 10.1042 39.3304 10.3466 39.3315C10.5159 39.3313 10.6852 39.3309 10.8545 39.3305C11.209 39.33 11.5634 39.3307 11.9178 39.3323C12.371 39.3342 12.8242 39.3331 13.2774 39.3311C13.627 39.3299 13.9765 39.3303 14.326 39.3312C14.4931 39.3314 14.6601 39.3311 14.8272 39.3303C15.0612 39.3295 15.2951 39.3308 15.5291 39.3326C15.662 39.3329 15.7949 39.3331 15.9318 39.3334C16.3421 39.3801 16.604 39.4865 16.954 39.7032C17.247 40.1427 17.2489 40.499 17.1727 41.0157C16.9765 41.3296 16.8465 41.5069 16.5165 41.6719C16.2676 41.6848 16.0183 41.6905 15.7691 41.693C15.6923 41.6939 15.6154 41.6948 15.5362 41.6957C15.2814 41.6985 15.0265 41.7003 14.7716 41.7018C14.641 41.7027 14.641 41.7027 14.5078 41.7036C14.0468 41.7065 13.5858 41.7087 13.1247 41.7102C12.6491 41.712 12.1734 41.7169 11.6978 41.7225C11.3316 41.7262 10.9655 41.7275 10.5994 41.7281C10.4241 41.7288 10.2488 41.7305 10.0735 41.7331C9.82762 41.7366 9.58198 41.7366 9.33609 41.7358C9.19637 41.7366 9.05664 41.7375 8.91268 41.7384C8.40622 41.6499 8.23236 41.4913 7.87587 41.1251C7.73765 40.6779 7.73651 40.446 7.88954 40.004C8.28828 39.4192 8.71121 39.334 9.39598 39.3326Z" fill="#0499FC"/>
<path d="M1.64151 44.4062C1.98331 44.6112 1.98331 44.6112 2.18839 44.953C2.29654 45.5028 2.27336 45.9052 1.98331 46.3886C1.49989 46.6786 1.09751 46.7018 0.547764 46.5937C0.205967 46.3886 0.205967 46.3886 0.000889026 46.0468C-0.107257 45.497 -0.0840863 45.0947 0.205967 44.6112C0.68939 44.3212 1.09177 44.298 1.64151 44.4062Z" fill="#0499FC"/>
</g>
<defs>
<clipPath id="clip0_2004_541">
<rect width="56" height="56" fill="white"/>
</clipPath>
</defs>
</svg>
