<svg width="56" height="56" viewBox="0 0 56 56" fill="none" xmlns="http://www.w3.org/2000/svg">
<g clip-path="url(#clip0_2003_206)">
<path d="M3.20673 -0.0285556C3.34383 -0.0292609 3.48092 -0.0299662 3.62217 -0.030693C3.77346 -0.0303712 3.92474 -0.0300283 4.07603 -0.0296664C4.2374 -0.0300752 4.39878 -0.0305786 4.56016 -0.0311682C5.00322 -0.032506 5.44627 -0.0324774 5.88934 -0.0322195C6.36733 -0.0321748 6.84533 -0.0333822 7.32332 -0.0344195C8.25966 -0.0362364 9.19599 -0.0368378 10.1323 -0.0369598C10.8934 -0.0370637 11.6545 -0.0375132 12.4156 -0.0382068C14.5736 -0.0401331 16.7315 -0.0411423 18.8895 -0.0409782C19.064 -0.0409651 19.064 -0.0409651 19.242 -0.0409517C19.4167 -0.0409383 19.4167 -0.0409383 19.5949 -0.0409246C21.4827 -0.0408357 23.3704 -0.0429292 25.2581 -0.0460133C27.1965 -0.0491551 29.1348 -0.0506661 31.0732 -0.0504771C32.1614 -0.0504045 33.2496 -0.0510057 34.3379 -0.0533598C35.2644 -0.0553512 36.1909 -0.0558276 37.1174 -0.0543421C37.59 -0.0536277 38.0626 -0.053616 38.5352 -0.0555132C38.9682 -0.0572332 39.4011 -0.056921 39.834 -0.0550135C39.9904 -0.0546776 40.1467 -0.0550754 40.303 -0.0562954C41.5671 -0.065504 42.4127 0.137822 43.3444 1.0066C44.0239 1.71379 44.2226 2.42972 44.2172 3.38921C44.2176 3.47572 44.218 3.56224 44.2184 3.65138C44.2194 3.94175 44.2189 4.2321 44.2183 4.52247C44.2187 4.73257 44.2192 4.94267 44.2198 5.15277C44.2212 5.73052 44.2211 6.30825 44.2209 6.886C44.2208 7.50893 44.222 8.13187 44.2231 8.75481C44.2249 9.97539 44.2255 11.196 44.2256 12.4166C44.2257 13.4086 44.2262 14.4005 44.2269 15.3925C44.2285 17.7466 44.2298 20.1006 44.2297 22.4546C44.2297 22.5675 44.2297 22.5675 44.2297 22.6827C44.2297 23.0643 44.2297 23.4458 44.2296 23.8274C44.2296 23.9032 44.2296 23.979 44.2296 24.057C44.2296 24.2103 44.2296 24.3635 44.2296 24.5168C44.2295 26.901 44.2311 29.2853 44.2341 31.6695C44.2375 34.3483 44.2393 37.027 44.2391 39.7058C44.2391 41.1241 44.2397 42.5424 44.242 43.9607C44.244 45.1682 44.2445 46.3757 44.243 47.5833C44.2423 48.1994 44.2423 48.8156 44.2442 49.4317C44.2459 49.9958 44.2456 50.5599 44.2437 51.124C44.2433 51.328 44.2437 51.532 44.245 51.7361C44.2527 53.1182 44.1564 54.11 43.1821 55.1549C42.5376 55.7741 41.8693 56.0266 40.9839 56.0277C40.8468 56.0284 40.7098 56.0291 40.5685 56.0299C40.4172 56.0295 40.2659 56.0292 40.1146 56.0288C39.9533 56.0292 39.7919 56.0297 39.6305 56.0303C39.1875 56.0317 38.7444 56.0316 38.3013 56.0314C37.8233 56.0313 37.3453 56.0326 36.8673 56.0336C35.931 56.0354 34.9947 56.036 34.0583 56.0361C33.2972 56.0362 32.5361 56.0367 31.775 56.0374C29.6171 56.0393 27.4591 56.0403 25.3012 56.0401C25.1849 56.0401 25.0685 56.0401 24.9487 56.0401C24.774 56.0401 24.774 56.0401 24.5957 56.0401C22.708 56.04 20.8203 56.0421 18.9326 56.0452C16.9942 56.0483 15.0558 56.0498 13.1175 56.0496C12.0292 56.0496 10.941 56.0502 9.85281 56.0525C8.9263 56.0545 7.99981 56.055 7.0733 56.0535C6.60067 56.0528 6.12807 56.0528 5.65545 56.0547C5.2225 56.0564 4.78959 56.0561 4.35664 56.0542C4.20031 56.0538 4.04397 56.0542 3.88765 56.0555C2.62359 56.0647 1.77801 55.8613 0.846251 54.9926C0.166793 54.2854 -0.0319616 53.5695 -0.0265534 52.61C-0.0269369 52.5234 -0.0273203 52.4369 -0.0277154 52.3478C-0.0287343 52.0574 -0.0281956 51.7671 -0.0276643 51.4767C-0.0280729 51.2666 -0.028576 51.0565 -0.0291659 50.8464C-0.0305057 50.2686 -0.0304748 49.6909 -0.0302171 49.1132C-0.0301725 48.4902 -0.0313795 47.8673 -0.0324174 47.2444C-0.0342354 46.0238 -0.0348356 44.8032 -0.0349575 43.5826C-0.0350614 42.5906 -0.0355107 41.5986 -0.0362046 40.6066C-0.0378177 38.2526 -0.0391631 35.8986 -0.0390487 33.5446C-0.0390453 33.4693 -0.0390417 33.394 -0.0390382 33.3164C-0.0390201 32.9349 -0.0389983 32.5533 -0.0389759 32.1718C-0.0389715 32.096 -0.0389672 32.0202 -0.0389627 31.9421C-0.0389539 31.7889 -0.0389448 31.6356 -0.0389354 31.4824C-0.0388013 29.0981 -0.0404433 26.7139 -0.0434355 24.3296C-0.0467958 21.6509 -0.0486753 18.9721 -0.0484748 16.2934C-0.0484021 14.8751 -0.0490053 13.4568 -0.0513574 12.0384C-0.0533471 10.8309 -0.0538268 9.62342 -0.0523398 8.41591C-0.0516245 7.79975 -0.0516168 7.18361 -0.0535108 6.56745C-0.0552269 6.00335 -0.0549227 5.43929 -0.0530111 4.87519C-0.0526744 4.67116 -0.0530763 4.46713 -0.0542931 4.26311C-0.0619896 2.881 0.0343021 1.88918 1.0086 0.844249C1.65304 0.225085 2.32134 -0.027401 3.20673 -0.0285556ZM2.42151 2.72712C2.16116 3.20442 2.17338 3.67763 2.17471 4.21057C2.17449 4.29395 2.17426 4.37732 2.17403 4.46322C2.17341 4.74422 2.17357 5.02521 2.17372 5.3062C2.17344 5.50905 2.17311 5.7119 2.17274 5.91475C2.17186 6.47345 2.17166 7.03216 2.17158 7.59086C2.17138 8.19292 2.17055 8.79498 2.16982 9.39704C2.16833 10.714 2.16767 12.031 2.16719 13.3481C2.16689 14.17 2.16642 14.992 2.16593 15.814C2.1646 18.0888 2.16347 20.3636 2.1631 22.6385C2.16308 22.7856 2.16305 22.9327 2.16303 23.0798C2.163 23.2272 2.16298 23.3747 2.16296 23.5222C2.16291 23.818 2.16286 24.1138 2.16281 24.4097C2.1628 24.483 2.16279 24.5564 2.16277 24.6319C2.16238 27.0109 2.16063 29.3898 2.15809 31.7687C2.1554 34.2836 2.1539 36.7984 2.15376 39.3132C2.15366 40.6843 2.15303 42.0553 2.15105 43.4263C2.14937 44.5935 2.1488 45.7608 2.14971 46.928C2.15014 47.5238 2.15003 48.1195 2.1485 48.7153C2.14711 49.2605 2.14723 49.8056 2.14856 50.3508C2.14878 50.5482 2.14844 50.7456 2.14749 50.9431C2.14628 51.2112 2.14709 51.4792 2.1484 51.7473C2.14757 51.8241 2.14674 51.901 2.14589 51.9801C2.1517 52.5279 2.27188 52.8948 2.51721 53.3746C2.96617 53.8091 3.42478 53.8257 4.02809 53.8265C4.15879 53.8269 4.28949 53.8273 4.42415 53.8277C4.5679 53.8276 4.71165 53.8275 4.85976 53.8274C5.01388 53.8277 5.16801 53.8281 5.32213 53.8284C5.74616 53.8293 6.17018 53.8295 6.5942 53.8296C7.05132 53.8298 7.50844 53.8306 7.96556 53.8314C8.9653 53.8328 9.96503 53.8335 10.9648 53.834C11.5889 53.8343 12.213 53.8347 12.8371 53.8352C14.5647 53.8366 16.2924 53.8377 18.02 53.8381C18.1859 53.8381 18.1859 53.8381 18.3551 53.8381C18.5213 53.8382 18.5213 53.8382 18.691 53.8382C18.9156 53.8383 19.1402 53.8383 19.3648 53.8384C19.4763 53.8384 19.5877 53.8384 19.7025 53.8384C21.5083 53.8389 23.3141 53.8408 25.12 53.8433C26.9736 53.8459 28.8271 53.8473 30.6807 53.8474C31.7216 53.8475 32.7625 53.8481 33.8034 53.8501C34.6896 53.8518 35.5759 53.8524 36.4621 53.8515C36.9143 53.851 37.3665 53.8511 37.8188 53.8527C38.2328 53.8541 38.6468 53.8539 39.0609 53.8526C39.2815 53.8523 39.5021 53.8536 39.7226 53.8549C40.4179 53.8511 40.9562 53.8366 41.5641 53.484C42.0421 52.99 42.0176 52.4439 42.016 51.7886C42.0162 51.7052 42.0164 51.6218 42.0166 51.5359C42.0173 51.255 42.0171 50.974 42.0169 50.693C42.0172 50.4901 42.0176 50.2873 42.0179 50.0844C42.0188 49.5257 42.019 48.967 42.0191 48.4083C42.0193 47.8062 42.0201 47.2042 42.0209 46.6021C42.0223 45.2851 42.023 43.9681 42.0235 42.6511C42.0238 41.8291 42.0242 41.0072 42.0247 40.1852C42.0261 37.9104 42.0272 35.6355 42.0276 33.3607C42.0276 33.2136 42.0276 33.0665 42.0276 32.9194C42.0277 32.7719 42.0277 32.6245 42.0277 32.477C42.0278 32.1812 42.0278 31.8853 42.0279 31.5895C42.0279 31.5161 42.0279 31.4428 42.0279 31.3672C42.0283 28.9883 42.03 26.6094 42.0326 24.2304C42.0353 21.7156 42.0368 19.2008 42.0369 16.6859C42.037 15.3149 42.0376 13.9439 42.0396 12.5729C42.0413 11.4056 42.0419 10.2384 42.041 9.07115C42.0405 8.4754 42.0406 7.87966 42.0422 7.28391C42.0436 6.73871 42.0434 6.19353 42.0421 5.64833C42.0419 5.45092 42.0422 5.25352 42.0432 5.05611C42.0444 4.788 42.0436 4.51997 42.0423 4.25186C42.0431 4.17503 42.0439 4.09821 42.0448 4.01905C42.039 3.47123 41.9188 3.10436 41.6735 2.62458C41.2245 2.19011 40.7659 2.17344 40.1626 2.17271C39.9665 2.17208 39.9665 2.17208 39.7665 2.17144C39.6228 2.17153 39.479 2.17162 39.3309 2.17172C39.1768 2.17144 39.0227 2.17111 38.8685 2.17074C38.4445 2.16986 38.0205 2.16966 37.5965 2.16958C37.1393 2.16938 36.6822 2.16855 36.2251 2.16781C35.2254 2.16633 34.2256 2.16567 33.2259 2.16519C32.6018 2.16489 31.9777 2.16442 31.3536 2.16393C29.626 2.1626 27.8983 2.16147 26.1707 2.1611C26.0048 2.16106 26.0048 2.16106 25.8356 2.16103C25.6693 2.16099 25.6693 2.16099 25.4997 2.16095C25.2751 2.16091 25.0505 2.16086 24.8258 2.16081C24.7144 2.16078 24.603 2.16076 24.4882 2.16073C22.6824 2.1603 20.8765 2.15839 19.0707 2.15585C17.2171 2.15325 15.3635 2.15189 13.51 2.15176C12.4691 2.15166 11.4282 2.15103 10.3873 2.14905C9.50102 2.14736 8.61478 2.1468 7.72853 2.14771C7.27632 2.14813 6.82412 2.14803 6.37191 2.1465C5.95786 2.14511 5.54383 2.14523 5.12978 2.14656C4.9092 2.14688 4.68861 2.14558 4.46804 2.14422C3.34231 2.14094 3.34231 2.14094 2.42151 2.72712Z" fill="#0499FC"/>
<path d="M53.8492 6.27134C54.9701 6.9674 55.5862 7.83193 56.0017 9.07834C56.0134 9.29392 56.0185 9.50987 56.0203 9.72576C56.0217 9.86184 56.023 9.99792 56.0244 10.1381C56.0254 10.29 56.0264 10.4418 56.0273 10.5937C56.0287 10.7544 56.0301 10.9151 56.0316 11.0758C56.0354 11.5187 56.0386 11.9616 56.0416 12.4045C56.0443 12.7842 56.0473 13.1639 56.0504 13.5436C56.079 17.1566 56.0945 20.7697 56.107 24.3828C56.1086 24.8542 56.1103 25.3256 56.1121 25.7971C56.1127 25.9728 56.1127 25.9728 56.1133 26.1521C56.1204 28.0414 56.1344 29.9305 56.151 31.8197C56.168 33.764 56.1778 35.7083 56.1811 37.6526C56.1832 38.8488 56.1908 40.0446 56.2055 41.2407C56.2151 42.0646 56.2176 42.8883 56.2148 43.7122C56.2135 44.1852 56.2148 44.6576 56.2248 45.1305C56.2776 47.7727 55.7216 49.714 54.4873 52.0518C54.1005 52.7856 53.7754 53.5384 53.4587 54.3049C52.9139 55.6098 52.9139 55.6098 52.3923 56.0002C52.1188 56.0728 52.1188 56.0728 51.8454 56.0686C51.7552 56.07 51.6649 56.0714 51.572 56.0728C51.1733 55.967 51.0218 55.764 50.7517 55.4533C50.5791 55.1548 50.4425 54.8439 50.306 54.5275C50.2657 54.4369 50.2254 54.3462 50.1838 54.2529C50.0552 53.9631 49.9283 53.6726 49.8015 53.3821C49.6792 53.1052 49.5567 52.8284 49.4338 52.5518C49.3495 52.3607 49.2659 52.1691 49.1834 51.9772C48.9723 51.4894 48.7531 51.0138 48.4975 50.5476C47.6096 48.8796 47.5355 47.4002 47.5631 45.5374C47.5638 45.243 47.5641 44.9486 47.5639 44.6541C47.5644 44.0425 47.5691 43.4311 47.5766 42.8195C47.5853 42.1139 47.5881 41.4085 47.5877 40.7028C47.5874 40.019 47.5901 39.3353 47.5947 38.6516C47.5964 38.3623 47.5975 38.0731 47.5979 37.7838C47.5991 37.3815 47.6039 36.9794 47.6097 36.5772C47.6095 36.4581 47.6092 36.3391 47.609 36.2165C47.6261 35.4121 47.6261 35.4121 47.9505 34.9814C48.2598 34.7649 48.4093 34.7073 48.7829 34.7131C48.9183 34.711 48.9183 34.711 49.0563 34.7088C49.4696 34.8186 49.6164 34.989 49.8767 35.3283C49.9554 35.7039 49.9458 36.0722 49.9387 36.4547C49.9388 36.5679 49.9389 36.681 49.939 36.7976C49.9386 37.1711 49.9344 37.5444 49.9301 37.9179C49.929 38.177 49.9283 38.4362 49.9277 38.6953C49.9256 39.377 49.9203 40.0587 49.9142 40.7403C49.9086 41.4361 49.9061 42.1318 49.9034 42.8276C49.8975 44.1925 49.8879 45.5573 49.8767 46.9221C51.176 46.9221 52.4754 46.9221 53.8142 46.9221C53.8142 35.9135 53.8142 24.9049 53.8142 13.5627C52.5148 13.5627 51.2154 13.5627 49.8767 13.5627C49.8795 13.9541 49.8824 14.3456 49.8853 14.7488C49.8944 16.041 49.9005 17.3332 49.905 18.6255C49.9078 19.4091 49.9117 20.1926 49.9179 20.9762C49.9234 21.6592 49.9269 22.3422 49.9281 23.0253C49.9288 23.3869 49.9308 23.7485 49.9345 24.1101C49.9384 24.5139 49.939 24.9176 49.9387 25.3215C49.9407 25.4412 49.9427 25.5609 49.9447 25.6843C49.9392 26.4949 49.9392 26.4949 49.6164 26.9258C49.3066 27.1414 49.1565 27.1994 48.7829 27.1936C48.6927 27.195 48.6024 27.1964 48.5095 27.1978C48.1115 27.0921 47.9499 26.8924 47.6892 26.5783C47.6203 26.2414 47.6203 26.2414 47.6197 25.857C47.6189 25.786 47.618 25.715 47.6171 25.6419C47.615 25.4047 47.6167 25.1678 47.6184 24.9306C47.6177 24.7603 47.6167 24.5899 47.6155 24.4196C47.613 23.9571 47.614 23.4948 47.6157 23.0324C47.6171 22.5475 47.6158 22.0626 47.6149 21.5777C47.6139 20.7626 47.6153 19.9475 47.6179 19.1324C47.6208 18.1925 47.6199 17.2528 47.6169 16.3129C47.6144 15.5045 47.614 14.6961 47.6155 13.8877C47.6163 13.4055 47.6164 12.9234 47.6146 12.4413C47.613 11.9871 47.6142 11.533 47.6173 11.0788C47.618 10.913 47.6178 10.7473 47.6166 10.5815C47.6069 9.12923 47.9111 7.98082 48.9346 6.91263C50.2721 5.78706 52.2686 5.4876 53.8492 6.27134ZM50.2868 8.88694C49.7993 9.653 49.8767 10.3568 49.8767 11.2658C51.176 11.2658 52.4754 11.2658 53.8142 11.2658C53.8633 9.92367 53.8633 9.92367 53.3053 8.75876C52.7284 8.24651 52.2492 8.16454 51.4874 8.17258C50.9421 8.22883 50.6598 8.51396 50.2868 8.88694ZM50.5329 49.219C50.7129 49.6337 50.8929 50.0484 51.073 50.4631C51.1498 50.6403 51.1498 50.6403 51.2283 50.8211C51.2772 50.9339 51.3262 51.0467 51.3767 51.1629C51.422 51.2672 51.4672 51.3714 51.5138 51.4788C51.5843 51.6386 51.6579 51.7971 51.736 51.9533C51.8082 51.9533 51.8804 51.9533 51.9548 51.9533C52.1556 51.5183 52.356 51.083 52.5563 50.6477C52.6137 50.5234 52.6711 50.3991 52.7302 50.2711C52.7845 50.153 52.8388 50.0349 52.8947 49.9132C52.9451 49.8038 52.9955 49.6944 53.0475 49.5817C53.1652 49.3577 53.1652 49.3577 53.1579 49.219C52.2917 49.219 51.4254 49.219 50.5329 49.219Z" fill="#0499FC"/>
<path d="M7.25495 38.2036C7.78041 38.3445 8.0984 38.7006 8.46619 39.0863C8.67299 39.3013 8.88468 39.511 9.09681 39.7208C9.53005 40.1499 9.96021 40.582 10.3888 41.0158C10.7971 40.8459 11.0522 40.5948 11.3599 40.2809C11.4607 40.179 11.5614 40.077 11.6652 39.972C11.7707 39.8642 11.8762 39.7564 11.9816 39.6486C12.1887 39.4374 12.3963 39.2268 12.6041 39.0162C12.6958 38.9226 12.7875 38.8289 12.882 38.7323C13.2485 38.3794 13.4818 38.2465 13.9845 38.2335C14.3857 38.2447 14.5326 38.2739 14.8868 38.4865C15.1315 38.8943 15.1988 39.1593 15.1697 39.6319C15.0288 40.1574 14.6727 40.4754 14.287 40.8431C14.072 41.0499 13.8623 41.2616 13.6525 41.4738C13.2234 41.907 12.7913 42.3372 12.3575 42.7658C12.5274 43.1741 12.7785 43.4291 13.0924 43.7369C13.1943 43.8376 13.2963 43.9384 13.4013 44.0421C13.5091 44.1476 13.6169 44.2531 13.7247 44.3585C13.9359 44.5657 14.1465 44.7733 14.3571 44.981C14.4976 45.1186 14.4976 45.1186 14.641 45.259C14.9939 45.6255 15.1268 45.8588 15.1398 46.3615C15.1286 46.7626 15.0994 46.9096 14.8868 47.2638C14.479 47.5085 14.214 47.5758 13.7414 47.5466C13.2159 47.4058 12.8979 47.0496 12.5302 46.664C12.3234 46.4489 12.1117 46.2393 11.8995 46.0295C11.4663 45.6003 11.0361 45.1683 10.6075 44.7345C10.1992 44.9043 9.94417 45.1554 9.63642 45.4694C9.53568 45.5713 9.43494 45.6732 9.33115 45.7783C9.22565 45.886 9.12019 45.9938 9.01477 46.1017C8.80763 46.3128 8.60004 46.5235 8.39228 46.734C8.25469 46.8745 8.25469 46.8745 8.11433 47.0179C7.7478 47.3709 7.51452 47.5037 7.01184 47.5167C6.61067 47.5056 6.46373 47.4763 6.1095 47.2638C5.8648 46.856 5.79752 46.5909 5.82666 46.1184C5.96751 45.5929 6.32367 45.2749 6.7093 44.9071C6.92435 44.7003 7.13401 44.4886 7.34381 44.2765C7.77295 43.8433 8.20502 43.4131 8.6388 42.9845C8.46895 42.5762 8.21786 42.3211 7.90393 42.0134C7.802 41.9126 7.70006 41.8119 7.59504 41.7081C7.48726 41.6026 7.37946 41.4971 7.27161 41.3917C7.06048 41.1846 6.84981 40.977 6.63929 40.7692C6.5456 40.6775 6.45191 40.5858 6.35538 40.4913C6.00245 40.1247 5.86956 39.8915 5.85657 39.3888C5.86771 38.9876 5.89696 38.8407 6.1095 38.4865C6.51733 38.2418 6.78236 38.1745 7.25495 38.2036Z" fill="#0499FC"/>
<path d="M7.25495 23.3286C7.78041 23.4695 8.0984 23.8256 8.46619 24.2113C8.67299 24.4263 8.88468 24.636 9.09681 24.8458C9.53005 25.2749 9.96021 25.707 10.3888 26.1408C10.7971 25.9709 11.0522 25.7198 11.3599 25.4059C11.4607 25.304 11.5614 25.202 11.6652 25.097C11.7707 24.9892 11.8762 24.8814 11.9816 24.7736C12.1887 24.5624 12.3963 24.3518 12.6041 24.1412C12.6958 24.0476 12.7875 23.9539 12.882 23.8573C13.2485 23.5044 13.4818 23.3715 13.9845 23.3585C14.3857 23.3697 14.5326 23.3989 14.8868 23.6115C15.1315 24.0193 15.1988 24.2843 15.1697 24.7569C15.0288 25.2824 14.6727 25.6004 14.287 25.9681C14.072 26.1749 13.8623 26.3866 13.6525 26.5988C13.2234 27.032 12.7913 27.4622 12.3575 27.8908C12.5274 28.2991 12.7785 28.5541 13.0924 28.8619C13.1943 28.9626 13.2963 29.0634 13.4013 29.1671C13.5091 29.2726 13.6169 29.3781 13.7247 29.4835C13.9359 29.6907 14.1465 29.8983 14.3571 30.106C14.4976 30.2436 14.4976 30.2436 14.641 30.384C14.9939 30.7505 15.1268 30.9838 15.1398 31.4865C15.1286 31.8876 15.0994 32.0346 14.8868 32.3888C14.479 32.6335 14.214 32.7008 13.7414 32.6716C13.2159 32.5308 12.8979 32.1746 12.5302 31.789C12.3234 31.5739 12.1117 31.3643 11.8995 31.1545C11.4663 30.7253 11.0361 30.2933 10.6075 29.8595C10.1992 30.0293 9.94417 30.2804 9.63642 30.5944C9.53568 30.6963 9.43494 30.7982 9.33115 30.9033C9.22565 31.011 9.12019 31.1188 9.01477 31.2267C8.80763 31.4378 8.60004 31.6485 8.39228 31.859C8.25469 31.9995 8.25469 31.9995 8.11433 32.1429C7.7478 32.4959 7.51452 32.6287 7.01184 32.6417C6.61067 32.6306 6.46373 32.6013 6.1095 32.3888C5.8648 31.981 5.79752 31.7159 5.82666 31.2434C5.96751 30.7179 6.32367 30.3999 6.7093 30.0321C6.92435 29.8253 7.13401 29.6136 7.34381 29.4015C7.77295 28.9683 8.20502 28.5381 8.6388 28.1095C8.46895 27.7012 8.21786 27.4461 7.90393 27.1384C7.802 27.0376 7.70006 26.9369 7.59504 26.8331C7.48726 26.7276 7.37946 26.6221 7.27161 26.5167C7.06048 26.3096 6.84981 26.102 6.63929 25.8942C6.5456 25.8025 6.45191 25.7108 6.35538 25.6163C6.00245 25.2497 5.86956 25.0165 5.85657 24.5138C5.86771 24.1126 5.89696 23.9657 6.1095 23.6115C6.51733 23.3668 6.78236 23.2995 7.25495 23.3286Z" fill="#0499FC"/>
<path d="M21.1697 45.2119C21.2403 45.211 21.311 45.2102 21.3838 45.2093C21.6197 45.2071 21.8554 45.2088 22.0913 45.2105C22.2608 45.2098 22.4302 45.2088 22.5997 45.2076C23.0593 45.2051 23.5189 45.2061 23.9786 45.2078C24.4597 45.2092 24.9409 45.2079 25.4221 45.2071C26.2301 45.2061 27.0381 45.2074 27.8461 45.21C28.7801 45.213 29.7141 45.212 30.6481 45.209C31.4502 45.2065 32.2522 45.2062 33.0543 45.2076C33.5333 45.2085 34.0123 45.2086 34.4913 45.2068C34.9416 45.2052 35.3919 45.2063 35.8422 45.2094C36.0074 45.2102 36.1726 45.21 36.3378 45.2088C36.5635 45.2073 36.789 45.2091 37.0146 45.2119C37.1409 45.2121 37.2671 45.2123 37.3971 45.2125C37.836 45.3025 38.0007 45.4856 38.2797 45.8282C38.3523 46.1016 38.3523 46.1016 38.348 46.3751C38.3494 46.4653 38.3508 46.5555 38.3523 46.6485C38.2466 47.0464 38.0467 47.208 37.7328 47.4688C37.3971 47.5376 37.3971 47.5376 37.0146 47.5383C36.9087 47.5395 36.9087 47.5395 36.8005 47.5408C36.5646 47.543 36.3289 47.5413 36.093 47.5396C35.9236 47.5403 35.7541 47.5413 35.5847 47.5425C35.125 47.545 34.6654 47.544 34.2058 47.5423C33.7246 47.5409 33.2434 47.5422 32.7623 47.543C31.9542 47.544 31.1462 47.5427 30.3382 47.5401C29.4042 47.5371 28.4703 47.5381 27.5363 47.5411C26.7342 47.5436 25.9321 47.5439 25.13 47.5425C24.651 47.5417 24.172 47.5415 23.6931 47.5433C23.2427 47.5449 22.7925 47.5438 22.3421 47.5407C22.1769 47.5399 22.0117 47.5402 21.8465 47.5414C21.6208 47.5429 21.3954 47.541 21.1697 47.5383C21.0435 47.538 20.9172 47.5378 20.7872 47.5376C20.3483 47.4476 20.1837 47.2645 19.9047 46.9219C19.832 46.6485 19.832 46.6485 19.8363 46.3751C19.8349 46.2848 19.8335 46.1946 19.832 46.1016C20.0157 45.41 20.507 45.2129 21.1697 45.2119Z" fill="#0499FC"/>
<path d="M21.1697 30.3369C21.2403 30.336 21.311 30.3352 21.3838 30.3343C21.6197 30.3321 21.8554 30.3338 22.0913 30.3355C22.2608 30.3348 22.4302 30.3338 22.5997 30.3326C23.0593 30.3301 23.5189 30.3311 23.9786 30.3328C24.4597 30.3342 24.9409 30.3329 25.4221 30.3321C26.2301 30.3311 27.0381 30.3324 27.8461 30.335C28.7801 30.338 29.7141 30.337 30.6481 30.334C31.4502 30.3315 32.2522 30.3312 33.0543 30.3326C33.5333 30.3335 34.0123 30.3336 34.4913 30.3318C34.9416 30.3302 35.3919 30.3313 35.8422 30.3344C36.0074 30.3352 36.1726 30.335 36.3378 30.3338C36.5635 30.3323 36.789 30.3341 37.0146 30.3369C37.1409 30.3371 37.2671 30.3373 37.3971 30.3375C37.836 30.4275 38.0007 30.6106 38.2797 30.9532C38.3523 31.2266 38.3523 31.2266 38.348 31.5001C38.3494 31.5903 38.3508 31.6805 38.3523 31.7735C38.2466 32.1714 38.0467 32.333 37.7328 32.5938C37.3971 32.6626 37.3971 32.6626 37.0146 32.6633C36.9087 32.6645 36.9087 32.6645 36.8005 32.6658C36.5646 32.668 36.3289 32.6663 36.093 32.6646C35.9236 32.6653 35.7541 32.6663 35.5847 32.6675C35.125 32.67 34.6654 32.669 34.2058 32.6673C33.7246 32.6659 33.2434 32.6672 32.7623 32.668C31.9542 32.669 31.1462 32.6677 30.3382 32.6651C29.4042 32.6621 28.4703 32.6631 27.5363 32.6661C26.7342 32.6686 25.9321 32.6689 25.13 32.6675C24.651 32.6667 24.172 32.6665 23.6931 32.6683C23.2427 32.6699 22.7925 32.6688 22.3421 32.6657C22.1769 32.6649 22.0117 32.6652 21.8465 32.6664C21.6208 32.6679 21.3954 32.666 21.1697 32.6633C21.0435 32.663 20.9172 32.6628 20.7872 32.6626C20.3483 32.5726 20.1837 32.3895 19.9047 32.0469C19.832 31.7735 19.832 31.7735 19.8363 31.5001C19.8349 31.4098 19.8335 31.3196 19.832 31.2266C20.0157 30.535 20.507 30.3379 21.1697 30.3369Z" fill="#0499FC"/>
<path d="M21.1697 15.4619C21.2403 15.461 21.311 15.4602 21.3838 15.4593C21.6197 15.4571 21.8554 15.4588 22.0913 15.4605C22.2608 15.4598 22.4302 15.4588 22.5997 15.4576C23.0593 15.4551 23.5189 15.4561 23.9786 15.4578C24.4597 15.4592 24.9409 15.4579 25.4221 15.4571C26.2301 15.4561 27.0381 15.4574 27.8461 15.46C28.7801 15.463 29.7141 15.462 30.6481 15.459C31.4502 15.4565 32.2522 15.4562 33.0543 15.4576C33.5333 15.4585 34.0123 15.4586 34.4913 15.4568C34.9416 15.4552 35.3919 15.4563 35.8422 15.4594C36.0074 15.4602 36.1726 15.46 36.3378 15.4588C36.5635 15.4573 36.789 15.4591 37.0146 15.4619C37.1409 15.4621 37.2671 15.4623 37.3971 15.4625C37.836 15.5525 38.0007 15.7356 38.2797 16.0782C38.3523 16.3516 38.3523 16.3516 38.348 16.6251C38.3494 16.7153 38.3508 16.8055 38.3523 16.8985C38.2466 17.2964 38.0467 17.458 37.7328 17.7188C37.3971 17.7876 37.3971 17.7876 37.0146 17.7883C36.9087 17.7895 36.9087 17.7895 36.8005 17.7908C36.5646 17.793 36.3289 17.7913 36.093 17.7896C35.9236 17.7903 35.7541 17.7913 35.5847 17.7925C35.125 17.795 34.6654 17.794 34.2058 17.7923C33.7246 17.7909 33.2434 17.7922 32.7623 17.793C31.9542 17.794 31.1462 17.7927 30.3382 17.7901C29.4042 17.7871 28.4703 17.7881 27.5363 17.7911C26.7342 17.7936 25.9321 17.7939 25.13 17.7925C24.651 17.7917 24.172 17.7915 23.6931 17.7933C23.2427 17.7949 22.7925 17.7938 22.3421 17.7907C22.1769 17.7899 22.0117 17.7902 21.8465 17.7914C21.6208 17.7929 21.3954 17.791 21.1697 17.7883C21.0435 17.788 20.9172 17.7878 20.7872 17.7876C20.3483 17.6976 20.1837 17.5145 19.9047 17.1719C19.832 16.8985 19.832 16.8985 19.8363 16.6251C19.8349 16.5348 19.8335 16.4446 19.832 16.3516C20.0157 15.66 20.507 15.4629 21.1697 15.4619Z" fill="#0499FC"/>
<path d="M14.6563 10.9379C14.9412 11.1552 15.066 11.2997 15.1895 11.6351C15.223 12.3377 14.884 12.7161 14.4422 13.2113C14.062 13.6235 13.6674 14.0205 13.2703 14.4165C13.1824 14.5046 13.0944 14.5926 13.0038 14.6834C12.8193 14.8679 12.6348 15.0522 12.4501 15.2365C12.167 15.519 11.8844 15.8021 11.6019 16.0853C11.4221 16.2651 11.2422 16.4448 11.0623 16.6245C10.9779 16.7091 10.8935 16.7938 10.8065 16.881C10.728 16.9592 10.6494 17.0374 10.5685 17.1179C10.4653 17.2211 10.4653 17.2211 10.3599 17.3263C9.93105 17.7235 9.61658 17.8017 9.04872 17.7862C8.509 17.665 8.1897 17.2932 7.81761 16.9024C7.63358 16.7111 7.44457 16.5255 7.25471 16.34C6.98294 16.0731 6.71163 15.8058 6.44295 15.5359C6.3869 15.4797 6.33086 15.4235 6.27312 15.3657C5.87631 14.9309 5.85091 14.6144 5.86659 14.0499C5.90632 13.7816 5.90632 13.7816 6.1114 13.4398C6.51698 13.1965 6.78237 13.1305 7.25215 13.1523C7.84433 13.3179 8.22915 13.7835 8.6407 14.2191C8.75439 14.331 8.86826 14.4427 8.9825 14.5541C9.05017 14.624 9.11785 14.6939 9.18757 14.766C9.5128 14.6201 9.73616 14.4616 9.98388 14.2063C10.0514 14.1373 10.119 14.0683 10.1886 13.9972C10.2605 13.9228 10.3324 13.8484 10.4065 13.7718C10.5611 13.6144 10.7157 13.4571 10.8703 13.2999C11.1126 13.0521 11.3546 12.804 11.596 12.5553C11.8297 12.315 12.0648 12.076 12.3001 11.8372C12.3713 11.763 12.4425 11.6888 12.5159 11.6124C13.1648 10.9566 13.7231 10.5328 14.6563 10.9379Z" fill="#0499FC"/>
<path d="M21.268 38.2103C21.3483 38.2093 21.4286 38.2083 21.5113 38.2074C21.7756 38.205 22.0397 38.2065 22.3041 38.2084C22.4884 38.208 22.6726 38.2075 22.8569 38.2068C23.2427 38.206 23.6284 38.2072 24.0142 38.2097C24.5082 38.2128 25.002 38.2111 25.496 38.2078C25.8764 38.2058 26.2568 38.2064 26.6372 38.2078C26.8193 38.2082 27.0014 38.2078 27.1835 38.2065C27.4383 38.2051 27.6928 38.2072 27.9476 38.2103C28.0225 38.2092 28.0974 38.2081 28.1745 38.2069C28.5859 38.216 28.7566 38.2751 29.0817 38.5354C29.3706 38.904 29.4203 39.1269 29.4203 39.5935C29.2546 40.0327 29.1572 40.2064 28.764 40.4685C28.4961 40.4914 28.2405 40.5018 27.9724 40.502C27.852 40.5034 27.852 40.5034 27.7292 40.5048C27.4638 40.5074 27.1983 40.5084 26.9329 40.5091C26.7483 40.5101 26.5637 40.5111 26.3791 40.5121C25.992 40.5139 25.6049 40.5148 25.2178 40.5151C24.7222 40.5157 24.2266 40.5198 23.7309 40.5248C23.3496 40.528 22.9683 40.5288 22.5869 40.5289C22.4042 40.5294 22.2215 40.5308 22.0388 40.533C21.7829 40.536 21.5273 40.5355 21.2715 40.5341C21.1962 40.5357 21.121 40.5373 21.0435 40.539C20.6256 40.5326 20.46 40.4754 20.1314 40.2081C19.8849 39.8967 19.8302 39.7657 19.8363 39.3748C19.8349 39.2845 19.8335 39.1943 19.832 39.1013C20.0279 38.3638 20.5788 38.2001 21.268 38.2103Z" fill="#0499FC"/>
<path d="M21.268 23.3353C21.3483 23.3343 21.4286 23.3333 21.5113 23.3324C21.7756 23.33 22.0397 23.3315 22.3041 23.3334C22.4884 23.333 22.6726 23.3325 22.8569 23.3318C23.2427 23.331 23.6284 23.3322 24.0142 23.3347C24.5082 23.3378 25.002 23.3361 25.496 23.3328C25.8764 23.3308 26.2568 23.3314 26.6372 23.3328C26.8193 23.3332 27.0014 23.3328 27.1835 23.3315C27.4383 23.3301 27.6928 23.3322 27.9476 23.3353C28.0225 23.3342 28.0974 23.3331 28.1745 23.3319C28.5859 23.341 28.7566 23.4001 29.0817 23.6604C29.3706 24.029 29.4203 24.2519 29.4203 24.7185C29.2546 25.1577 29.1572 25.3314 28.764 25.5935C28.4961 25.6164 28.2405 25.6268 27.9724 25.627C27.852 25.6284 27.852 25.6284 27.7292 25.6298C27.4638 25.6324 27.1983 25.6334 26.9329 25.6341C26.7483 25.6351 26.5637 25.6361 26.3791 25.6371C25.992 25.6389 25.6049 25.6398 25.2178 25.6401C24.7222 25.6407 24.2266 25.6448 23.7309 25.6498C23.3496 25.653 22.9683 25.6538 22.5869 25.6539C22.4042 25.6544 22.2215 25.6558 22.0388 25.658C21.7829 25.661 21.5273 25.6605 21.2715 25.6591C21.1962 25.6607 21.121 25.6623 21.0435 25.664C20.6256 25.6576 20.46 25.6004 20.1314 25.3331C19.8849 25.0217 19.8302 24.8907 19.8363 24.4998C19.8349 24.4095 19.8335 24.3193 19.832 24.2263C20.0279 23.4888 20.5788 23.3251 21.268 23.3353Z" fill="#0499FC"/>
<path d="M21.268 8.46026C21.3483 8.45931 21.4286 8.45835 21.5113 8.45736C21.7756 8.45496 22.0397 8.45654 22.3041 8.4584C22.4884 8.45803 22.6726 8.4575 22.8569 8.45681C23.2427 8.456 23.6284 8.45717 24.0142 8.45973C24.5082 8.46285 25.002 8.46105 25.496 8.45778C25.8764 8.4558 26.2568 8.45643 26.6372 8.45785C26.8193 8.45821 27.0014 8.45777 27.1835 8.45649C27.4383 8.4551 27.6928 8.45722 27.9476 8.46026C28.0225 8.45916 28.0974 8.45805 28.1745 8.45691C28.5859 8.46598 28.7566 8.52507 29.0817 8.78539C29.3706 9.15401 29.4203 9.37686 29.4203 9.84353C29.2546 10.2827 29.1572 10.4564 28.764 10.7185C28.4961 10.7414 28.2405 10.7518 27.9724 10.752C27.852 10.7534 27.852 10.7534 27.7292 10.7548C27.4638 10.7574 27.1983 10.7584 26.9329 10.7591C26.7483 10.7601 26.5637 10.7611 26.3791 10.7621C25.992 10.7639 25.6049 10.7648 25.2178 10.7651C24.7222 10.7657 24.2266 10.7698 23.7309 10.7748C23.3496 10.778 22.9683 10.7788 22.5869 10.7789C22.4042 10.7794 22.2215 10.7808 22.0388 10.783C21.7829 10.786 21.5273 10.7855 21.2715 10.7841C21.1962 10.7857 21.121 10.7873 21.0435 10.789C20.6256 10.7826 20.46 10.7254 20.1314 10.4581C19.8849 10.1467 19.8302 10.0157 19.8363 9.62478C19.8349 9.53454 19.8335 9.44431 19.832 9.35134C20.0279 8.61381 20.5788 8.45008 21.268 8.46026Z" fill="#0499FC"/>
<path d="M33.2817 38.2605C33.3784 38.2587 33.4752 38.257 33.5749 38.2551C34.0176 38.2503 34.4603 38.2458 34.903 38.2433C35.1365 38.2415 35.37 38.2385 35.6035 38.2343C35.9401 38.2283 36.2765 38.2259 36.6132 38.2243C36.7173 38.2218 36.8215 38.2194 36.9288 38.2168C37.436 38.2184 37.6611 38.2245 38.0746 38.5415C38.2996 38.8521 38.3567 38.9963 38.3508 39.3753C38.3522 39.4655 38.3536 39.5558 38.3551 39.6487C38.2455 40.0612 38.0736 40.2087 37.7356 40.4691C37.3652 40.5489 37.0024 40.5432 36.6247 40.5378C36.5175 40.5381 36.4104 40.5384 36.3 40.5386C36.0738 40.5385 35.8476 40.5371 35.6215 40.5344C35.2758 40.5306 34.9304 40.5321 34.5846 40.5342C34.3646 40.5335 34.1446 40.5324 33.9245 40.531C33.8214 40.5316 33.7183 40.5321 33.612 40.5327C33.1438 40.5243 32.8827 40.512 32.4777 40.2601C32.1484 39.9032 32.121 39.6468 32.1254 39.1608C32.1752 38.8141 32.3492 38.6295 32.5949 38.3909C32.8479 38.2645 33 38.2651 33.2817 38.2605Z" fill="#0499FC"/>
<path d="M33.2817 23.3855C33.3784 23.3837 33.4752 23.382 33.5749 23.3801C34.0176 23.3753 34.4603 23.3708 34.903 23.3683C35.1365 23.3665 35.37 23.3635 35.6035 23.3593C35.9401 23.3533 36.2765 23.3509 36.6132 23.3493C36.7173 23.3468 36.8215 23.3444 36.9288 23.3418C37.436 23.3434 37.6611 23.3495 38.0746 23.6665C38.2996 23.9771 38.3567 24.1213 38.3508 24.5003C38.3522 24.5905 38.3536 24.6808 38.3551 24.7737C38.2455 25.1862 38.0736 25.3337 37.7356 25.5941C37.3652 25.6739 37.0024 25.6682 36.6247 25.6628C36.5175 25.6631 36.4104 25.6634 36.3 25.6636C36.0738 25.6635 35.8476 25.6621 35.6215 25.6594C35.2758 25.6556 34.9304 25.6571 34.5846 25.6592C34.3646 25.6585 34.1446 25.6574 33.9245 25.656C33.8214 25.6566 33.7183 25.6571 33.612 25.6577C33.1438 25.6493 32.8827 25.637 32.4777 25.3851C32.1484 25.0282 32.121 24.7718 32.1254 24.2858C32.1752 23.9391 32.3492 23.7545 32.5949 23.5159C32.8479 23.3895 33 23.3901 33.2817 23.3855Z" fill="#0499FC"/>
<path d="M33.2817 8.51047C33.3784 8.50871 33.4752 8.50695 33.5749 8.50514C34.0176 8.50028 34.4603 8.49579 34.903 8.49327C35.1365 8.49146 35.37 8.48847 35.6035 8.4843C35.9401 8.47831 36.2765 8.47591 36.6132 8.47431C36.7173 8.47183 36.8215 8.46935 36.9288 8.4668C37.436 8.46841 37.6611 8.47448 38.0746 8.79149C38.2996 9.10211 38.3567 9.24633 38.3508 9.62531C38.3522 9.71555 38.3536 9.80578 38.3551 9.89875C38.2455 10.3112 38.0736 10.4587 37.7356 10.7191C37.3652 10.7989 37.0024 10.7932 36.6247 10.7878C36.5175 10.7881 36.4104 10.7884 36.3 10.7886C36.0738 10.7885 35.8476 10.7871 35.6215 10.7844C35.2758 10.7806 34.9304 10.7821 34.5846 10.7842C34.3646 10.7835 34.1446 10.7824 33.9245 10.781C33.8214 10.7816 33.7183 10.7821 33.612 10.7827C33.1438 10.7743 32.8827 10.762 32.4777 10.5101C32.1484 10.1532 32.121 9.89682 32.1254 9.41083C32.1752 9.06407 32.3492 8.87946 32.5949 8.64094C32.8479 8.51447 33 8.51511 33.2817 8.51047Z" fill="#0499FC"/>
<path d="M49.329 29.8593C49.6708 30.0644 49.6708 30.0644 49.8759 30.4062C49.984 30.9559 49.9609 31.3583 49.6708 31.8417C49.1874 32.1318 48.785 32.1549 48.2353 32.0468C47.8935 31.8417 47.8935 31.8417 47.6884 31.4999C47.5802 30.9502 47.6034 30.5478 47.8935 30.0644C48.3769 29.7743 48.7793 29.7511 49.329 29.8593Z" fill="#0499FC"/>
</g>
<defs>
<clipPath id="clip0_2003_206">
<rect width="56" height="56" fill="white"/>
</clipPath>
</defs>
</svg>
