<svg width="56" height="56" viewBox="0 0 56 56" fill="none" xmlns="http://www.w3.org/2000/svg">
<g clip-path="url(#clip0_2003_186)">
<path d="M17.8716 -0.0687047C18.1338 -0.0680145 18.3955 -0.0731506 18.6577 -0.0786915C19.8035 -0.088077 20.7557 0.0589979 21.6542 0.847017C21.8285 1.02785 21.9597 1.20981 22.0934 1.42222C22.1382 1.48764 22.183 1.55306 22.2292 1.62047C22.7009 2.45317 22.5667 3.45143 22.5309 4.37535C22.6168 4.37191 22.7027 4.36848 22.7912 4.36493C23.1874 4.35114 23.5837 4.34271 23.9801 4.33433C24.1151 4.32884 24.2502 4.32334 24.3894 4.31767C25.443 4.30103 26.3297 4.50762 27.1283 5.23395C27.4691 5.60186 27.6683 6.00507 27.8902 6.45347C27.9627 6.45339 28.0351 6.4533 28.1098 6.45321C28.8693 6.45294 29.6288 6.45726 30.3883 6.46416C30.6711 6.46613 30.9539 6.46697 31.2367 6.46661C31.6451 6.4663 32.0534 6.47019 32.4618 6.47484C32.5866 6.47384 32.7114 6.47285 32.84 6.47182C33.8233 6.48931 34.666 6.75476 35.4295 7.39662C36.3463 8.38362 36.3757 9.49063 36.3691 10.7728C36.3698 10.9568 36.3706 11.1407 36.3717 11.3247C36.3739 11.8288 36.3734 12.3328 36.3725 12.8368C36.372 13.381 36.3739 13.9252 36.3756 14.4695C36.3784 15.535 36.3788 16.6006 36.3782 17.6662C36.3779 18.5325 36.3782 19.3987 36.3792 20.265C36.3793 20.3883 36.3794 20.5117 36.3796 20.6388C36.3798 20.8893 36.3801 21.1399 36.3804 21.3905C36.3827 23.7399 36.3823 26.0894 36.3809 28.4388C36.3798 30.5873 36.3823 32.7357 36.3864 34.8842C36.3907 37.0911 36.3925 39.2981 36.3916 41.505C36.3912 42.7437 36.3918 43.9824 36.3949 45.221C36.3975 46.2756 36.3978 47.3301 36.3951 48.3847C36.3938 48.9225 36.3936 49.4602 36.3962 49.998C36.3986 50.4909 36.3979 50.9837 36.3949 51.4766C36.3943 51.6543 36.3948 51.8321 36.3965 52.0098C36.4073 53.1844 36.2738 54.2007 35.4654 55.1242C34.6995 55.8607 33.7886 56.0659 32.7586 56.0587C32.6484 56.0596 32.5382 56.0606 32.4246 56.0616C32.0633 56.064 31.702 56.0633 31.3407 56.0623C31.0884 56.0629 30.836 56.0636 30.5837 56.0644C30.0564 56.0655 29.5291 56.065 29.0017 56.0634C28.3258 56.0615 27.65 56.0641 26.9741 56.0679C26.4537 56.0703 25.9334 56.0702 25.413 56.0693C25.1637 56.0692 24.9145 56.0699 24.6652 56.0715C24.3172 56.0734 23.9695 56.0719 23.6215 56.0694C23.5187 56.0707 23.4158 56.0719 23.3098 56.0732C22.812 56.066 22.5989 56.053 22.1938 55.7397C21.9663 55.4293 21.9097 55.2867 21.9156 54.9066C21.9142 54.8164 21.9128 54.7261 21.9114 54.6332C22.0199 54.2246 22.1992 54.0731 22.5309 53.8129C22.8689 53.7337 23.1987 53.7395 23.5447 53.7442C23.6966 53.743 23.6966 53.743 23.8515 53.7418C24.1858 53.7398 24.5199 53.7415 24.8542 53.7432C25.087 53.7423 25.3198 53.7412 25.5526 53.7398C26.1655 53.7366 26.7783 53.7366 27.3912 53.7373C28.3713 53.7381 29.3515 53.7347 30.3316 53.7305C30.6735 53.7296 31.0154 53.7301 31.3572 53.7309C31.5677 53.7305 31.7782 53.7301 31.9887 53.7297C32.0833 53.7303 32.1779 53.7309 32.2753 53.7316C32.8197 53.7289 33.299 53.7183 33.7965 53.4847C33.9887 52.9682 34.0427 52.5054 34.0431 51.9574C34.0434 51.8844 34.0438 51.8113 34.0441 51.7361C34.045 51.4922 34.0444 51.2484 34.0437 51.0045C34.0441 50.8275 34.0445 50.6506 34.045 50.4736C34.0461 49.9879 34.0459 49.5023 34.0454 49.0167C34.0452 48.4927 34.0461 47.9687 34.047 47.4447C34.0484 46.4185 34.0486 45.3922 34.0483 44.366C34.0481 43.532 34.0483 42.698 34.0488 41.864C34.0489 41.686 34.0489 41.686 34.049 41.5044C34.0491 41.2633 34.0492 41.0222 34.0494 40.7812C34.0505 38.5203 34.0503 36.2594 34.0496 33.9986C34.0491 31.9297 34.0503 29.8607 34.0524 27.7918C34.0545 25.6678 34.0554 23.5438 34.055 21.4198C34.0548 20.2272 34.0551 19.0345 34.0566 17.8419C34.0579 16.8268 34.0581 15.8117 34.0567 14.7965C34.0561 14.2785 34.056 13.7605 34.0573 13.2425C34.0585 12.7684 34.0581 12.2943 34.0566 11.8201C34.0563 11.6485 34.0566 11.477 34.0574 11.3054C34.0586 11.0722 34.0576 10.839 34.0562 10.6058C34.0562 10.4115 34.0562 10.4115 34.0562 10.2132C34.0066 9.76615 33.8939 9.47744 33.6871 9.07847C33.1376 8.77093 32.4819 8.82173 31.8662 8.81444C31.7554 8.81232 31.6447 8.8102 31.5306 8.80802C31.1785 8.8015 30.8264 8.79641 30.4742 8.79136C30.2348 8.78719 29.9954 8.78291 29.756 8.77855C29.1706 8.76807 28.5851 8.75876 27.9996 8.75035C28.0059 8.86244 28.0123 8.97452 28.0188 9.09001C28.024 9.23883 28.0289 9.38765 28.0338 9.53648C28.0384 9.61015 28.0429 9.68382 28.0477 9.75972C28.0576 10.1664 28.0222 10.3618 27.7708 10.6858C27.3774 10.9975 27.1823 11.0065 26.6848 11.0073C26.5707 11.0086 26.5707 11.0086 26.4544 11.0099C26.2004 11.0121 25.9465 11.0103 25.6925 11.0086C25.5101 11.0094 25.3277 11.0103 25.1453 11.0115C24.6504 11.014 24.1556 11.013 23.6607 11.0113C23.1427 11.0099 22.6248 11.0112 22.1068 11.0121C21.237 11.0131 20.3672 11.0118 19.4974 11.0091C18.4918 11.0062 17.4863 11.0071 16.4807 11.0101C15.6173 11.0126 14.7539 11.013 13.8905 11.0115C13.3749 11.0107 12.8592 11.0106 12.3436 11.0124C11.8588 11.014 11.374 11.0129 10.8892 11.0097C10.7113 11.009 10.5334 11.0092 10.3555 11.0104C10.1126 11.0119 9.86988 11.01 9.62696 11.0073C9.49105 11.0071 9.35515 11.0069 9.21513 11.0067C8.75792 10.9183 8.59442 10.7548 8.31211 10.391C8.27189 10.0805 8.25892 9.84211 8.27793 9.53648C8.28039 9.4607 8.28286 9.38492 8.2854 9.30684C8.2918 9.12124 8.30161 8.93576 8.31211 8.75035C7.60956 8.7577 6.90707 8.76753 6.20458 8.77905C5.96579 8.78268 5.727 8.78575 5.4882 8.78824C5.14416 8.79192 4.80021 8.79765 4.45621 8.80375C4.35011 8.80445 4.24401 8.80515 4.13469 8.80587C3.51984 8.81909 3.04363 8.85811 2.51523 9.18785C2.30848 9.66333 2.26903 10.0775 2.26865 10.5923C2.2683 10.6652 2.26795 10.7381 2.26759 10.8133C2.26668 11.0574 2.26733 11.3015 2.26797 11.5456C2.26764 11.7224 2.26721 11.8993 2.2667 12.0762C2.26557 12.5621 2.26581 13.0479 2.26628 13.5338C2.26655 14.0579 2.26557 14.582 2.26475 15.106C2.26335 16.1327 2.26316 17.1593 2.26341 18.1859C2.26361 19.0202 2.26342 19.8545 2.26295 20.6889C2.26289 20.8075 2.26282 20.9262 2.26275 21.0485C2.26262 21.2896 2.26249 21.5307 2.26236 21.7718C2.26117 24.0334 2.2614 26.295 2.26207 28.5565C2.26263 30.6262 2.2614 32.6958 2.25932 34.7655C2.2572 36.89 2.2563 39.0145 2.25671 41.139C2.25692 42.332 2.25665 43.5249 2.2551 44.7179C2.2538 45.7335 2.25364 46.749 2.25497 47.7645C2.25562 48.2828 2.25573 48.801 2.25442 49.3192C2.25324 49.7936 2.25357 50.2679 2.25511 50.7422C2.2554 50.9139 2.25514 51.0855 2.25426 51.2571C2.25316 51.4905 2.25408 51.7238 2.2555 51.9571C2.25549 52.0867 2.25548 52.2163 2.25548 52.3498C2.30516 52.7973 2.41719 53.0856 2.62461 53.4847C3.14934 53.7719 3.72628 53.7335 4.31055 53.7297C4.46299 53.73 4.46299 53.73 4.61852 53.7303C4.83837 53.7307 5.05823 53.7306 5.27808 53.7301C5.6261 53.7295 5.97407 53.7305 6.32209 53.732C7.31125 53.7361 8.3004 53.7381 9.28957 53.7369C9.89527 53.7362 10.5009 53.7382 11.1066 53.7419C11.3373 53.7428 11.5679 53.7426 11.7985 53.7415C12.1209 53.7399 12.443 53.7417 12.7653 53.7442C12.8605 53.7429 12.9557 53.7416 13.0538 53.7403C13.534 53.7477 13.723 53.7675 14.1132 54.0735C14.346 54.3841 14.4021 54.5235 14.3961 54.9066C14.3975 54.9968 14.3989 55.0871 14.4004 55.18C14.2911 55.5914 14.117 55.7399 13.7809 56.0003C13.4193 56.0816 13.0648 56.0762 12.6954 56.0728C12.532 56.0745 12.532 56.0745 12.3654 56.0763C12.0053 56.0792 11.6454 56.0782 11.2853 56.0768C11.0342 56.0775 10.7831 56.0783 10.532 56.0792C10.0052 56.0805 9.47853 56.0798 8.95177 56.0777C8.27935 56.0752 7.60708 56.0781 6.93467 56.0826C6.41565 56.0854 5.89668 56.0851 5.37766 56.0839C5.12994 56.0837 4.88222 56.0846 4.63452 56.0864C1.97713 56.1033 1.97713 56.1033 0.886674 55.1666C-0.0418729 54.1925 -0.0639205 53.0663 -0.0574209 51.7904C-0.0580822 51.6064 -0.0589324 51.4225 -0.059956 51.2385C-0.0622024 50.7344 -0.0617287 50.2304 -0.0607921 49.7264C-0.060252 49.1821 -0.062225 48.638 -0.063863 48.0937C-0.0666507 47.0282 -0.0670438 45.9626 -0.0665316 44.897C-0.0661414 44.0307 -0.066525 43.1645 -0.0674562 42.2982C-0.0675864 42.1749 -0.0677159 42.0515 -0.0678501 41.9244C-0.0681151 41.6739 -0.0683817 41.4233 -0.0686478 41.1727C-0.0710266 38.8233 -0.0705526 36.4738 -0.0692186 34.1244C-0.0680879 31.9759 -0.0705502 29.8275 -0.0747094 27.679C-0.0789489 25.4721 -0.080755 23.2651 -0.0799331 21.0582C-0.0795149 19.8195 -0.0800573 18.5808 -0.0831508 17.3421C-0.0857579 16.2876 -0.086064 15.2331 -0.0834162 14.1785C-0.0821286 13.6407 -0.0818846 13.103 -0.0845093 12.5652C-0.0868869 12.0723 -0.0862047 11.5795 -0.0831408 11.0866C-0.0825623 10.9089 -0.0830778 10.7311 -0.0848331 10.5534C-0.0956236 9.37871 0.0379568 8.36265 0.846275 7.43902C1.57912 6.73455 2.42406 6.51312 3.41773 6.52466C3.54217 6.52796 3.66662 6.53125 3.79483 6.53465C4.06279 6.53626 4.33074 6.53768 4.5987 6.53892C5.01786 6.54323 5.43681 6.54924 5.8559 6.55868C6.26274 6.5669 6.66917 6.56834 7.07608 6.56883C7.20119 6.57346 7.3263 6.57808 7.4552 6.58285C7.80918 6.58075 8.08641 6.56866 8.42148 6.45347C8.65508 6.19351 8.79485 5.94908 8.93942 5.63164C9.16401 5.1901 9.52846 4.94283 9.95273 4.70347C10.0557 4.64398 10.1586 4.58448 10.2646 4.52318C10.9023 4.25772 11.6207 4.34152 12.2975 4.35484C12.4401 4.35632 12.5827 4.3578 12.7296 4.35933C13.0801 4.36318 13.4304 4.36857 13.7809 4.37535C13.7694 4.18501 13.7694 4.18501 13.7578 3.99083C13.707 2.77923 13.7943 1.84708 14.6166 0.883894C15.5568 -0.0036291 16.6383 -0.0754826 17.8716 -0.0687047ZM16.2965 2.51597C15.864 3.17449 15.9124 3.90886 15.9 4.67613C15.8944 4.92166 15.8885 5.16719 15.8821 5.4127C15.8792 5.57465 15.8792 5.57465 15.8762 5.73987C15.859 6.01597 15.859 6.01597 15.7496 6.3441C15.3548 6.47571 14.9901 6.47242 14.579 6.47655C14.409 6.47962 14.2391 6.48275 14.0692 6.48594C13.8024 6.49045 13.5355 6.49448 13.2686 6.49737C13.0104 6.50041 12.7522 6.50543 12.494 6.51073C12.4152 6.51108 12.3365 6.51144 12.2553 6.5118C11.6958 6.52523 11.3141 6.6308 10.8277 6.89097C10.4128 7.5468 10.4996 7.9118 10.4996 8.75035C15.5527 8.75035 20.6059 8.75035 25.8121 8.75035C25.8555 7.7293 25.8555 7.7293 25.484 6.89097C24.9262 6.59261 24.45 6.51358 23.8177 6.51073C23.6931 6.50817 23.6931 6.50817 23.5659 6.50556C23.3029 6.5004 23.04 6.49734 22.777 6.49449C22.5124 6.49049 22.2479 6.48605 21.9833 6.48107C21.8194 6.47811 21.6554 6.47577 21.4914 6.47413C21.153 6.469 20.8857 6.45195 20.5621 6.3441C20.45 6.00786 20.4359 5.76521 20.4297 5.4127C20.4266 5.29385 20.4235 5.17499 20.4203 5.05253C20.4146 4.80332 20.4097 4.5541 20.4057 4.30485C20.3866 3.36059 20.3866 3.36059 20.0152 2.51597C19.4167 2.14188 18.8482 2.13753 18.1559 2.14683C18.0614 2.14556 17.9669 2.1443 17.8696 2.14299C17.2667 2.14574 16.8133 2.19299 16.2965 2.51597Z" fill="#0499FC"/>
<path d="M43.5583 8.23968C43.7373 8.2389 43.7373 8.2389 43.9198 8.2381C44.1717 8.23773 44.4237 8.23873 44.6755 8.24102C45.0609 8.24395 45.4459 8.24104 45.8312 8.23755C46.0762 8.23791 46.3211 8.23861 46.5661 8.23968C46.7387 8.23802 46.7387 8.23802 46.9148 8.23633C47.3937 8.24399 47.7165 8.2699 48.1435 8.49616C48.4722 9.09304 48.4094 9.69601 48.3977 10.3652C48.3975 10.5144 48.3976 10.6636 48.398 10.8127C48.3989 11.3647 48.3944 11.9167 48.3889 12.4687C48.3844 12.9354 48.3825 13.4019 48.3843 13.8686C48.384 14.0862 48.38 14.3038 48.3758 14.5214C48.3783 15.4071 48.501 15.8735 49.1091 16.5154C49.5539 17.255 49.4743 18.0167 49.4577 18.8602C49.4555 19.0741 49.4555 19.0741 49.4532 19.2923C49.4494 19.6428 49.444 19.9932 49.4372 20.3436C49.6275 20.3321 49.6275 20.3321 49.8217 20.3205C51.0333 20.2697 51.9655 20.357 52.9287 21.1793C53.7588 22.0588 53.8754 23.043 53.8687 24.2079C53.8673 24.4508 53.8685 24.6936 53.8704 24.9365C53.8733 25.3645 53.874 25.7925 53.8738 26.2205C53.8736 26.9062 53.8751 27.5918 53.8799 28.2774C53.881 28.5156 53.88 28.7537 53.8789 28.9919C53.8796 29.139 53.8804 29.2861 53.8812 29.4333C53.8811 29.5607 53.881 29.6882 53.8809 29.8195C53.9303 30.266 54.0426 30.5548 54.2497 30.9529C54.5235 31.0942 54.5235 31.0942 54.8376 31.1307C55.232 31.219 55.4564 31.2834 55.8015 31.5067C56.0924 31.9782 56.103 32.3829 55.9997 32.9217C55.8151 33.2635 55.8151 33.2635 55.4528 33.4686C54.4161 33.6548 53.5778 33.3964 52.7184 32.8123C52.0811 32.2737 51.6743 31.5208 51.5847 30.6924C51.5719 30.3291 51.5661 29.9677 51.5682 29.6042C51.5696 29.3613 51.5683 29.1185 51.5665 28.8756C51.5636 28.4476 51.5629 28.0196 51.5631 27.5916C51.5633 26.906 51.5618 26.2204 51.557 25.5347C51.5559 25.2966 51.5569 25.0584 51.558 24.8203C51.5573 24.6731 51.5565 24.526 51.5557 24.3789C51.5558 24.2514 51.5559 24.1239 51.556 23.9926C51.5066 23.546 51.394 23.2577 51.1872 22.8592C50.792 22.6471 50.4006 22.6239 49.9606 22.5815C49.8625 22.5719 49.7643 22.5624 49.6632 22.5526C49.5886 22.5455 49.5141 22.5384 49.4372 22.5311C49.4376 22.6437 49.438 22.7563 49.4384 22.8723C49.4482 25.6195 49.4553 28.3667 49.4599 31.1138C49.4621 32.4424 49.4652 33.7709 49.4702 35.0995C49.4746 36.2582 49.4774 37.4169 49.4784 38.5756C49.4789 39.1884 49.4803 39.8013 49.4835 40.4141C49.4865 40.9924 49.4873 41.5707 49.4867 42.1491C49.4868 42.3599 49.4877 42.5707 49.4893 42.7815C49.5137 45.9713 48.5638 48.7526 46.4841 51.1873C46.3815 51.3149 46.279 51.4425 46.1765 51.5701C45.9238 51.8589 45.7432 52.0407 45.357 52.1029C44.5976 52.1225 44.5976 52.1225 44.235 51.8572C44.1471 51.7444 44.0591 51.6316 43.9684 51.5154C43.8982 51.4434 43.828 51.3713 43.7557 51.2971C41.7954 49.2719 40.6731 46.4298 40.6696 43.6219C40.6691 43.5101 40.6685 43.3984 40.6679 43.2833C40.6662 42.909 40.6653 42.5347 40.6644 42.1604C40.6633 41.892 40.6622 41.6235 40.6611 41.3551C40.658 40.5498 40.6558 39.7445 40.654 38.9392C40.6534 38.7115 40.6529 38.4839 40.6524 38.2562C40.649 36.8408 40.646 35.4254 40.6442 34.01C40.6438 33.6825 40.6433 33.355 40.6429 33.0275C40.6428 32.9462 40.6427 32.8648 40.6426 32.7809C40.6407 31.4631 40.6362 30.1453 40.6306 28.8275C40.625 27.4729 40.6218 26.1183 40.621 24.7637C40.6205 24.0038 40.6189 23.2439 40.6145 22.484C40.6103 21.7688 40.6095 21.0537 40.611 20.3386C40.611 20.0767 40.6098 19.8148 40.6075 19.5529C40.5855 16.9578 40.5855 16.9578 41.3434 15.9686C41.4039 15.9099 41.4643 15.8513 41.5265 15.7909C41.7592 15.5495 41.7114 15.3163 41.7102 14.9894C41.7106 14.8554 41.711 14.7214 41.7114 14.5834C41.7109 14.5118 41.7103 14.4403 41.7098 14.3666C41.7083 14.1422 41.709 13.9179 41.7103 13.6934C41.7137 13.0555 41.7132 12.4176 41.711 11.7797C41.7098 11.3892 41.7112 10.9989 41.7143 10.6084C41.7148 10.4599 41.7144 10.3114 41.7129 10.1628C41.7013 9.00384 41.7013 9.00384 41.9816 8.49496C42.503 8.21988 42.9767 8.23409 43.5583 8.23968ZM43.9684 10.4998C43.9684 11.9436 43.9684 13.3873 43.9684 14.8748C44.6903 14.8748 45.4122 14.8748 46.1559 14.8748C46.1559 13.4311 46.1559 11.9873 46.1559 10.4998C45.4341 10.4998 44.7122 10.4998 43.9684 10.4998ZM43.2028 17.3904C42.7311 18.3523 42.7311 18.3523 42.8747 20.3436C44.3184 20.3436 45.7622 20.3436 47.2497 20.3436C47.3933 18.3523 47.3933 18.3523 46.9216 17.3904C46.323 17.0163 45.7546 17.012 45.0622 17.0213C44.9677 17.02 44.8733 17.0188 44.7759 17.0175C44.173 17.0202 43.7196 17.0675 43.2028 17.3904ZM42.8747 22.5311C42.8747 26.1404 42.8747 29.7498 42.8747 33.4686C44.3184 33.4686 45.7622 33.4686 47.2497 33.4686C47.2497 29.8592 47.2497 26.2498 47.2497 22.5311C45.8059 22.5311 44.3622 22.5311 42.8747 22.5311ZM42.8747 35.6561C42.8683 36.9272 42.8683 36.9272 42.864 38.1984C42.8627 38.7186 42.8612 39.2389 42.8582 39.7591C42.8179 44.0889 42.8179 44.0889 44.2556 48.1248C44.2962 48.1989 44.3369 48.2729 44.3788 48.3492C44.5936 48.7177 44.7555 48.9736 45.1716 49.1092C47.3601 46.2408 47.2845 42.9361 47.2647 39.5106C47.262 38.9979 47.2611 38.4852 47.2598 37.9725C47.2577 37.2003 47.2535 36.4282 47.2497 35.6561C45.8059 35.6561 44.3622 35.6561 42.8747 35.6561Z" fill="#0499FC"/>
<path d="M8.00864 39.9619C8.14409 39.9606 8.14409 39.9606 8.28228 39.9593C8.58468 39.9571 8.88693 39.9588 9.18933 39.9605C9.40619 39.9598 9.62306 39.9588 9.83992 39.9576C10.4288 39.9551 11.0177 39.9561 11.6066 39.9578C12.2226 39.9592 12.8387 39.9579 13.4547 39.9571C14.4893 39.9561 15.5239 39.9574 16.5585 39.96C17.7549 39.963 18.9513 39.962 20.1477 39.959C21.1746 39.9565 22.2015 39.9562 23.2284 39.9576C23.8418 39.9585 24.4553 39.9586 25.0688 39.9568C25.6455 39.9552 26.2222 39.9563 26.7989 39.9594C27.0107 39.9602 27.2224 39.96 27.4342 39.9588C27.7231 39.9573 28.0118 39.9591 28.3007 39.9619C28.4267 39.96 28.4267 39.96 28.5552 39.9582C28.9911 39.9662 29.1822 40.0158 29.5267 40.292C29.7677 40.603 29.8228 40.7374 29.8168 41.1251C29.8182 41.2153 29.8196 41.3055 29.821 41.3985C29.7137 41.8028 29.5262 41.9586 29.2015 42.2188C28.8799 42.2727 28.6218 42.2929 28.3007 42.2883C28.1652 42.2895 28.1652 42.2895 28.027 42.2908C27.7246 42.293 27.4224 42.2913 27.12 42.2896C26.9031 42.2903 26.6863 42.2913 26.4694 42.2925C25.8805 42.295 25.2916 42.294 24.7027 42.2923C24.0867 42.2909 23.4706 42.2922 22.8546 42.293C21.82 42.294 20.7854 42.2927 19.7509 42.2901C18.5544 42.2871 17.358 42.2881 16.1616 42.2911C15.1347 42.2936 14.1078 42.2939 13.0809 42.2925C12.4675 42.2917 11.854 42.2915 11.2406 42.2933C10.6638 42.2949 10.0872 42.2938 9.51045 42.2907C9.29868 42.2899 9.0869 42.2902 8.87513 42.2914C8.58623 42.2929 8.29753 42.291 8.00864 42.2883C7.92464 42.2895 7.84064 42.2907 7.75409 42.2919C7.31826 42.2839 7.1271 42.2343 6.78259 41.9581C6.54167 41.6471 6.4865 41.5127 6.49255 41.1251C6.49114 41.0348 6.48973 40.9446 6.48828 40.8516C6.69623 40.0688 7.29048 39.9514 8.00864 39.9619Z" fill="#0499FC"/>
<path d="M8.00864 29.0244C8.14409 29.0231 8.14409 29.0231 8.28228 29.0218C8.58468 29.0196 8.88693 29.0213 9.18933 29.023C9.40619 29.0223 9.62306 29.0213 9.83992 29.0201C10.4288 29.0176 11.0177 29.0186 11.6066 29.0203C12.2226 29.0217 12.8387 29.0204 13.4547 29.0196C14.4893 29.0186 15.5239 29.0199 16.5585 29.0225C17.7549 29.0255 18.9513 29.0245 20.1477 29.0215C21.1746 29.019 22.2015 29.0187 23.2284 29.0201C23.8418 29.021 24.4553 29.0211 25.0688 29.0193C25.6455 29.0177 26.2222 29.0188 26.7989 29.0219C27.0107 29.0227 27.2224 29.0225 27.4342 29.0213C27.7231 29.0198 28.0118 29.0216 28.3007 29.0244C28.4267 29.0225 28.4267 29.0225 28.5552 29.0207C28.9911 29.0287 29.1822 29.0783 29.5267 29.3545C29.7677 29.6655 29.8228 29.7999 29.8168 30.1876C29.8182 30.2778 29.8196 30.368 29.821 30.461C29.7137 30.8653 29.5262 31.0211 29.2015 31.2813C28.8799 31.3352 28.6218 31.3554 28.3007 31.3508C28.1652 31.352 28.1652 31.352 28.027 31.3533C27.7246 31.3555 27.4224 31.3538 27.12 31.3521C26.9031 31.3528 26.6863 31.3538 26.4694 31.355C25.8805 31.3575 25.2916 31.3565 24.7027 31.3548C24.0867 31.3534 23.4706 31.3547 22.8546 31.3555C21.82 31.3565 20.7854 31.3552 19.7509 31.3526C18.5544 31.3496 17.358 31.3506 16.1616 31.3536C15.1347 31.3561 14.1078 31.3564 13.0809 31.355C12.4675 31.3542 11.854 31.354 11.2406 31.3558C10.6638 31.3574 10.0872 31.3563 9.51045 31.3532C9.29868 31.3524 9.0869 31.3527 8.87513 31.3539C8.58623 31.3554 8.29753 31.3535 8.00864 31.3508C7.92464 31.352 7.84064 31.3532 7.75409 31.3544C7.31826 31.3464 7.1271 31.2968 6.78259 31.0206C6.54167 30.7096 6.4865 30.5752 6.49255 30.1876C6.49114 30.0973 6.48973 30.0071 6.48828 29.9141C6.69623 29.1313 7.29048 29.0139 8.00864 29.0244Z" fill="#0499FC"/>
<path d="M8.00864 18.0869C8.14409 18.0856 8.14409 18.0856 8.28228 18.0843C8.58468 18.0821 8.88693 18.0838 9.18933 18.0855C9.40619 18.0848 9.62306 18.0838 9.83992 18.0826C10.4288 18.0801 11.0177 18.0811 11.6066 18.0828C12.2226 18.0842 12.8387 18.0829 13.4547 18.0821C14.4893 18.0811 15.5239 18.0824 16.5585 18.085C17.7549 18.088 18.9513 18.087 20.1477 18.084C21.1746 18.0815 22.2015 18.0812 23.2284 18.0826C23.8418 18.0835 24.4553 18.0836 25.0688 18.0818C25.6455 18.0802 26.2222 18.0813 26.7989 18.0844C27.0107 18.0852 27.2224 18.085 27.4342 18.0838C27.7231 18.0823 28.0118 18.0841 28.3007 18.0869C28.4267 18.085 28.4267 18.085 28.5552 18.0832C28.9911 18.0912 29.1822 18.1408 29.5267 18.417C29.7677 18.728 29.8228 18.8624 29.8168 19.2501C29.8182 19.3403 29.8196 19.4305 29.821 19.5235C29.7137 19.9278 29.5262 20.0836 29.2015 20.3438C28.8799 20.3977 28.6218 20.4179 28.3007 20.4133C28.1652 20.4145 28.1652 20.4145 28.027 20.4158C27.7246 20.418 27.4224 20.4163 27.12 20.4146C26.9031 20.4153 26.6863 20.4163 26.4694 20.4175C25.8805 20.42 25.2916 20.419 24.7027 20.4173C24.0867 20.4159 23.4706 20.4172 22.8546 20.418C21.82 20.419 20.7854 20.4177 19.7509 20.4151C18.5544 20.4121 17.358 20.4131 16.1616 20.4161C15.1347 20.4186 14.1078 20.4189 13.0809 20.4175C12.4675 20.4167 11.854 20.4165 11.2406 20.4183C10.6638 20.4199 10.0872 20.4188 9.51045 20.4157C9.29868 20.4149 9.0869 20.4152 8.87513 20.4164C8.58623 20.4179 8.29753 20.416 8.00864 20.4133C7.92464 20.4145 7.84064 20.4157 7.75409 20.4169C7.31826 20.4089 7.1271 20.3593 6.78259 20.0831C6.54167 19.7721 6.4865 19.6377 6.49255 19.2501C6.49114 19.1598 6.48973 19.0696 6.48828 18.9766C6.69623 18.1938 7.29048 18.0764 8.00864 18.0869Z" fill="#0499FC"/>
<path d="M8.28571 44.3353C8.40439 44.3343 8.52307 44.3333 8.64535 44.3324C9.0375 44.33 9.42951 44.3315 9.82166 44.3334C10.0942 44.333 10.3668 44.3325 10.6393 44.3318C11.2836 44.3309 11.9279 44.3328 12.5722 44.3357C13.0857 44.3378 13.5993 44.337 14.1128 44.3347C14.8212 44.3316 15.5296 44.3311 16.238 44.3328C16.508 44.3332 16.778 44.3328 17.048 44.3315C17.4254 44.3301 17.8025 44.3322 18.1799 44.3353C18.2916 44.3342 18.4033 44.333 18.5184 44.3319C19.036 44.3397 19.2783 44.3455 19.7003 44.6668C19.9217 44.9767 19.9789 45.1232 19.973 45.4998C19.9751 45.6351 19.9751 45.6351 19.9773 45.7732C19.867 46.1885 19.7002 46.3328 19.3578 46.5935C18.9656 46.6753 18.5793 46.6682 18.1799 46.6643C18.0018 46.6657 18.0018 46.6657 17.8202 46.6672C17.4281 46.6696 17.0361 46.668 16.6439 46.6662C16.3714 46.6665 16.0988 46.6671 15.8263 46.6677C15.1819 46.6687 14.5377 46.6667 13.8934 46.6638C13.3798 46.6618 12.8663 46.6625 12.3528 46.6648C11.6444 46.668 10.936 46.6685 10.2276 46.6667C9.95759 46.6663 9.68756 46.6668 9.41754 46.6681C9.0402 46.6695 8.66304 46.6673 8.28571 46.6643C8.17398 46.6654 8.06226 46.6665 7.94716 46.6676C7.42959 46.6599 7.18728 46.654 6.76527 46.3328C6.54391 46.0228 6.48667 45.8764 6.49255 45.4998C6.49114 45.4095 6.48973 45.3193 6.48828 45.2263C6.735 44.2975 7.48575 44.3273 8.28571 44.3353Z" fill="#0499FC"/>
<path d="M8.28571 33.3978C8.40439 33.3968 8.52307 33.3958 8.64535 33.3949C9.0375 33.3925 9.42951 33.394 9.82166 33.3959C10.0942 33.3955 10.3668 33.395 10.6393 33.3943C11.2836 33.3934 11.9279 33.3953 12.5722 33.3982C13.0857 33.4003 13.5993 33.3995 14.1128 33.3972C14.8212 33.3941 15.5296 33.3936 16.238 33.3953C16.508 33.3957 16.778 33.3953 17.048 33.394C17.4254 33.3926 17.8025 33.3947 18.1799 33.3978C18.2916 33.3967 18.4033 33.3955 18.5184 33.3944C19.036 33.4022 19.2783 33.408 19.7003 33.7293C19.9217 34.0392 19.9789 34.1857 19.973 34.5623C19.9751 34.6976 19.9751 34.6976 19.9773 34.8357C19.867 35.251 19.7002 35.3953 19.3578 35.656C18.9656 35.7378 18.5793 35.7307 18.1799 35.7268C18.0018 35.7282 18.0018 35.7282 17.8202 35.7297C17.4281 35.7321 17.0361 35.7305 16.6439 35.7287C16.3714 35.729 16.0988 35.7296 15.8263 35.7302C15.1819 35.7312 14.5377 35.7292 13.8934 35.7263C13.3798 35.7243 12.8663 35.725 12.3528 35.7273C11.6444 35.7305 10.936 35.731 10.2276 35.7292C9.95759 35.7288 9.68756 35.7293 9.41754 35.7306C9.0402 35.732 8.66304 35.7298 8.28571 35.7268C8.17398 35.7279 8.06226 35.729 7.94716 35.7301C7.42959 35.7224 7.18728 35.7165 6.76527 35.3953C6.54391 35.0853 6.48667 34.9389 6.49255 34.5623C6.49114 34.472 6.48973 34.3818 6.48828 34.2888C6.735 33.36 7.48575 33.3898 8.28571 33.3978Z" fill="#0499FC"/>
<path d="M8.28571 22.4603C8.40439 22.4593 8.52307 22.4583 8.64535 22.4574C9.0375 22.455 9.42951 22.4565 9.82166 22.4584C10.0942 22.458 10.3668 22.4575 10.6393 22.4568C11.2836 22.4559 11.9279 22.4578 12.5722 22.4607C13.0857 22.4628 13.5993 22.462 14.1128 22.4597C14.8212 22.4566 15.5296 22.4561 16.238 22.4578C16.508 22.4582 16.778 22.4578 17.048 22.4565C17.4254 22.4551 17.8025 22.4572 18.1799 22.4603C18.2916 22.4592 18.4033 22.458 18.5184 22.4569C19.036 22.4647 19.2783 22.4705 19.7003 22.7918C19.9217 23.1017 19.9789 23.2482 19.973 23.6248C19.9751 23.7601 19.9751 23.7601 19.9773 23.8982C19.867 24.3135 19.7002 24.4578 19.3578 24.7185C18.9656 24.8003 18.5793 24.7932 18.1799 24.7893C18.0018 24.7907 18.0018 24.7907 17.8202 24.7922C17.4281 24.7946 17.0361 24.793 16.6439 24.7912C16.3714 24.7915 16.0988 24.7921 15.8263 24.7927C15.1819 24.7937 14.5377 24.7917 13.8934 24.7888C13.3798 24.7868 12.8663 24.7875 12.3528 24.7898C11.6444 24.793 10.936 24.7935 10.2276 24.7917C9.95759 24.7913 9.68756 24.7918 9.41754 24.7931C9.0402 24.7945 8.66304 24.7923 8.28571 24.7893C8.17398 24.7904 8.06226 24.7915 7.94716 24.7926C7.42959 24.7849 7.18728 24.779 6.76527 24.4578C6.54391 24.1478 6.48667 24.0014 6.49255 23.6248C6.49114 23.5345 6.48973 23.4443 6.48828 23.3513C6.735 22.4225 7.48575 22.4523 8.28571 22.4603Z" fill="#0499FC"/>
<path d="M18.704 53.8124C19.0458 54.0175 19.0458 54.0175 19.2509 54.3593C19.359 54.909 19.3359 55.3114 19.0458 55.7948C18.5624 56.0849 18.16 56.1081 17.6103 55.9999C17.2685 55.7948 17.2685 55.7948 17.0634 55.453C16.9552 54.9033 16.9784 54.5009 17.2685 54.0175C17.7519 53.7274 18.1543 53.7043 18.704 53.8124Z" fill="#0499FC"/>
</g>
<defs>
<clipPath id="clip0_2003_186">
<rect width="56" height="56" fill="white"/>
</clipPath>
</defs>
</svg>
