<svg width="56" height="56" viewBox="0 0 56 56" fill="none" xmlns="http://www.w3.org/2000/svg">
<g clip-path="url(#clip0_2003_173)">
<path d="M10.448 12.1102C10.6237 12.1097 10.7994 12.1092 10.9751 12.1085C11.4474 12.1071 11.9196 12.107 12.3919 12.1073C12.7874 12.1074 13.1829 12.1068 13.5785 12.1063C14.5113 12.1051 15.4441 12.105 16.3769 12.1057C17.3377 12.1064 18.2985 12.105 19.2593 12.1027C20.0867 12.1008 20.9142 12.1001 21.7417 12.1005C22.2349 12.1007 22.728 12.1004 23.2211 12.0989C23.6841 12.0975 24.1471 12.0977 24.6101 12.0991C24.7796 12.0994 24.9491 12.0991 25.1187 12.0982C25.3506 12.097 25.5825 12.0979 25.8145 12.0993C26.0089 12.0993 26.0089 12.0993 26.2072 12.0993C26.6556 12.1489 26.9423 12.2613 27.3429 12.4684C27.6139 12.8411 27.671 13.0536 27.671 13.5143C27.5375 13.9731 27.3842 14.1376 27.0147 14.4371C26.6655 14.5055 26.6655 14.5055 26.2636 14.5056C26.1523 14.5067 26.1523 14.5067 26.0388 14.5079C25.7908 14.5097 25.543 14.5077 25.295 14.5058C25.1169 14.5063 24.9389 14.5071 24.7608 14.5082C24.3775 14.5099 23.9943 14.5099 23.611 14.5085C23.0041 14.5064 22.3973 14.508 21.7905 14.5102C20.8297 14.5132 19.869 14.5135 18.9082 14.5128C17.1902 14.5117 15.4721 14.5144 13.7541 14.5187C13.1518 14.5201 12.5494 14.5203 11.9471 14.5194C11.5709 14.519 11.1948 14.5194 10.8187 14.5201C10.6453 14.5202 10.4719 14.52 10.2985 14.5193C8.78057 14.5137 7.4651 14.5524 6.26083 15.565C5.2637 16.7561 5.12386 17.8806 5.12243 19.3905C5.1219 19.5125 5.12136 19.6344 5.1208 19.76C5.11912 20.1687 5.11821 20.5774 5.11728 20.9862C5.11628 21.2841 5.11511 21.5821 5.11396 21.8801C5.11127 22.5968 5.10912 23.3136 5.10717 24.0303C5.10488 24.8598 5.10192 25.6892 5.09895 26.5187C5.09146 28.7076 5.0849 30.8966 5.07822 33.0856C5.06243 37.9763 5.04663 42.867 5.03036 47.9059C20.1897 47.9059 35.3491 47.9059 50.9679 47.9059C50.9462 39.8315 50.9462 39.8315 50.9186 31.7572C50.9161 30.1975 50.9161 30.1975 50.9157 29.468C50.9152 28.9571 50.9131 28.4463 50.9101 27.9354C50.9064 27.2844 50.9053 26.6333 50.906 25.9822C50.9059 25.7429 50.9048 25.5036 50.9027 25.2644C50.9 24.9417 50.9006 24.6192 50.9021 24.2965C50.9005 24.2024 50.8989 24.1083 50.8973 24.0113C50.9032 23.5398 50.9246 23.3525 51.2219 22.9674C51.5916 22.6924 51.8207 22.6402 52.2804 22.6402C52.7195 22.806 52.8933 22.9033 53.1554 23.2965C53.1762 23.6245 53.1839 23.9422 53.1817 24.2702C53.1819 24.4214 53.182 24.4214 53.1822 24.5756C53.1826 24.9147 53.1814 25.2537 53.1802 25.5928C53.1801 25.8353 53.1802 26.0778 53.1803 26.3203C53.1804 26.9799 53.1791 27.6395 53.1775 28.2991C53.1762 28.988 53.176 29.6768 53.1758 30.3657C53.1752 31.5223 53.1738 32.6789 53.1719 33.8355C53.1699 35.0269 53.1683 36.2183 53.1674 37.4096C53.1673 37.4831 53.1673 37.5565 53.1672 37.6321C53.1669 38.0005 53.1666 38.3688 53.1664 38.7371C53.1641 41.7934 53.1602 44.8496 53.1554 47.9059C53.2221 47.903 53.2888 47.9001 53.3575 47.8972C53.6615 47.8858 53.9655 47.8787 54.2696 47.8717C54.3746 47.8671 54.4796 47.8625 54.5877 47.8578C55.3695 47.8443 55.3695 47.8443 55.7953 48.1613C56.0408 48.5123 56.0682 48.7042 56.0679 49.1299C56.0682 49.3257 56.0682 49.3257 56.0685 49.5253C56.0659 49.6609 56.0633 49.7965 56.0606 49.9361C56.0624 50.135 56.0624 50.135 56.0643 50.338C56.0515 51.9254 55.5355 53.2843 54.4405 54.441C53.0257 55.7802 51.4601 56.0659 49.5802 56.0552C49.3861 56.0557 49.1919 56.0564 48.9977 56.0572C48.4669 56.0591 47.9362 56.0582 47.4055 56.0568C46.832 56.0558 46.2585 56.0573 45.685 56.0585C44.5626 56.0605 43.4403 56.0601 42.3179 56.0588C41.4056 56.0578 40.4932 56.0577 39.5809 56.0582C39.4509 56.0582 39.3209 56.0583 39.187 56.0584C38.923 56.0585 38.6589 56.0586 38.3949 56.0588C35.9202 56.06 33.4456 56.0586 30.971 56.0563C28.8488 56.0543 26.7265 56.0546 24.6043 56.0567C22.1384 56.059 19.6725 56.0599 17.2066 56.0586C16.9435 56.0584 16.6804 56.0583 16.4173 56.0582C16.2879 56.0581 16.1585 56.058 16.0251 56.058C15.1141 56.0576 14.2031 56.0582 13.2921 56.0592C12.1816 56.0605 11.071 56.0601 9.96043 56.0578C9.39406 56.0567 8.82771 56.0562 8.26134 56.0577C7.74238 56.059 7.22347 56.0582 6.70451 56.0559C6.51728 56.0554 6.33005 56.0557 6.14282 56.0567C4.36438 56.0661 2.88118 55.6938 1.55771 54.441C0.33598 53.1503 -0.0782229 51.686 -0.0624084 49.9361C-0.066321 49.7328 -0.066321 49.7328 -0.0703125 49.5253C-0.070101 49.3949 -0.0698895 49.2644 -0.0696716 49.1299C-0.0697509 49.0128 -0.0698302 48.8958 -0.069912 48.7751C0.0274091 48.3206 0.172552 48.1839 0.54599 47.9059C0.942391 47.839 1.32806 47.8542 1.72861 47.8717C1.83569 47.8742 1.94277 47.8766 2.0531 47.8792C2.31653 47.8856 2.57961 47.8946 2.84286 47.9059C2.8427 47.8409 2.84253 47.7759 2.84236 47.7089C2.83256 43.8537 2.82506 39.9984 2.82052 36.1432C2.81998 35.6799 2.81941 35.2166 2.81883 34.7534C2.81872 34.6611 2.8186 34.5689 2.81848 34.4739C2.81658 32.9821 2.81313 31.4903 2.80911 29.9984C2.80501 28.4668 2.80259 26.9352 2.8017 25.4036C2.8011 24.4591 2.79921 23.5146 2.79565 22.5701C2.79333 21.9218 2.79264 21.2735 2.79321 20.6251C2.79349 20.2515 2.79307 19.8779 2.79071 19.5042C2.78853 19.098 2.78906 18.6919 2.79025 18.2857C2.78898 18.1691 2.7877 18.0524 2.78639 17.9323C2.79813 16.4441 3.39542 15.0697 4.39505 13.9689C6.14149 12.3092 8.13935 12.106 10.448 12.1102ZM2.18661 50.0934C2.40099 51.4868 2.53632 52.2942 3.60849 53.1559C4.74195 53.9123 6.09671 53.8438 7.40385 53.8399C7.58899 53.8401 7.77412 53.8405 7.95926 53.8409C8.46597 53.8418 8.97267 53.8414 9.47938 53.8407C10.0266 53.8402 10.5739 53.841 11.1211 53.8416C12.1924 53.8426 13.2637 53.8423 14.335 53.8417C15.2057 53.8412 16.0765 53.8412 16.9472 53.8414C17.0712 53.8414 17.1952 53.8415 17.3229 53.8415C17.5748 53.8416 17.8267 53.8416 18.0787 53.8417C20.44 53.8423 22.8013 53.8416 25.1626 53.8404C27.1882 53.8395 29.2137 53.8396 31.2392 53.8406C33.5922 53.8418 35.9452 53.8423 38.2981 53.8416C38.5491 53.8415 38.8001 53.8415 39.051 53.8414C39.2362 53.8413 39.2362 53.8413 39.4252 53.8413C40.2948 53.8411 41.1643 53.8414 42.0339 53.8419C43.0938 53.8425 44.1537 53.8424 45.2136 53.8412C45.7543 53.8406 46.2949 53.8404 46.8355 53.8411C47.3307 53.8418 47.8259 53.8414 48.3211 53.8403C48.5 53.84 48.6788 53.8401 48.8576 53.8407C50.2963 53.8446 51.6906 53.8344 52.7999 52.8004C53.5711 51.9677 53.6296 51.2768 53.8116 50.0934C36.7754 50.0934 19.7391 50.0934 2.18661 50.0934Z" fill="#0499FC"/>
<path d="M39.5954 -0.0194985C39.6811 -0.0202172 39.7667 -0.020936 39.855 -0.0216765C40.1372 -0.0238238 40.4194 -0.0251085 40.7016 -0.0262009C40.8475 -0.0268696 40.8475 -0.0268696 40.9963 -0.0275517C41.5119 -0.0298297 42.0274 -0.031395 42.543 -0.0324227C43.0706 -0.0336261 43.598 -0.0373817 44.1256 -0.0417384C44.5354 -0.044626 44.9452 -0.0455163 45.355 -0.0459066C45.5491 -0.046433 45.7433 -0.0476862 45.9374 -0.0497389C47.5597 -0.065813 49.1465 0.098329 50.6184 0.840681C50.6948 0.878062 50.7711 0.915442 50.8498 0.953955C53.0912 2.08969 54.6762 4.01562 55.5608 6.34361C55.9324 7.57198 56.0688 8.74208 56.0554 10.0229C56.053 10.2883 56.0554 10.5534 56.0581 10.8188C56.0628 13.4783 55.1085 15.8902 53.2639 17.828C51.0915 19.8518 48.5472 20.6005 45.6081 20.5914C45.4544 20.5916 45.3007 20.5918 45.147 20.592C44.8273 20.5924 44.5075 20.5919 44.1877 20.5909C43.7824 20.5896 43.3772 20.5904 42.9719 20.5917C42.6552 20.5925 42.3384 20.5922 42.0217 20.5916C41.8011 20.5914 41.5805 20.5921 41.3599 20.5928C40.5416 20.5887 39.7651 20.5249 38.9592 20.3798C38.3502 20.3171 37.8396 20.4191 37.2995 20.6991C37.2027 20.7476 37.106 20.7961 37.0064 20.8461C36.8077 20.9482 36.6091 21.0508 36.4108 21.1537C35.8045 21.4568 35.2497 21.6828 34.5608 21.6561C34.2388 21.526 34.0808 21.4301 33.8914 21.141C33.7645 20.8106 33.7746 20.5382 33.7807 20.1847C33.7802 19.9781 33.7802 19.9781 33.7798 19.7673C33.7809 19.4787 33.7846 19.1901 33.7909 18.9017C33.7993 18.1356 33.7993 18.1356 33.5046 17.4509C33.2825 17.2348 33.0494 17.0411 32.8108 16.8436C32.6011 16.5898 32.4216 16.3204 32.2434 16.0438C32.1971 15.9728 32.1508 15.9017 32.103 15.8285C30.5816 13.45 30.1318 10.4638 30.6438 7.69713C31.2145 5.11863 32.6689 2.86912 34.8889 1.42174C36.3368 0.552304 37.8946 -0.0132149 39.5954 -0.0194985ZM34.5993 4.73033C33.0278 6.56806 32.6869 8.70434 32.8108 11.0467C33.0124 13.0317 33.9917 14.6547 35.3264 16.078C35.8594 16.6765 35.9988 17.1056 36.0442 17.9032C36.0489 17.9799 36.0537 18.0567 36.0585 18.1358C36.0701 18.3249 36.0811 18.5139 36.0921 18.703C36.1846 18.6569 36.277 18.6108 36.3723 18.5633C36.4964 18.5034 36.6205 18.4434 36.7483 18.3817C36.8701 18.3221 36.9919 18.2624 37.1175 18.201C37.8484 17.9166 38.4038 17.912 39.1567 18.092C40.5017 18.3677 41.8819 18.315 43.2485 18.3083C43.6371 18.3064 44.0256 18.3075 44.4142 18.3094C44.719 18.3106 45.0237 18.3102 45.3284 18.3094C45.5398 18.3091 45.7512 18.3101 45.9626 18.3111C48.2572 18.2931 50.0785 17.5667 51.7532 16.0096C53.285 14.4242 53.7959 12.3694 53.8382 10.2196C53.7911 7.84424 53.1283 5.83598 51.4046 4.15611C49.597 2.48083 47.407 2.17126 45.039 2.16899C44.8366 2.16844 44.8366 2.16844 44.6301 2.16789C44.346 2.16734 44.0618 2.16708 43.7777 2.16709C43.3481 2.16686 42.9186 2.16487 42.489 2.16279C39.3686 2.15551 36.8671 2.36892 34.5993 4.73033Z" fill="#0499FC"/>
<path d="M23.2365 21.7359C23.689 21.9621 24.0965 22.2267 24.4995 22.5314C24.5965 22.5991 24.6935 22.6668 24.7934 22.7365C25.8009 23.6623 26.4159 24.8942 26.5037 26.2575C26.5676 27.9335 26.0768 29.3391 24.937 30.591C23.8576 31.6228 22.4319 32.0932 20.9593 32.0871C19.7615 32.0589 18.7708 31.6852 17.8276 30.9533C17.7148 30.8721 17.602 30.7909 17.4858 30.7072C16.4723 29.7378 15.8098 28.4057 15.7422 26.9949C15.7831 25.2661 16.3658 23.838 17.6191 22.6408C19.1367 21.3651 21.3877 20.9995 23.2365 21.7359ZM18.7026 24.8283C18.1119 25.6438 18.0717 26.4721 18.1557 27.4533C18.4364 28.4497 18.9927 28.9948 19.8685 29.5058C20.5475 29.864 21.3249 29.8491 22.0637 29.6831C22.8659 29.4008 23.4539 28.9146 23.8851 28.1801C24.2823 27.3064 24.3159 26.4517 23.9799 25.5529C23.5797 24.6779 23.0423 24.287 22.2026 23.8439C20.8566 23.3953 19.6291 23.8279 18.7026 24.8283Z" fill="#0499FC"/>
<path d="M9.13419 40.8369C9.23968 40.836 9.34517 40.8352 9.45385 40.8343C9.80763 40.8321 10.1613 40.8338 10.5151 40.8355C10.7686 40.8348 11.0221 40.8338 11.2756 40.8326C11.9644 40.8301 12.6531 40.8311 13.3419 40.8328C14.0622 40.8342 14.7824 40.8329 15.5027 40.8321C16.7899 40.8309 18.0771 40.8327 19.3642 40.8355C20.5312 40.838 21.6982 40.8375 22.8652 40.835C24.2205 40.8321 25.5757 40.831 26.931 40.8326C27.6484 40.8335 28.3658 40.8336 29.0832 40.8318C29.7576 40.8302 30.4319 40.8313 31.1063 40.8344C31.3541 40.8352 31.6018 40.835 31.8496 40.8338C32.1873 40.8323 32.5249 40.8341 32.8626 40.8369C32.9611 40.8356 33.0596 40.8344 33.161 40.8332C33.6472 40.8408 33.8435 40.8586 34.2387 41.167C34.4696 41.4775 34.5259 41.618 34.5199 42.0001C34.5213 42.0903 34.5227 42.1805 34.5242 42.2735C34.4153 42.6832 34.2381 42.8335 33.9047 43.0938C33.5574 43.174 33.2178 43.1677 32.8626 43.1633C32.7571 43.1641 32.6517 43.165 32.543 43.1658C32.1892 43.168 31.8355 43.1663 31.4818 43.1646C31.2282 43.1653 30.9747 43.1663 30.7212 43.1675C30.0325 43.17 29.3437 43.169 28.6549 43.1673C27.9347 43.1659 27.2144 43.1672 26.4941 43.168C25.2069 43.1692 23.9198 43.1674 22.6326 43.1646C21.4656 43.1622 20.2987 43.1626 19.1317 43.1651C17.7764 43.168 16.4211 43.1691 15.0658 43.1675C14.3484 43.1667 13.631 43.1665 12.9136 43.1683C12.2392 43.1699 11.5649 43.1688 10.8905 43.1657C10.6428 43.1649 10.395 43.1652 10.1472 43.1664C9.8095 43.1678 9.47193 43.166 9.13419 43.1633C9.03572 43.1645 8.93725 43.1657 8.8358 43.1669C8.34965 43.1593 8.15335 43.1416 7.75814 42.8331C7.52719 42.5226 7.47096 42.3821 7.47693 42.0001C7.47552 41.9098 7.47411 41.8196 7.47266 41.7266C7.70437 40.8543 8.3726 40.8274 9.13419 40.8369Z" fill="#0499FC"/>
<path d="M29.9592 21.3909C30.19 21.3896 30.4205 21.3842 30.6512 21.3787C31.5705 21.3677 32.2537 21.475 33.0303 21.9843C33.1792 22.0756 33.1792 22.0756 33.3311 22.1689C34.0644 22.9225 34.4107 23.7808 34.4522 24.828C34.412 25.3922 34.2922 25.8569 33.9942 26.3388C33.7745 26.6582 33.7745 26.6582 33.7959 26.9472C33.8978 27.2255 33.8978 27.2255 34.0079 27.4522C34.4625 28.4184 34.5759 29.2662 34.2334 30.2968C33.7835 31.2955 33.1512 31.8797 32.1479 32.3035C31.6137 32.484 31.0189 32.4271 30.4602 32.4237C30.2273 32.4228 29.9947 32.4259 29.7619 32.4294C29.6126 32.4296 29.4634 32.4295 29.3141 32.4292C29.1127 32.4295 29.1127 32.4295 28.9071 32.4298C28.4798 32.3649 28.2999 32.2429 27.9991 31.9374C27.8624 31.5273 27.8727 31.1445 27.8721 30.7172C27.8715 30.6263 27.871 30.5354 27.8704 30.4417C27.8688 30.1408 27.8681 29.8398 27.8675 29.5388C27.8669 29.3297 27.8662 29.1206 27.8656 28.9115C27.8644 28.4729 27.8638 28.0344 27.8634 27.5958C27.8628 27.0339 27.8602 26.4721 27.8571 25.9102C27.855 25.4782 27.8545 25.0462 27.8543 24.6142C27.854 24.4071 27.8531 24.2 27.8517 23.9928C27.8498 23.703 27.85 23.4132 27.8507 23.1234C27.8497 23.0379 27.8487 22.9524 27.8477 22.8644C27.8515 22.3688 27.9072 22.0477 28.2178 21.6562C28.7426 21.3063 29.3453 21.3925 29.9592 21.3909ZM30.1866 23.6249C30.1866 24.3468 30.1866 25.0687 30.1866 25.8124C31.0927 25.8207 31.0927 25.8207 31.8272 25.4843C32.0953 25.0821 32.1361 24.7483 32.0459 24.2812C31.819 23.9849 31.6424 23.7985 31.3008 23.6454C30.9307 23.6137 30.5581 23.6249 30.1866 23.6249ZM30.1866 27.9999C30.1866 28.7218 30.1866 29.4437 30.1866 30.1874C31.0927 30.1957 31.0927 30.1957 31.8272 29.8593C32.0953 29.4571 32.1361 29.1233 32.0459 28.6562C31.819 28.3599 31.6424 28.1735 31.3008 28.0204C30.9307 27.9887 30.5581 27.9999 30.1866 27.9999Z" fill="#0499FC"/>
<path d="M13.6686 35.5054C13.7531 35.5049 13.8376 35.5044 13.9247 35.5039C14.2063 35.5026 14.4877 35.5036 14.7693 35.5046C14.9718 35.5042 15.1743 35.5036 15.3769 35.5029C15.9258 35.5014 16.4746 35.502 17.0235 35.503C17.5985 35.5039 18.1734 35.5031 18.7483 35.5026C19.7137 35.502 20.6791 35.5028 21.6446 35.5043C22.7601 35.5061 23.8756 35.5055 24.9911 35.5037C25.9496 35.5022 26.908 35.502 27.8664 35.5029C28.4386 35.5034 29.0107 35.5035 29.5829 35.5024C30.1208 35.5014 30.6587 35.5021 31.1966 35.504C31.3939 35.5044 31.5911 35.5043 31.7883 35.5036C32.0579 35.5027 32.3274 35.5038 32.597 35.5054C32.6747 35.5047 32.7524 35.504 32.8324 35.5032C33.3837 35.5097 33.7549 35.6201 34.2344 35.8752C34.5274 36.3148 34.5293 36.6711 34.4531 37.1877C34.2569 37.5017 34.1269 37.679 33.7969 37.844C33.5171 37.8556 33.2402 37.8606 32.9604 37.8608C32.8731 37.8613 32.7857 37.8618 32.6957 37.8623C32.4014 37.8637 32.1071 37.8644 31.8128 37.8651C31.6025 37.8659 31.3921 37.8668 31.1818 37.8678C30.4896 37.8707 29.7975 37.8723 29.1053 37.8739C28.8673 37.8745 28.6293 37.8751 28.3913 37.8757C27.4015 37.878 26.4117 37.8801 25.4219 37.8813C24.002 37.8831 22.5821 37.8867 21.1622 37.8929C20.1646 37.8972 19.167 37.8993 18.1693 37.8999C17.5731 37.9003 16.9769 37.9016 16.3806 37.9051C15.8198 37.9084 15.259 37.9091 14.6982 37.9078C14.4923 37.9078 14.2863 37.9087 14.0804 37.9106C13.7993 37.9131 13.5185 37.9122 13.2375 37.9105C13.1558 37.912 13.0742 37.9135 12.99 37.9151C12.5641 37.9086 12.3761 37.8572 12.0379 37.5899C11.7537 37.2208 11.7031 36.9958 11.7031 36.5315C11.8125 36.176 11.8125 36.176 12.0312 35.8752C12.5843 35.5838 13.0429 35.4995 13.6686 35.5054Z" fill="#0499FC"/>
<path d="M10.793 21.4042C10.8963 21.4024 10.9996 21.4007 11.1061 21.3989C11.2732 21.398 11.2732 21.398 11.4437 21.3971C11.5585 21.3961 11.6733 21.3951 11.7915 21.3941C12.0344 21.3925 12.2773 21.3915 12.5202 21.3911C12.8916 21.3898 13.2629 21.3845 13.6342 21.3789C13.8702 21.3779 14.1062 21.3771 14.3422 21.3766C14.4532 21.3745 14.5641 21.3723 14.6785 21.3701C15.4498 21.375 15.4498 21.375 15.8758 21.6979C16.1578 22.095 16.16 22.3443 16.1289 22.8177C16.0793 23.0783 16.0793 23.0783 15.9016 23.4201C15.4686 23.6607 15.2339 23.6465 14.7438 23.638C14.5356 23.6352 14.5356 23.6352 14.3232 23.6324C14.217 23.63 14.1107 23.6276 14.0012 23.6252C14.0022 23.6968 14.0032 23.7683 14.0042 23.8421C14.0139 24.5909 14.0205 25.3397 14.0253 26.0885C14.0274 26.3675 14.0304 26.6465 14.0342 26.9255C14.0396 27.3279 14.042 27.7302 14.0439 28.1326C14.0462 28.2562 14.0485 28.3797 14.0508 28.507C14.051 29.4308 13.8823 30.2366 13.3176 30.9875C12.6045 31.6844 11.8111 32.0757 10.802 32.0881C9.8782 32.0712 9.06095 31.8099 8.37995 31.1661C7.7545 30.4082 7.43937 29.5937 7.48957 28.6103C7.57461 28.2006 7.75606 28.0154 8.09497 27.7814C8.40845 27.6247 8.6214 27.6385 8.96997 27.6721C9.3579 27.8394 9.56947 27.9751 9.73645 28.3706C9.81947 28.6467 9.8892 28.9226 9.95435 29.2033C9.99044 29.3116 10.0265 29.4199 10.0637 29.5314C10.5529 29.6945 10.9964 29.6945 11.4856 29.5314C11.5929 29.2095 11.6116 28.9901 11.6174 28.654C11.6196 28.5424 11.6218 28.4307 11.624 28.3157C11.6259 28.1953 11.6277 28.075 11.6296 27.9511C11.6319 27.8277 11.6341 27.7044 11.6365 27.5773C11.6436 27.1828 11.6501 26.7883 11.6565 26.3937C11.6612 26.1265 11.666 25.8593 11.6708 25.592C11.6825 24.9364 11.6937 24.2808 11.7043 23.6252C11.6081 23.6303 11.5118 23.6353 11.4125 23.6406C11.222 23.6465 11.222 23.6465 11.0276 23.6525C10.8392 23.6601 10.8392 23.6601 10.6469 23.6679C10.2124 23.617 10.0418 23.4933 9.7356 23.1877C9.56724 22.7352 9.57523 22.3231 9.76294 21.882C10.0826 21.5053 10.315 21.4103 10.793 21.4042Z" fill="#0499FC"/>
<path d="M39.6961 35.5045C39.8208 35.5036 39.8208 35.5036 39.9481 35.5027C40.2208 35.5013 40.4934 35.5022 40.7661 35.5034C40.9569 35.5031 41.1477 35.5028 41.3385 35.5024C41.7375 35.5019 42.1365 35.5026 42.5355 35.5042C43.0456 35.506 43.5556 35.505 44.0657 35.503C44.4595 35.5018 44.8532 35.5022 45.2469 35.503C45.4349 35.5032 45.623 35.503 45.811 35.5022C46.0743 35.5014 46.3375 35.5027 46.6008 35.5045C46.6776 35.5038 46.7545 35.5032 46.8337 35.5025C47.3843 35.5095 47.7554 35.6204 48.2344 35.8751C48.5274 36.3146 48.5293 36.6709 48.4531 37.1876C48.2569 37.5015 48.1269 37.6788 47.7969 37.8438C47.5028 37.8568 47.2115 37.8633 46.9173 37.8649C46.7809 37.8662 46.7809 37.8662 46.6418 37.8676C46.3402 37.8703 46.0387 37.8721 45.7371 37.8737C45.6342 37.8743 45.5313 37.8749 45.4253 37.8755C44.8808 37.8784 44.3362 37.8805 43.7916 37.8821C43.2289 37.8839 42.6662 37.8888 42.1035 37.8944C41.671 37.8981 41.2386 37.8993 40.8061 37.9C40.5986 37.9007 40.3912 37.9024 40.1838 37.905C39.8933 37.9084 39.6031 37.9084 39.3127 37.9076C39.2271 37.9094 39.1414 37.9112 39.0532 37.9131C38.6137 37.908 38.4147 37.8629 38.0664 37.586C37.8039 37.2451 37.7344 37.0705 37.7344 36.6407C37.8438 36.2374 37.8438 36.2374 38.0625 35.8751C38.6117 35.5797 39.0726 35.4991 39.6961 35.5045Z" fill="#0499FC"/>
<path d="M39.2927 40.8729C39.4307 40.8715 39.4307 40.8715 39.5714 40.8701C39.876 40.8675 40.1805 40.8665 40.485 40.8658C40.6965 40.8648 40.9081 40.8638 41.1197 40.8628C41.5634 40.861 42.0071 40.8602 42.4509 40.8599C43.0194 40.8593 43.5878 40.8552 44.1563 40.8502C44.5934 40.8469 45.0304 40.8461 45.4675 40.846C45.6771 40.8455 45.8866 40.8442 46.0962 40.8419C46.3895 40.839 46.6826 40.8395 46.9759 40.8409C47.0624 40.8392 47.1489 40.8376 47.238 40.8359C47.6814 40.8418 47.882 40.8871 48.2333 41.1669C48.472 41.4779 48.5275 41.6136 48.5215 42.0002C48.5236 42.1355 48.5236 42.1355 48.5258 42.2736C48.4181 42.6788 48.2324 42.8337 47.9062 43.0939C47.5765 43.148 47.3086 43.1689 46.9793 43.1647C46.8873 43.1656 46.7953 43.1666 46.7005 43.1676C46.3971 43.17 46.0939 43.1684 45.7905 43.1665C45.5793 43.1669 45.368 43.1674 45.1568 43.1681C44.7143 43.1689 44.272 43.1678 43.8295 43.1652C43.2627 43.1621 42.6961 43.1639 42.1293 43.1672C41.6931 43.1691 41.257 43.1685 40.8209 43.1671C40.6119 43.1667 40.4029 43.1672 40.194 43.1684C39.9018 43.1698 39.6098 43.1677 39.3175 43.1647C39.1883 43.1663 39.1883 43.1663 39.0565 43.168C38.6168 43.1596 38.4144 43.1128 38.0661 42.8357C37.8037 42.495 37.7344 42.3203 37.7344 41.8908C38.0381 40.9796 38.3896 40.8737 39.2927 40.8729Z" fill="#0499FC"/>
<path d="M43.8595 9.73436C44.2637 10.0502 44.3854 10.2408 44.4571 10.7534C44.4729 11.1233 44.4783 11.4887 44.4717 11.8587C44.4679 12.0926 44.4694 12.326 44.4715 12.56C44.4708 12.7097 44.4697 12.8595 44.4683 13.0092C44.4665 13.2117 44.4665 13.2117 44.4647 13.4183C44.3965 13.8429 44.2677 14.0247 43.9689 14.3281C43.5885 14.5183 43.1808 14.502 42.7658 14.4375C42.3755 14.1448 42.1933 13.9273 42.1095 13.4531C42.082 12.9841 42.0842 12.5147 42.0822 12.0449C42.0799 11.9167 42.0777 11.7886 42.0753 11.6565C42.0699 10.4639 42.0699 10.4639 42.4376 9.95311C42.9305 9.60589 43.2837 9.55638 43.8595 9.73436Z" fill="#0499FC"/>
<path d="M9.55675 35.9574C9.7862 36.2751 9.83617 36.4672 9.84386 36.8597C9.68527 37.3355 9.60883 37.5633 9.18761 37.8441C8.68529 37.925 8.30992 37.9108 7.87511 37.639C7.51386 37.2552 7.5036 36.9621 7.50854 36.4509C7.54699 36.2035 7.54699 36.2035 7.79308 35.8754C8.40614 35.4295 8.93185 35.497 9.55675 35.9574Z" fill="#0499FC"/>
<path d="M43.8587 5.57818C44.1965 5.80336 44.3686 5.9579 44.4577 6.3609C44.4883 6.84437 44.4536 7.04878 44.1458 7.43756C43.6978 7.77891 43.4412 7.81372 42.8743 7.76568C42.5423 7.56647 42.3706 7.40262 42.1771 7.06842C42.0898 6.70185 42.1054 6.48566 42.2181 6.12506C42.7379 5.52522 43.0809 5.36701 43.8587 5.57818Z" fill="#0499FC"/>
</g>
<defs>
<clipPath id="clip0_2003_173">
<rect width="56" height="56" fill="white"/>
</clipPath>
</defs>
</svg>
